%
M48
M72
T01C0.02362
T02C0.04000
T03C0.04134
T04C0.04724
%
T01
X24800Y29300
X24800Y33700
X24800Y38100
X46800Y57300
X41800Y67300
X36800Y67300
X31800Y79800
X37900Y83500
X31800Y87300
X16800Y109800
X61800Y57300
X76800Y69800
X76800Y74800
X76800Y84800
X76800Y84800
X79300Y92300
X84300Y84800
X79300Y99800
X84300Y112300
X94300Y109800
X101800Y109800
X114300Y79800
X114300Y74800
X101800Y72300
X84300Y52300
X84300Y47300
X109300Y34800
X104100Y13600
T02
X86400Y12300
X81900Y37400
X71900Y37400
X61900Y37400
X51900Y37400
X35500Y12300
X94925Y49800
X94300Y59800
X94925Y69800
X94300Y79800
X94925Y89800
X94300Y99800
X110500Y122300
T03
X70147Y23622
X51053Y23622
T04
X49872Y11693
X71328Y11693
M30
