G75*
%MOIN*%
%OFA0B0*%
%FSLAX25Y25*%
%IPPOS*%
%LPD*%
%AMOC8*
5,1,8,0,0,1.08239X$1,22.5*
%
%ADD10C,0.00000*%
%ADD11R,0.05118X0.05906*%
%ADD12R,0.06693X0.02559*%
%ADD13R,0.06000X0.06000*%
%ADD14OC8,0.06000*%
%ADD15R,0.04724X0.04724*%
%ADD16R,0.06299X0.05118*%
%ADD17R,0.05906X0.03937*%
%ADD18R,0.08800X0.04800*%
%ADD19R,0.08661X0.14173*%
%ADD20R,0.01575X0.06890*%
%ADD21R,0.07874X0.07874*%
%ADD22R,0.07600X0.03800*%
%ADD23R,0.03937X0.03937*%
%ADD24R,0.05118X0.06299*%
%ADD25C,0.03762*%
%ADD26C,0.05000*%
%ADD27C,0.02400*%
%ADD28C,0.03200*%
%ADD29C,0.04000*%
%ADD30C,0.01600*%
%ADD31C,0.01000*%
D10*
X0001000Y0004800D02*
X0001000Y0132261D01*
X0119301Y0132261D01*
X0119301Y0004800D01*
X0001000Y0004800D01*
X0048986Y0023622D02*
X0048988Y0023713D01*
X0048994Y0023803D01*
X0049004Y0023894D01*
X0049018Y0023983D01*
X0049036Y0024072D01*
X0049057Y0024161D01*
X0049083Y0024248D01*
X0049112Y0024334D01*
X0049146Y0024418D01*
X0049182Y0024501D01*
X0049223Y0024583D01*
X0049267Y0024662D01*
X0049314Y0024740D01*
X0049365Y0024815D01*
X0049419Y0024888D01*
X0049476Y0024958D01*
X0049536Y0025026D01*
X0049599Y0025092D01*
X0049665Y0025154D01*
X0049734Y0025213D01*
X0049805Y0025270D01*
X0049879Y0025323D01*
X0049955Y0025373D01*
X0050033Y0025420D01*
X0050113Y0025463D01*
X0050194Y0025502D01*
X0050278Y0025538D01*
X0050363Y0025570D01*
X0050449Y0025599D01*
X0050536Y0025623D01*
X0050625Y0025644D01*
X0050714Y0025661D01*
X0050804Y0025674D01*
X0050894Y0025683D01*
X0050985Y0025688D01*
X0051076Y0025689D01*
X0051166Y0025686D01*
X0051257Y0025679D01*
X0051347Y0025668D01*
X0051437Y0025653D01*
X0051526Y0025634D01*
X0051614Y0025612D01*
X0051700Y0025585D01*
X0051786Y0025555D01*
X0051870Y0025521D01*
X0051953Y0025483D01*
X0052034Y0025442D01*
X0052113Y0025397D01*
X0052190Y0025348D01*
X0052264Y0025297D01*
X0052337Y0025242D01*
X0052407Y0025184D01*
X0052474Y0025123D01*
X0052538Y0025059D01*
X0052600Y0024993D01*
X0052659Y0024923D01*
X0052714Y0024852D01*
X0052767Y0024777D01*
X0052816Y0024701D01*
X0052862Y0024623D01*
X0052904Y0024542D01*
X0052943Y0024460D01*
X0052978Y0024376D01*
X0053009Y0024291D01*
X0053036Y0024204D01*
X0053060Y0024117D01*
X0053080Y0024028D01*
X0053096Y0023939D01*
X0053108Y0023849D01*
X0053116Y0023758D01*
X0053120Y0023667D01*
X0053120Y0023577D01*
X0053116Y0023486D01*
X0053108Y0023395D01*
X0053096Y0023305D01*
X0053080Y0023216D01*
X0053060Y0023127D01*
X0053036Y0023040D01*
X0053009Y0022953D01*
X0052978Y0022868D01*
X0052943Y0022784D01*
X0052904Y0022702D01*
X0052862Y0022621D01*
X0052816Y0022543D01*
X0052767Y0022467D01*
X0052714Y0022392D01*
X0052659Y0022321D01*
X0052600Y0022251D01*
X0052538Y0022185D01*
X0052474Y0022121D01*
X0052407Y0022060D01*
X0052337Y0022002D01*
X0052264Y0021947D01*
X0052190Y0021896D01*
X0052113Y0021847D01*
X0052034Y0021802D01*
X0051953Y0021761D01*
X0051870Y0021723D01*
X0051786Y0021689D01*
X0051700Y0021659D01*
X0051614Y0021632D01*
X0051526Y0021610D01*
X0051437Y0021591D01*
X0051347Y0021576D01*
X0051257Y0021565D01*
X0051166Y0021558D01*
X0051076Y0021555D01*
X0050985Y0021556D01*
X0050894Y0021561D01*
X0050804Y0021570D01*
X0050714Y0021583D01*
X0050625Y0021600D01*
X0050536Y0021621D01*
X0050449Y0021645D01*
X0050363Y0021674D01*
X0050278Y0021706D01*
X0050194Y0021742D01*
X0050113Y0021781D01*
X0050033Y0021824D01*
X0049955Y0021871D01*
X0049879Y0021921D01*
X0049805Y0021974D01*
X0049734Y0022031D01*
X0049665Y0022090D01*
X0049599Y0022152D01*
X0049536Y0022218D01*
X0049476Y0022286D01*
X0049419Y0022356D01*
X0049365Y0022429D01*
X0049314Y0022504D01*
X0049267Y0022582D01*
X0049223Y0022661D01*
X0049182Y0022743D01*
X0049146Y0022826D01*
X0049112Y0022910D01*
X0049083Y0022996D01*
X0049057Y0023083D01*
X0049036Y0023172D01*
X0049018Y0023261D01*
X0049004Y0023350D01*
X0048994Y0023441D01*
X0048988Y0023531D01*
X0048986Y0023622D01*
X0068080Y0023622D02*
X0068082Y0023713D01*
X0068088Y0023803D01*
X0068098Y0023894D01*
X0068112Y0023983D01*
X0068130Y0024072D01*
X0068151Y0024161D01*
X0068177Y0024248D01*
X0068206Y0024334D01*
X0068240Y0024418D01*
X0068276Y0024501D01*
X0068317Y0024583D01*
X0068361Y0024662D01*
X0068408Y0024740D01*
X0068459Y0024815D01*
X0068513Y0024888D01*
X0068570Y0024958D01*
X0068630Y0025026D01*
X0068693Y0025092D01*
X0068759Y0025154D01*
X0068828Y0025213D01*
X0068899Y0025270D01*
X0068973Y0025323D01*
X0069049Y0025373D01*
X0069127Y0025420D01*
X0069207Y0025463D01*
X0069288Y0025502D01*
X0069372Y0025538D01*
X0069457Y0025570D01*
X0069543Y0025599D01*
X0069630Y0025623D01*
X0069719Y0025644D01*
X0069808Y0025661D01*
X0069898Y0025674D01*
X0069988Y0025683D01*
X0070079Y0025688D01*
X0070170Y0025689D01*
X0070260Y0025686D01*
X0070351Y0025679D01*
X0070441Y0025668D01*
X0070531Y0025653D01*
X0070620Y0025634D01*
X0070708Y0025612D01*
X0070794Y0025585D01*
X0070880Y0025555D01*
X0070964Y0025521D01*
X0071047Y0025483D01*
X0071128Y0025442D01*
X0071207Y0025397D01*
X0071284Y0025348D01*
X0071358Y0025297D01*
X0071431Y0025242D01*
X0071501Y0025184D01*
X0071568Y0025123D01*
X0071632Y0025059D01*
X0071694Y0024993D01*
X0071753Y0024923D01*
X0071808Y0024852D01*
X0071861Y0024777D01*
X0071910Y0024701D01*
X0071956Y0024623D01*
X0071998Y0024542D01*
X0072037Y0024460D01*
X0072072Y0024376D01*
X0072103Y0024291D01*
X0072130Y0024204D01*
X0072154Y0024117D01*
X0072174Y0024028D01*
X0072190Y0023939D01*
X0072202Y0023849D01*
X0072210Y0023758D01*
X0072214Y0023667D01*
X0072214Y0023577D01*
X0072210Y0023486D01*
X0072202Y0023395D01*
X0072190Y0023305D01*
X0072174Y0023216D01*
X0072154Y0023127D01*
X0072130Y0023040D01*
X0072103Y0022953D01*
X0072072Y0022868D01*
X0072037Y0022784D01*
X0071998Y0022702D01*
X0071956Y0022621D01*
X0071910Y0022543D01*
X0071861Y0022467D01*
X0071808Y0022392D01*
X0071753Y0022321D01*
X0071694Y0022251D01*
X0071632Y0022185D01*
X0071568Y0022121D01*
X0071501Y0022060D01*
X0071431Y0022002D01*
X0071358Y0021947D01*
X0071284Y0021896D01*
X0071207Y0021847D01*
X0071128Y0021802D01*
X0071047Y0021761D01*
X0070964Y0021723D01*
X0070880Y0021689D01*
X0070794Y0021659D01*
X0070708Y0021632D01*
X0070620Y0021610D01*
X0070531Y0021591D01*
X0070441Y0021576D01*
X0070351Y0021565D01*
X0070260Y0021558D01*
X0070170Y0021555D01*
X0070079Y0021556D01*
X0069988Y0021561D01*
X0069898Y0021570D01*
X0069808Y0021583D01*
X0069719Y0021600D01*
X0069630Y0021621D01*
X0069543Y0021645D01*
X0069457Y0021674D01*
X0069372Y0021706D01*
X0069288Y0021742D01*
X0069207Y0021781D01*
X0069127Y0021824D01*
X0069049Y0021871D01*
X0068973Y0021921D01*
X0068899Y0021974D01*
X0068828Y0022031D01*
X0068759Y0022090D01*
X0068693Y0022152D01*
X0068630Y0022218D01*
X0068570Y0022286D01*
X0068513Y0022356D01*
X0068459Y0022429D01*
X0068408Y0022504D01*
X0068361Y0022582D01*
X0068317Y0022661D01*
X0068276Y0022743D01*
X0068240Y0022826D01*
X0068206Y0022910D01*
X0068177Y0022996D01*
X0068151Y0023083D01*
X0068130Y0023172D01*
X0068112Y0023261D01*
X0068098Y0023350D01*
X0068088Y0023441D01*
X0068082Y0023531D01*
X0068080Y0023622D01*
D11*
X0035440Y0052800D03*
X0027960Y0052800D03*
X0019840Y0013700D03*
X0012360Y0013700D03*
D12*
X0070481Y0044800D03*
X0070481Y0049800D03*
X0070481Y0054800D03*
X0070481Y0059800D03*
X0070481Y0064800D03*
X0070481Y0069800D03*
X0070481Y0074800D03*
X0070481Y0079800D03*
X0070481Y0084800D03*
X0070481Y0089800D03*
X0070481Y0094800D03*
X0070481Y0099800D03*
X0070481Y0104800D03*
X0070481Y0109800D03*
X0108119Y0109800D03*
X0108119Y0104800D03*
X0108119Y0099800D03*
X0108119Y0094800D03*
X0108119Y0089800D03*
X0108119Y0084800D03*
X0108119Y0079800D03*
X0108119Y0074800D03*
X0108119Y0069800D03*
X0108119Y0064800D03*
X0108119Y0059800D03*
X0108119Y0054800D03*
X0108119Y0049800D03*
X0108119Y0044800D03*
D13*
X0086400Y0012300D03*
X0051900Y0037400D03*
X0035500Y0012300D03*
X0094300Y0099800D03*
X0110500Y0122300D03*
D14*
X0094925Y0089800D03*
X0094300Y0079800D03*
X0094925Y0069800D03*
X0094300Y0059800D03*
X0094925Y0049800D03*
X0081900Y0037400D03*
X0071900Y0037400D03*
X0061900Y0037400D03*
D15*
X0070148Y0023640D03*
X0051038Y0023640D03*
X0076800Y0118166D03*
X0076800Y0126434D03*
X0101800Y0126434D03*
X0101800Y0118166D03*
D16*
X0094300Y0118560D03*
X0094300Y0126040D03*
X0084300Y0126040D03*
X0084300Y0118560D03*
D17*
X0058434Y0111198D03*
X0058434Y0103324D03*
X0058434Y0095450D03*
X0058434Y0087576D03*
X0058434Y0079702D03*
X0058434Y0071828D03*
X0058434Y0063954D03*
X0008828Y0063954D03*
X0008828Y0071828D03*
X0008828Y0079702D03*
X0008828Y0087576D03*
X0008828Y0095450D03*
X0008828Y0103324D03*
X0008828Y0111198D03*
D18*
X0037000Y0042900D03*
X0037000Y0033800D03*
X0037000Y0024700D03*
D19*
X0012599Y0033800D03*
D20*
X0055482Y0022815D03*
X0058041Y0022815D03*
X0060600Y0022815D03*
X0063159Y0022815D03*
X0065718Y0022815D03*
D21*
X0071328Y0011693D03*
X0049872Y0011693D03*
D22*
X0046404Y0017900D03*
X0074781Y0017868D03*
D23*
X0096226Y0016650D03*
X0096226Y0022550D03*
X0096226Y0028850D03*
X0111974Y0028850D03*
X0111974Y0022550D03*
X0111974Y0016650D03*
X0111974Y0010350D03*
X0096226Y0010350D03*
D24*
X0017440Y0052800D03*
X0009960Y0052800D03*
D25*
X0024800Y0038100D03*
X0024800Y0033700D03*
X0024800Y0029300D03*
X0046800Y0057300D03*
X0041800Y0067300D03*
X0036800Y0067300D03*
X0031800Y0079800D03*
X0037900Y0083500D03*
X0031800Y0087300D03*
X0016800Y0109800D03*
X0061800Y0057300D03*
X0076800Y0069800D03*
X0076800Y0074800D03*
X0076800Y0084800D03*
X0076800Y0084800D03*
X0079300Y0092300D03*
X0084300Y0084800D03*
X0079300Y0099800D03*
X0084300Y0112300D03*
X0094300Y0109800D03*
X0101800Y0109800D03*
X0114300Y0079800D03*
X0114300Y0074800D03*
X0101800Y0072300D03*
X0084300Y0052300D03*
X0084300Y0047300D03*
X0109300Y0034800D03*
X0104100Y0013600D03*
X0059300Y0014800D03*
D26*
X0037000Y0042900D02*
X0037000Y0051240D01*
X0036900Y0053700D02*
X0036900Y0067200D01*
X0036800Y0067300D01*
X0041800Y0067300D01*
D27*
X0017440Y0049160D02*
X0024300Y0042300D01*
X0024300Y0029800D01*
X0024800Y0029300D01*
X0024800Y0033700D02*
X0024800Y0038100D01*
X0017440Y0049160D02*
X0017440Y0052800D01*
X0070481Y0084800D02*
X0076800Y0084800D01*
X0094925Y0089800D02*
X0101800Y0082925D01*
X0101800Y0072300D01*
X0104300Y0069800D01*
X0108119Y0069800D01*
X0108119Y0109800D02*
X0101800Y0109800D01*
X0084300Y0112300D02*
X0084300Y0118560D01*
D28*
X0079300Y0092300D02*
X0091800Y0092300D01*
X0094300Y0089800D01*
X0094925Y0089800D01*
X0051900Y0037400D02*
X0051800Y0037300D01*
X0046800Y0037300D01*
X0043300Y0033800D01*
X0037000Y0033800D01*
X0012599Y0033800D01*
X0016800Y0109800D02*
X0015402Y0111198D01*
X0008828Y0111198D01*
D29*
X0036900Y0053700D02*
X0036000Y0052800D01*
X0035440Y0052800D01*
X0037000Y0051240D01*
X0037000Y0024700D02*
X0037000Y0013800D01*
X0035500Y0012300D01*
X0034100Y0013700D01*
X0019840Y0013700D01*
D30*
X0012599Y0013700D02*
X0012599Y0033800D01*
X0003500Y0042899D01*
X0003500Y0076000D01*
X0007102Y0079702D01*
X0008828Y0079702D01*
X0009300Y0072300D02*
X0008828Y0071828D01*
X0009300Y0072300D02*
X0014300Y0072300D01*
X0017900Y0075900D01*
X0062700Y0075900D01*
X0066600Y0079800D01*
X0070481Y0079800D01*
X0070481Y0074800D02*
X0066800Y0074800D01*
X0064300Y0072300D01*
X0064300Y0069800D01*
X0058454Y0063954D01*
X0058434Y0063954D01*
X0056800Y0062320D01*
X0056800Y0059800D01*
X0051900Y0054900D01*
X0051900Y0037400D01*
X0053900Y0029100D02*
X0046100Y0029100D01*
X0041800Y0024800D01*
X0036800Y0024800D01*
X0053900Y0029100D02*
X0055482Y0027518D01*
X0055482Y0022815D01*
X0055482Y0018618D01*
X0059300Y0014800D01*
X0065718Y0019482D02*
X0067500Y0017700D01*
X0086400Y0017700D01*
X0086400Y0021900D01*
X0094300Y0029800D01*
X0095276Y0029800D01*
X0096226Y0028850D01*
X0090700Y0034100D02*
X0101800Y0034100D01*
X0107500Y0039800D01*
X0111800Y0039800D01*
X0114300Y0042300D01*
X0114300Y0047300D01*
X0111800Y0049800D01*
X0108119Y0049800D01*
X0108119Y0054800D02*
X0104300Y0054800D01*
X0101800Y0052300D01*
X0101800Y0044800D01*
X0099300Y0042300D01*
X0086800Y0042300D01*
X0084300Y0044800D01*
X0084300Y0047300D01*
X0084300Y0052300D02*
X0086800Y0054800D01*
X0099300Y0054800D01*
X0104300Y0059800D01*
X0108119Y0059800D01*
X0108119Y0064800D02*
X0091800Y0064800D01*
X0089300Y0067300D01*
X0089300Y0074800D01*
X0084300Y0079800D01*
X0084300Y0084800D01*
X0084300Y0082300D01*
X0076800Y0074800D01*
X0070481Y0074800D01*
X0070481Y0069800D02*
X0076800Y0069800D01*
X0070481Y0064800D02*
X0067000Y0064400D01*
X0064300Y0061700D01*
X0064300Y0059800D01*
X0061800Y0057300D01*
X0066800Y0049800D02*
X0070481Y0049800D01*
X0066800Y0049800D02*
X0061900Y0044900D01*
X0061900Y0037400D01*
X0061600Y0032100D02*
X0084300Y0032100D01*
X0089500Y0037300D01*
X0100619Y0037300D01*
X0108119Y0044800D01*
X0109300Y0034800D02*
X0104100Y0029600D01*
X0104100Y0022600D01*
X0096226Y0022550D01*
X0111974Y0022550D01*
X0111974Y0016650D02*
X0104100Y0016700D01*
X0096226Y0016650D01*
X0096226Y0010350D02*
X0095676Y0009800D01*
X0089300Y0009800D01*
X0086800Y0012300D01*
X0086400Y0012300D01*
X0086400Y0017700D01*
X0086100Y0029500D02*
X0090700Y0034100D01*
X0086100Y0029500D02*
X0062900Y0029500D01*
X0060700Y0027300D01*
X0060600Y0022815D01*
X0058041Y0022815D02*
X0057941Y0028541D01*
X0061600Y0032100D01*
X0065718Y0022815D02*
X0065718Y0019482D01*
X0071900Y0037400D02*
X0076800Y0042300D01*
X0076800Y0052300D01*
X0074300Y0054800D01*
X0070481Y0054800D01*
X0070481Y0059800D02*
X0074300Y0059800D01*
X0079600Y0054500D01*
X0079600Y0042100D01*
X0081900Y0039800D01*
X0081900Y0037400D01*
X0104100Y0016700D02*
X0104100Y0013600D01*
X0070181Y0064500D02*
X0070481Y0064800D01*
X0058434Y0079702D02*
X0058335Y0079800D01*
X0031800Y0079800D01*
X0037900Y0083500D02*
X0018000Y0083600D01*
X0014300Y0087300D01*
X0009103Y0087300D01*
X0008828Y0087576D01*
X0009477Y0094800D02*
X0008828Y0095450D01*
X0009477Y0094800D02*
X0014300Y0094800D01*
X0017700Y0091400D01*
X0063500Y0091400D01*
X0065100Y0089800D01*
X0070481Y0089800D01*
X0070481Y0094800D02*
X0069831Y0095450D01*
X0058434Y0095450D01*
X0058434Y0103324D02*
X0055776Y0103324D01*
X0049300Y0109800D01*
X0016800Y0109800D01*
X0014300Y0102300D02*
X0009851Y0102300D01*
X0008828Y0103324D01*
X0014300Y0102300D02*
X0017300Y0099300D01*
X0067900Y0099300D01*
X0068400Y0099800D01*
X0070481Y0099800D01*
X0070481Y0104800D02*
X0074300Y0104800D01*
X0079300Y0099800D01*
X0079300Y0104800D02*
X0089300Y0104800D01*
X0094300Y0099800D01*
X0099300Y0104800D02*
X0094300Y0109800D01*
X0091900Y0113600D02*
X0086200Y0107900D01*
X0081200Y0107900D01*
X0076800Y0112300D01*
X0076800Y0118166D01*
X0077700Y0126200D02*
X0084000Y0126200D01*
X0085000Y0118500D02*
X0094000Y0118500D01*
X0091900Y0113600D02*
X0112000Y0113600D01*
X0113600Y0112000D01*
X0113600Y0096500D01*
X0111900Y0094800D01*
X0108119Y0094800D01*
X0108119Y0089800D02*
X0114300Y0089800D01*
X0116800Y0092300D01*
X0116800Y0114800D01*
X0114300Y0117300D01*
X0101800Y0117300D01*
X0101800Y0118166D01*
X0101000Y0126300D02*
X0094700Y0126300D01*
X0099300Y0104800D02*
X0108119Y0104800D01*
X0108119Y0079800D02*
X0114300Y0079800D01*
X0114300Y0074800D02*
X0108119Y0074800D01*
X0094300Y0079800D02*
X0089300Y0074800D01*
X0079300Y0104800D02*
X0074300Y0109800D01*
X0070481Y0109800D01*
X0058434Y0087576D02*
X0058158Y0087300D01*
X0031800Y0087300D01*
X0021800Y0072300D02*
X0044300Y0072300D01*
X0046800Y0069800D01*
X0046800Y0057300D01*
X0027960Y0052800D02*
X0017440Y0052800D01*
X0009960Y0052800D02*
X0008828Y0053932D01*
X0008828Y0063954D01*
X0009674Y0064800D01*
X0014300Y0064800D01*
X0021800Y0072300D01*
X0012599Y0013700D02*
X0012360Y0013700D01*
D31*
X0011860Y0013653D02*
X0003100Y0013653D01*
X0003100Y0014651D02*
X0008301Y0014651D01*
X0008301Y0014200D02*
X0011860Y0014200D01*
X0011860Y0018153D01*
X0009603Y0018153D01*
X0009222Y0018051D01*
X0008880Y0017853D01*
X0008600Y0017574D01*
X0008403Y0017232D01*
X0008301Y0016850D01*
X0008301Y0014200D01*
X0008301Y0013200D02*
X0008301Y0010550D01*
X0008403Y0010168D01*
X0008600Y0009826D01*
X0008880Y0009547D01*
X0009222Y0009349D01*
X0009603Y0009247D01*
X0011860Y0009247D01*
X0011860Y0013200D01*
X0012860Y0013200D01*
X0012860Y0009247D01*
X0015116Y0009247D01*
X0015498Y0009349D01*
X0015632Y0009427D01*
X0016411Y0008647D01*
X0023269Y0008647D01*
X0024222Y0009600D01*
X0030400Y0009600D01*
X0030400Y0008430D01*
X0031630Y0007200D01*
X0039370Y0007200D01*
X0040600Y0008430D01*
X0040600Y0011777D01*
X0041100Y0012984D01*
X0041100Y0014534D01*
X0041734Y0013900D01*
X0043835Y0013900D01*
X0043835Y0006900D01*
X0003100Y0006900D01*
X0003100Y0111200D01*
X0003775Y0111200D01*
X0003775Y0108359D01*
X0004873Y0107261D01*
X0003775Y0106162D01*
X0003775Y0100485D01*
X0004873Y0099387D01*
X0003775Y0098288D01*
X0003775Y0092611D01*
X0004873Y0091513D01*
X0003775Y0090414D01*
X0003775Y0084737D01*
X0005005Y0083507D01*
X0012650Y0083507D01*
X0013321Y0084178D01*
X0015944Y0081555D01*
X0016345Y0081150D01*
X0016352Y0081147D01*
X0016357Y0081141D01*
X0016883Y0080924D01*
X0017409Y0080703D01*
X0017416Y0080703D01*
X0017423Y0080700D01*
X0017994Y0080700D01*
X0027843Y0080651D01*
X0027819Y0080592D01*
X0027819Y0079008D01*
X0027905Y0078800D01*
X0017323Y0078800D01*
X0016257Y0078358D01*
X0013223Y0075324D01*
X0012650Y0075896D01*
X0005005Y0075896D01*
X0003775Y0074666D01*
X0003775Y0068989D01*
X0004873Y0067891D01*
X0003775Y0066792D01*
X0003775Y0061115D01*
X0005005Y0059885D01*
X0005928Y0059885D01*
X0005928Y0057446D01*
X0005301Y0056819D01*
X0005301Y0048781D01*
X0006531Y0047550D01*
X0013389Y0047550D01*
X0014168Y0048330D01*
X0014302Y0048253D01*
X0014684Y0048150D01*
X0016940Y0048150D01*
X0016940Y0052300D01*
X0017940Y0052300D01*
X0017940Y0048150D01*
X0020197Y0048150D01*
X0020578Y0048253D01*
X0020920Y0048450D01*
X0021199Y0048729D01*
X0021397Y0049071D01*
X0021499Y0049453D01*
X0021499Y0052300D01*
X0017940Y0052300D01*
X0017940Y0053300D01*
X0016940Y0053300D01*
X0016940Y0057450D01*
X0014684Y0057450D01*
X0014302Y0057347D01*
X0014168Y0057270D01*
X0013389Y0058050D01*
X0011728Y0058050D01*
X0011728Y0059885D01*
X0012650Y0059885D01*
X0013880Y0061115D01*
X0013880Y0061900D01*
X0014877Y0061900D01*
X0015943Y0062341D01*
X0016758Y0063157D01*
X0023001Y0069400D01*
X0032691Y0069400D01*
X0032200Y0068215D01*
X0032200Y0066385D01*
X0032300Y0066144D01*
X0032300Y0057853D01*
X0032011Y0057853D01*
X0031232Y0057073D01*
X0031098Y0057151D01*
X0030716Y0057253D01*
X0028460Y0057253D01*
X0028460Y0053300D01*
X0027460Y0053300D01*
X0027460Y0057253D01*
X0025203Y0057253D01*
X0024822Y0057151D01*
X0024480Y0056953D01*
X0024200Y0056674D01*
X0024003Y0056332D01*
X0023901Y0055950D01*
X0023901Y0053300D01*
X0027460Y0053300D01*
X0027460Y0052300D01*
X0028460Y0052300D01*
X0028460Y0048347D01*
X0030716Y0048347D01*
X0031098Y0048449D01*
X0031232Y0048527D01*
X0032011Y0047747D01*
X0032400Y0047747D01*
X0032400Y0047400D01*
X0031730Y0047400D01*
X0030500Y0046170D01*
X0030500Y0039630D01*
X0031730Y0038400D01*
X0035844Y0038400D01*
X0036085Y0038300D01*
X0037915Y0038300D01*
X0038156Y0038400D01*
X0042270Y0038400D01*
X0043500Y0039630D01*
X0043500Y0046170D01*
X0042270Y0047400D01*
X0041600Y0047400D01*
X0041600Y0052155D01*
X0041420Y0052591D01*
X0041500Y0052785D01*
X0041500Y0062700D01*
X0042715Y0062700D01*
X0043900Y0063191D01*
X0043900Y0060030D01*
X0043425Y0059555D01*
X0042819Y0058092D01*
X0042819Y0056508D01*
X0043425Y0055045D01*
X0044545Y0053925D01*
X0046008Y0053319D01*
X0047592Y0053319D01*
X0049055Y0053925D01*
X0050175Y0055045D01*
X0050781Y0056508D01*
X0050781Y0058092D01*
X0050175Y0059555D01*
X0049700Y0060030D01*
X0049700Y0070377D01*
X0049258Y0071443D01*
X0048443Y0072258D01*
X0047701Y0073000D01*
X0053381Y0073000D01*
X0053381Y0068989D01*
X0054611Y0067759D01*
X0062256Y0067759D01*
X0063487Y0068989D01*
X0063487Y0073087D01*
X0064343Y0073441D01*
X0065158Y0074257D01*
X0065158Y0074257D01*
X0065841Y0074940D01*
X0070341Y0074940D01*
X0070341Y0074660D01*
X0065635Y0074660D01*
X0065635Y0073323D01*
X0065737Y0072941D01*
X0065843Y0072758D01*
X0065035Y0071949D01*
X0065035Y0067651D01*
X0065385Y0067300D01*
X0065035Y0066949D01*
X0065035Y0066588D01*
X0064832Y0066333D01*
X0061968Y0063469D01*
X0058918Y0063469D01*
X0058918Y0060485D01*
X0059355Y0060485D01*
X0058425Y0059555D01*
X0057819Y0058092D01*
X0057819Y0056508D01*
X0058425Y0055045D01*
X0059545Y0053925D01*
X0061008Y0053319D01*
X0062592Y0053319D01*
X0064055Y0053925D01*
X0065035Y0054905D01*
X0065035Y0052651D01*
X0065348Y0052337D01*
X0065157Y0052258D01*
X0064341Y0051443D01*
X0059441Y0046543D01*
X0059000Y0045477D01*
X0059000Y0041712D01*
X0056800Y0039512D01*
X0056800Y0035288D01*
X0058732Y0033356D01*
X0056299Y0030989D01*
X0056256Y0030970D01*
X0056194Y0030907D01*
X0055543Y0031558D01*
X0054477Y0032000D01*
X0045523Y0032000D01*
X0044457Y0031558D01*
X0042099Y0029200D01*
X0031730Y0029200D01*
X0030500Y0027970D01*
X0030500Y0021430D01*
X0031730Y0020200D01*
X0032900Y0020200D01*
X0032900Y0017800D01*
X0024222Y0017800D01*
X0023269Y0018753D01*
X0016411Y0018753D01*
X0015632Y0017973D01*
X0015498Y0018051D01*
X0015116Y0018153D01*
X0012860Y0018153D01*
X0012860Y0014200D01*
X0011860Y0014200D01*
X0011860Y0013200D01*
X0008301Y0013200D01*
X0008301Y0012654D02*
X0003100Y0012654D01*
X0003100Y0011656D02*
X0008301Y0011656D01*
X0008301Y0010657D02*
X0003100Y0010657D01*
X0003100Y0009659D02*
X0008768Y0009659D01*
X0011860Y0009659D02*
X0012860Y0009659D01*
X0012860Y0010657D02*
X0011860Y0010657D01*
X0011860Y0011656D02*
X0012860Y0011656D01*
X0012860Y0012654D02*
X0011860Y0012654D01*
X0011860Y0014651D02*
X0012860Y0014651D01*
X0012860Y0015650D02*
X0011860Y0015650D01*
X0011860Y0016648D02*
X0012860Y0016648D01*
X0012860Y0017647D02*
X0011860Y0017647D01*
X0008673Y0017647D02*
X0003100Y0017647D01*
X0003100Y0018645D02*
X0016304Y0018645D01*
X0023377Y0018645D02*
X0032900Y0018645D01*
X0032900Y0019644D02*
X0003100Y0019644D01*
X0003100Y0020642D02*
X0031288Y0020642D01*
X0030500Y0021641D02*
X0003100Y0021641D01*
X0003100Y0022639D02*
X0030500Y0022639D01*
X0030500Y0023638D02*
X0003100Y0023638D01*
X0003100Y0024636D02*
X0030500Y0024636D01*
X0030500Y0025635D02*
X0003100Y0025635D01*
X0003100Y0026633D02*
X0030500Y0026633D01*
X0030500Y0027632D02*
X0003100Y0027632D01*
X0003100Y0028630D02*
X0031160Y0028630D01*
X0032021Y0030002D02*
X0032403Y0029900D01*
X0036500Y0029900D01*
X0036500Y0033300D01*
X0037500Y0033300D01*
X0037500Y0034300D01*
X0036500Y0034300D01*
X0036500Y0037700D01*
X0032403Y0037700D01*
X0032021Y0037598D01*
X0031679Y0037400D01*
X0031400Y0037121D01*
X0031202Y0036779D01*
X0031100Y0036397D01*
X0031100Y0034300D01*
X0036500Y0034300D01*
X0036500Y0033300D01*
X0031100Y0033300D01*
X0031100Y0031203D01*
X0031202Y0030821D01*
X0031400Y0030479D01*
X0031679Y0030200D01*
X0032021Y0030002D01*
X0031314Y0030627D02*
X0003100Y0030627D01*
X0003100Y0029629D02*
X0042528Y0029629D01*
X0042321Y0030200D02*
X0042600Y0030479D01*
X0042798Y0030821D01*
X0042900Y0031203D01*
X0042900Y0033300D01*
X0037500Y0033300D01*
X0037500Y0029900D01*
X0041597Y0029900D01*
X0041979Y0030002D01*
X0042321Y0030200D01*
X0042686Y0030627D02*
X0043526Y0030627D01*
X0042900Y0031626D02*
X0044620Y0031626D01*
X0042900Y0032624D02*
X0057980Y0032624D01*
X0058465Y0033623D02*
X0056183Y0033623D01*
X0056100Y0033479D02*
X0056298Y0033821D01*
X0056400Y0034203D01*
X0056400Y0036900D01*
X0052400Y0036900D01*
X0052400Y0037900D01*
X0051400Y0037900D01*
X0051400Y0041900D01*
X0048703Y0041900D01*
X0048321Y0041798D01*
X0047979Y0041600D01*
X0047700Y0041321D01*
X0047502Y0040979D01*
X0047400Y0040597D01*
X0047400Y0037900D01*
X0051400Y0037900D01*
X0051400Y0036900D01*
X0052400Y0036900D01*
X0052400Y0032900D01*
X0055097Y0032900D01*
X0055479Y0033002D01*
X0055821Y0033200D01*
X0056100Y0033479D01*
X0056400Y0034621D02*
X0057466Y0034621D01*
X0056800Y0035620D02*
X0056400Y0035620D01*
X0056400Y0036618D02*
X0056800Y0036618D01*
X0056800Y0037617D02*
X0052400Y0037617D01*
X0052400Y0037900D02*
X0056400Y0037900D01*
X0056400Y0040597D01*
X0056298Y0040979D01*
X0056100Y0041321D01*
X0055821Y0041600D01*
X0055479Y0041798D01*
X0055097Y0041900D01*
X0052400Y0041900D01*
X0052400Y0037900D01*
X0052400Y0038615D02*
X0051400Y0038615D01*
X0051400Y0037617D02*
X0041908Y0037617D01*
X0041979Y0037598D02*
X0041597Y0037700D01*
X0037500Y0037700D01*
X0037500Y0034300D01*
X0042900Y0034300D01*
X0042900Y0036397D01*
X0042798Y0036779D01*
X0042600Y0037121D01*
X0042321Y0037400D01*
X0041979Y0037598D01*
X0042485Y0038615D02*
X0047400Y0038615D01*
X0047400Y0039614D02*
X0043484Y0039614D01*
X0043500Y0040612D02*
X0047404Y0040612D01*
X0047997Y0041611D02*
X0043500Y0041611D01*
X0043500Y0042609D02*
X0059000Y0042609D01*
X0059000Y0043608D02*
X0043500Y0043608D01*
X0043500Y0044606D02*
X0059000Y0044606D01*
X0059053Y0045605D02*
X0043500Y0045605D01*
X0043066Y0046603D02*
X0059502Y0046603D01*
X0060501Y0047602D02*
X0041600Y0047602D01*
X0041600Y0048601D02*
X0061499Y0048601D01*
X0062498Y0049599D02*
X0041600Y0049599D01*
X0041600Y0050598D02*
X0063496Y0050598D01*
X0064495Y0051596D02*
X0041600Y0051596D01*
X0041421Y0052595D02*
X0065091Y0052595D01*
X0065035Y0053593D02*
X0063254Y0053593D01*
X0064722Y0054592D02*
X0065035Y0054592D01*
X0060346Y0053593D02*
X0048254Y0053593D01*
X0049722Y0054592D02*
X0058878Y0054592D01*
X0058199Y0055590D02*
X0050401Y0055590D01*
X0050781Y0056589D02*
X0057819Y0056589D01*
X0057819Y0057587D02*
X0050781Y0057587D01*
X0050577Y0058586D02*
X0058023Y0058586D01*
X0058454Y0059584D02*
X0050146Y0059584D01*
X0049700Y0060583D02*
X0054919Y0060583D01*
X0054902Y0060587D02*
X0055284Y0060485D01*
X0057950Y0060485D01*
X0057950Y0063469D01*
X0058918Y0063469D01*
X0058918Y0064438D01*
X0057950Y0064438D01*
X0057950Y0067422D01*
X0055284Y0067422D01*
X0054902Y0067320D01*
X0054560Y0067122D01*
X0054281Y0066843D01*
X0054083Y0066501D01*
X0053981Y0066120D01*
X0053981Y0064438D01*
X0057950Y0064438D01*
X0057950Y0063469D01*
X0053981Y0063469D01*
X0053981Y0061788D01*
X0054083Y0061406D01*
X0054281Y0061064D01*
X0054560Y0060785D01*
X0054902Y0060587D01*
X0054036Y0061581D02*
X0049700Y0061581D01*
X0049700Y0062580D02*
X0053981Y0062580D01*
X0053981Y0064577D02*
X0049700Y0064577D01*
X0049700Y0065575D02*
X0053981Y0065575D01*
X0054125Y0066574D02*
X0049700Y0066574D01*
X0049700Y0067572D02*
X0065113Y0067572D01*
X0065035Y0068571D02*
X0063068Y0068571D01*
X0063487Y0069569D02*
X0065035Y0069569D01*
X0065035Y0070568D02*
X0063487Y0070568D01*
X0063487Y0071566D02*
X0065035Y0071566D01*
X0065650Y0072565D02*
X0063487Y0072565D01*
X0064465Y0073563D02*
X0065635Y0073563D01*
X0065635Y0074562D02*
X0065463Y0074562D01*
X0070621Y0074660D02*
X0070621Y0074940D01*
X0075328Y0074940D01*
X0075328Y0076277D01*
X0075225Y0076659D01*
X0075119Y0076842D01*
X0075928Y0077651D01*
X0075928Y0080852D01*
X0076008Y0080819D01*
X0077592Y0080819D01*
X0079055Y0081425D01*
X0080175Y0082545D01*
X0080781Y0084008D01*
X0080781Y0085592D01*
X0080175Y0087055D01*
X0079055Y0088175D01*
X0078708Y0088319D01*
X0080092Y0088319D01*
X0080771Y0088600D01*
X0089825Y0088600D01*
X0089825Y0087688D01*
X0092813Y0084700D01*
X0095358Y0084700D01*
X0095758Y0084300D01*
X0094800Y0084300D01*
X0094800Y0080300D01*
X0093800Y0080300D01*
X0093800Y0084300D01*
X0092436Y0084300D01*
X0089800Y0081664D01*
X0089800Y0080300D01*
X0093800Y0080300D01*
X0093800Y0079300D01*
X0094800Y0079300D01*
X0094800Y0075300D01*
X0096164Y0075300D01*
X0098500Y0077636D01*
X0098500Y0074630D01*
X0098425Y0074555D01*
X0098120Y0073818D01*
X0097037Y0074900D01*
X0092813Y0074900D01*
X0089825Y0071912D01*
X0089825Y0067688D01*
X0092613Y0064900D01*
X0092188Y0064900D01*
X0089200Y0061912D01*
X0089200Y0057700D01*
X0086223Y0057700D01*
X0085157Y0057258D01*
X0084180Y0056281D01*
X0083508Y0056281D01*
X0082222Y0055748D01*
X0082058Y0056143D01*
X0076758Y0061443D01*
X0075943Y0062258D01*
X0075655Y0062378D01*
X0075928Y0062651D01*
X0075928Y0065852D01*
X0076008Y0065819D01*
X0077592Y0065819D01*
X0079055Y0066425D01*
X0080175Y0067545D01*
X0080781Y0069008D01*
X0080781Y0070592D01*
X0080175Y0072055D01*
X0079055Y0073175D01*
X0077592Y0073781D01*
X0076008Y0073781D01*
X0075328Y0073499D01*
X0075328Y0074660D01*
X0070621Y0074660D01*
X0075328Y0074562D02*
X0092474Y0074562D01*
X0092436Y0075300D02*
X0093800Y0075300D01*
X0093800Y0079300D01*
X0089800Y0079300D01*
X0089800Y0077936D01*
X0092436Y0075300D01*
X0092176Y0075560D02*
X0075328Y0075560D01*
X0075252Y0076559D02*
X0091177Y0076559D01*
X0090179Y0077557D02*
X0075834Y0077557D01*
X0075928Y0078556D02*
X0089800Y0078556D01*
X0089800Y0080553D02*
X0075928Y0080553D01*
X0075928Y0079554D02*
X0093800Y0079554D01*
X0093800Y0078556D02*
X0094800Y0078556D01*
X0094800Y0077557D02*
X0093800Y0077557D01*
X0093800Y0076559D02*
X0094800Y0076559D01*
X0094800Y0075560D02*
X0093800Y0075560D01*
X0096424Y0075560D02*
X0098500Y0075560D01*
X0098500Y0076559D02*
X0097423Y0076559D01*
X0098421Y0077557D02*
X0098500Y0077557D01*
X0098432Y0074562D02*
X0097376Y0074562D01*
X0100025Y0068726D02*
X0101008Y0068319D01*
X0101114Y0068319D01*
X0102431Y0067002D01*
X0103363Y0066616D01*
X0103272Y0066277D01*
X0103272Y0064940D01*
X0107979Y0064940D01*
X0107979Y0064660D01*
X0103272Y0064660D01*
X0103272Y0063323D01*
X0103375Y0062941D01*
X0103481Y0062758D01*
X0103211Y0062488D01*
X0102657Y0062258D01*
X0101841Y0061443D01*
X0099400Y0059001D01*
X0099400Y0061912D01*
X0096612Y0064700D01*
X0097037Y0064700D01*
X0100025Y0067688D01*
X0100025Y0068726D01*
X0100025Y0068571D02*
X0100400Y0068571D01*
X0099910Y0067572D02*
X0101861Y0067572D01*
X0103352Y0066574D02*
X0098911Y0066574D01*
X0097913Y0065575D02*
X0103272Y0065575D01*
X0103272Y0064577D02*
X0096736Y0064577D01*
X0097734Y0063578D02*
X0103272Y0063578D01*
X0103303Y0062580D02*
X0098733Y0062580D01*
X0099400Y0061581D02*
X0101980Y0061581D01*
X0101841Y0061443D02*
X0101841Y0061443D01*
X0100981Y0060583D02*
X0099400Y0060583D01*
X0099400Y0059584D02*
X0099983Y0059584D01*
X0091864Y0064577D02*
X0075928Y0064577D01*
X0075928Y0065575D02*
X0091937Y0065575D01*
X0090939Y0066574D02*
X0079204Y0066574D01*
X0080186Y0067572D02*
X0089940Y0067572D01*
X0089825Y0068571D02*
X0080600Y0068571D01*
X0080781Y0069569D02*
X0089825Y0069569D01*
X0089825Y0070568D02*
X0080781Y0070568D01*
X0080377Y0071566D02*
X0089825Y0071566D01*
X0090477Y0072565D02*
X0079665Y0072565D01*
X0078118Y0073563D02*
X0091476Y0073563D01*
X0093800Y0080553D02*
X0094800Y0080553D01*
X0094800Y0081551D02*
X0093800Y0081551D01*
X0093800Y0082550D02*
X0094800Y0082550D01*
X0094800Y0083548D02*
X0093800Y0083548D01*
X0091967Y0085545D02*
X0080781Y0085545D01*
X0080781Y0084547D02*
X0095511Y0084547D01*
X0091684Y0083548D02*
X0080591Y0083548D01*
X0080177Y0082550D02*
X0090686Y0082550D01*
X0089800Y0081551D02*
X0079182Y0081551D01*
X0080387Y0086544D02*
X0090969Y0086544D01*
X0089970Y0087542D02*
X0079688Y0087542D01*
X0080628Y0088541D02*
X0089825Y0088541D01*
X0075482Y0073563D02*
X0075328Y0073563D01*
X0075928Y0063578D02*
X0090866Y0063578D01*
X0089867Y0062580D02*
X0075857Y0062580D01*
X0076620Y0061581D02*
X0089200Y0061581D01*
X0089200Y0060583D02*
X0077619Y0060583D01*
X0078617Y0059584D02*
X0089200Y0059584D01*
X0089200Y0058586D02*
X0079616Y0058586D01*
X0080614Y0057587D02*
X0085951Y0057587D01*
X0084487Y0056589D02*
X0081613Y0056589D01*
X0065023Y0066574D02*
X0062742Y0066574D01*
X0062784Y0066501D02*
X0062587Y0066843D01*
X0062308Y0067122D01*
X0061966Y0067320D01*
X0061584Y0067422D01*
X0058918Y0067422D01*
X0058918Y0064438D01*
X0062887Y0064438D01*
X0062887Y0066120D01*
X0062784Y0066501D01*
X0062887Y0065575D02*
X0064074Y0065575D01*
X0063075Y0064577D02*
X0062887Y0064577D01*
X0062077Y0063578D02*
X0058918Y0063578D01*
X0057950Y0063578D02*
X0049700Y0063578D01*
X0049700Y0068571D02*
X0053800Y0068571D01*
X0053381Y0069569D02*
X0049700Y0069569D01*
X0049621Y0070568D02*
X0053381Y0070568D01*
X0053381Y0071566D02*
X0049135Y0071566D01*
X0048136Y0072565D02*
X0053381Y0072565D01*
X0057950Y0066574D02*
X0058918Y0066574D01*
X0058918Y0065575D02*
X0057950Y0065575D01*
X0057950Y0064577D02*
X0058918Y0064577D01*
X0058918Y0062580D02*
X0057950Y0062580D01*
X0057950Y0061581D02*
X0058918Y0061581D01*
X0058918Y0060583D02*
X0057950Y0060583D01*
X0045346Y0053593D02*
X0041500Y0053593D01*
X0041500Y0054592D02*
X0043878Y0054592D01*
X0043199Y0055590D02*
X0041500Y0055590D01*
X0041500Y0056589D02*
X0042819Y0056589D01*
X0042819Y0057587D02*
X0041500Y0057587D01*
X0041500Y0058586D02*
X0043023Y0058586D01*
X0043454Y0059584D02*
X0041500Y0059584D01*
X0041500Y0060583D02*
X0043900Y0060583D01*
X0043900Y0061581D02*
X0041500Y0061581D01*
X0041500Y0062580D02*
X0043900Y0062580D01*
X0032300Y0062580D02*
X0016181Y0062580D01*
X0017179Y0063578D02*
X0032300Y0063578D01*
X0032300Y0064577D02*
X0018178Y0064577D01*
X0019176Y0065575D02*
X0032300Y0065575D01*
X0032200Y0066574D02*
X0020175Y0066574D01*
X0021173Y0067572D02*
X0032200Y0067572D01*
X0032347Y0068571D02*
X0022172Y0068571D01*
X0015456Y0077557D02*
X0013280Y0077557D01*
X0013280Y0077536D02*
X0013280Y0079217D01*
X0009312Y0079217D01*
X0009312Y0076233D01*
X0011978Y0076233D01*
X0012359Y0076335D01*
X0012701Y0076533D01*
X0012981Y0076812D01*
X0013178Y0077154D01*
X0013280Y0077536D01*
X0013280Y0078556D02*
X0016734Y0078556D01*
X0014458Y0076559D02*
X0012727Y0076559D01*
X0012986Y0075560D02*
X0013459Y0075560D01*
X0013280Y0080186D02*
X0013280Y0081868D01*
X0013178Y0082249D01*
X0012981Y0082591D01*
X0012701Y0082870D01*
X0012359Y0083068D01*
X0011978Y0083170D01*
X0009312Y0083170D01*
X0009312Y0080186D01*
X0013280Y0080186D01*
X0013280Y0080553D02*
X0027819Y0080553D01*
X0027819Y0079554D02*
X0009312Y0079554D01*
X0009312Y0079217D02*
X0009312Y0080186D01*
X0008343Y0080186D01*
X0008343Y0079217D01*
X0009312Y0079217D01*
X0009312Y0078556D02*
X0008343Y0078556D01*
X0008343Y0079217D02*
X0008343Y0076233D01*
X0005677Y0076233D01*
X0005296Y0076335D01*
X0004954Y0076533D01*
X0004675Y0076812D01*
X0004477Y0077154D01*
X0004375Y0077536D01*
X0004375Y0079217D01*
X0008343Y0079217D01*
X0008343Y0079554D02*
X0003100Y0079554D01*
X0003100Y0078556D02*
X0004375Y0078556D01*
X0004375Y0077557D02*
X0003100Y0077557D01*
X0003100Y0076559D02*
X0004928Y0076559D01*
X0004669Y0075560D02*
X0003100Y0075560D01*
X0003100Y0074562D02*
X0003775Y0074562D01*
X0003775Y0073563D02*
X0003100Y0073563D01*
X0003100Y0072565D02*
X0003775Y0072565D01*
X0003775Y0071566D02*
X0003100Y0071566D01*
X0003100Y0070568D02*
X0003775Y0070568D01*
X0003775Y0069569D02*
X0003100Y0069569D01*
X0003100Y0068571D02*
X0004193Y0068571D01*
X0004555Y0067572D02*
X0003100Y0067572D01*
X0003100Y0066574D02*
X0003775Y0066574D01*
X0003775Y0065575D02*
X0003100Y0065575D01*
X0003100Y0064577D02*
X0003775Y0064577D01*
X0003775Y0063578D02*
X0003100Y0063578D01*
X0003100Y0062580D02*
X0003775Y0062580D01*
X0003775Y0061581D02*
X0003100Y0061581D01*
X0003100Y0060583D02*
X0004307Y0060583D01*
X0003100Y0059584D02*
X0005928Y0059584D01*
X0005928Y0058586D02*
X0003100Y0058586D01*
X0003100Y0057587D02*
X0005928Y0057587D01*
X0005301Y0056589D02*
X0003100Y0056589D01*
X0003100Y0055590D02*
X0005301Y0055590D01*
X0005301Y0054592D02*
X0003100Y0054592D01*
X0003100Y0053593D02*
X0005301Y0053593D01*
X0005301Y0052595D02*
X0003100Y0052595D01*
X0003100Y0051596D02*
X0005301Y0051596D01*
X0005301Y0050598D02*
X0003100Y0050598D01*
X0003100Y0049599D02*
X0005301Y0049599D01*
X0005481Y0048601D02*
X0003100Y0048601D01*
X0003100Y0047602D02*
X0006479Y0047602D01*
X0003100Y0046603D02*
X0030934Y0046603D01*
X0030500Y0045605D02*
X0003100Y0045605D01*
X0003100Y0044606D02*
X0030500Y0044606D01*
X0030500Y0043608D02*
X0003100Y0043608D01*
X0003100Y0042609D02*
X0030500Y0042609D01*
X0030500Y0041611D02*
X0003100Y0041611D01*
X0003100Y0040612D02*
X0030500Y0040612D01*
X0030516Y0039614D02*
X0003100Y0039614D01*
X0003100Y0038615D02*
X0031515Y0038615D01*
X0032092Y0037617D02*
X0003100Y0037617D01*
X0003100Y0036618D02*
X0031159Y0036618D01*
X0031100Y0035620D02*
X0003100Y0035620D01*
X0003100Y0034621D02*
X0031100Y0034621D01*
X0031100Y0032624D02*
X0003100Y0032624D01*
X0003100Y0031626D02*
X0031100Y0031626D01*
X0036500Y0031626D02*
X0037500Y0031626D01*
X0037500Y0032624D02*
X0036500Y0032624D01*
X0036500Y0033623D02*
X0003100Y0033623D01*
X0013440Y0047602D02*
X0032400Y0047602D01*
X0028460Y0048601D02*
X0027460Y0048601D01*
X0027460Y0048347D02*
X0027460Y0052300D01*
X0023901Y0052300D01*
X0023901Y0049650D01*
X0024003Y0049268D01*
X0024200Y0048926D01*
X0024480Y0048647D01*
X0024822Y0048449D01*
X0025203Y0048347D01*
X0027460Y0048347D01*
X0027460Y0049599D02*
X0028460Y0049599D01*
X0028460Y0050598D02*
X0027460Y0050598D01*
X0027460Y0051596D02*
X0028460Y0051596D01*
X0027460Y0052595D02*
X0017940Y0052595D01*
X0017940Y0053300D02*
X0021499Y0053300D01*
X0021499Y0056147D01*
X0021397Y0056529D01*
X0021199Y0056871D01*
X0020920Y0057150D01*
X0020578Y0057347D01*
X0020197Y0057450D01*
X0017940Y0057450D01*
X0017940Y0053300D01*
X0017940Y0053593D02*
X0016940Y0053593D01*
X0016940Y0054592D02*
X0017940Y0054592D01*
X0017940Y0055590D02*
X0016940Y0055590D01*
X0016940Y0056589D02*
X0017940Y0056589D01*
X0021362Y0056589D02*
X0024151Y0056589D01*
X0023901Y0055590D02*
X0021499Y0055590D01*
X0021499Y0054592D02*
X0023901Y0054592D01*
X0023901Y0053593D02*
X0021499Y0053593D01*
X0021499Y0051596D02*
X0023901Y0051596D01*
X0023901Y0050598D02*
X0021499Y0050598D01*
X0021499Y0049599D02*
X0023914Y0049599D01*
X0024560Y0048601D02*
X0021071Y0048601D01*
X0017940Y0048601D02*
X0016940Y0048601D01*
X0016940Y0049599D02*
X0017940Y0049599D01*
X0017940Y0050598D02*
X0016940Y0050598D01*
X0016940Y0051596D02*
X0017940Y0051596D01*
X0013851Y0057587D02*
X0031746Y0057587D01*
X0032300Y0058586D02*
X0011728Y0058586D01*
X0011728Y0059584D02*
X0032300Y0059584D01*
X0032300Y0060583D02*
X0013348Y0060583D01*
X0013880Y0061581D02*
X0032300Y0061581D01*
X0028460Y0056589D02*
X0027460Y0056589D01*
X0027460Y0055590D02*
X0028460Y0055590D01*
X0028460Y0054592D02*
X0027460Y0054592D01*
X0027460Y0053593D02*
X0028460Y0053593D01*
X0036500Y0037617D02*
X0037500Y0037617D01*
X0037500Y0036618D02*
X0036500Y0036618D01*
X0036500Y0035620D02*
X0037500Y0035620D01*
X0037500Y0034621D02*
X0036500Y0034621D01*
X0037500Y0033623D02*
X0047617Y0033623D01*
X0047700Y0033479D02*
X0047979Y0033200D01*
X0048321Y0033002D01*
X0048703Y0032900D01*
X0051400Y0032900D01*
X0051400Y0036900D01*
X0047400Y0036900D01*
X0047400Y0034203D01*
X0047502Y0033821D01*
X0047700Y0033479D01*
X0047400Y0034621D02*
X0042900Y0034621D01*
X0042900Y0035620D02*
X0047400Y0035620D01*
X0047400Y0036618D02*
X0042841Y0036618D01*
X0037500Y0030627D02*
X0036500Y0030627D01*
X0051400Y0033623D02*
X0052400Y0033623D01*
X0052400Y0034621D02*
X0051400Y0034621D01*
X0051400Y0035620D02*
X0052400Y0035620D01*
X0052400Y0036618D02*
X0051400Y0036618D01*
X0051400Y0039614D02*
X0052400Y0039614D01*
X0052400Y0040612D02*
X0051400Y0040612D01*
X0051400Y0041611D02*
X0052400Y0041611D01*
X0055803Y0041611D02*
X0058898Y0041611D01*
X0057900Y0040612D02*
X0056396Y0040612D01*
X0056400Y0039614D02*
X0056901Y0039614D01*
X0056800Y0038615D02*
X0056400Y0038615D01*
X0056953Y0031626D02*
X0055380Y0031626D01*
X0043835Y0013653D02*
X0041100Y0013653D01*
X0040963Y0012654D02*
X0043835Y0012654D01*
X0043835Y0011656D02*
X0040600Y0011656D01*
X0040600Y0010657D02*
X0043835Y0010657D01*
X0043835Y0009659D02*
X0040600Y0009659D01*
X0040600Y0008660D02*
X0043835Y0008660D01*
X0043835Y0007662D02*
X0039831Y0007662D01*
X0031169Y0007662D02*
X0003100Y0007662D01*
X0003100Y0008660D02*
X0016398Y0008660D01*
X0023282Y0008660D02*
X0030400Y0008660D01*
X0008301Y0015650D02*
X0003100Y0015650D01*
X0003100Y0016648D02*
X0008301Y0016648D01*
X0008343Y0076559D02*
X0009312Y0076559D01*
X0009312Y0077557D02*
X0008343Y0077557D01*
X0008343Y0080186D02*
X0004375Y0080186D01*
X0004375Y0081868D01*
X0004477Y0082249D01*
X0004675Y0082591D01*
X0004954Y0082870D01*
X0005296Y0083068D01*
X0005677Y0083170D01*
X0008343Y0083170D01*
X0008343Y0080186D01*
X0008343Y0080553D02*
X0009312Y0080553D01*
X0009312Y0081551D02*
X0008343Y0081551D01*
X0008343Y0082550D02*
X0009312Y0082550D01*
X0012691Y0083548D02*
X0013950Y0083548D01*
X0013004Y0082550D02*
X0014949Y0082550D01*
X0015947Y0081551D02*
X0013280Y0081551D01*
X0004964Y0083548D02*
X0003100Y0083548D01*
X0003100Y0082550D02*
X0004651Y0082550D01*
X0004375Y0081551D02*
X0003100Y0081551D01*
X0003100Y0080553D02*
X0004375Y0080553D01*
X0003965Y0084547D02*
X0003100Y0084547D01*
X0003100Y0085545D02*
X0003775Y0085545D01*
X0003775Y0086544D02*
X0003100Y0086544D01*
X0003100Y0087542D02*
X0003775Y0087542D01*
X0003775Y0088541D02*
X0003100Y0088541D01*
X0003100Y0089539D02*
X0003775Y0089539D01*
X0003899Y0090538D02*
X0003100Y0090538D01*
X0003100Y0091537D02*
X0004850Y0091537D01*
X0003851Y0092535D02*
X0003100Y0092535D01*
X0003100Y0093534D02*
X0003775Y0093534D01*
X0003775Y0094532D02*
X0003100Y0094532D01*
X0003100Y0095531D02*
X0003775Y0095531D01*
X0003775Y0096529D02*
X0003100Y0096529D01*
X0003100Y0097528D02*
X0003775Y0097528D01*
X0004013Y0098526D02*
X0003100Y0098526D01*
X0003100Y0099525D02*
X0004735Y0099525D01*
X0003775Y0100523D02*
X0003100Y0100523D01*
X0003100Y0101522D02*
X0003775Y0101522D01*
X0003775Y0102520D02*
X0003100Y0102520D01*
X0003100Y0103519D02*
X0003775Y0103519D01*
X0003775Y0104517D02*
X0003100Y0104517D01*
X0003100Y0105516D02*
X0003775Y0105516D01*
X0004127Y0106514D02*
X0003100Y0106514D01*
X0003100Y0107513D02*
X0004621Y0107513D01*
X0003775Y0108511D02*
X0003100Y0108511D01*
X0003100Y0109510D02*
X0003775Y0109510D01*
X0003775Y0110508D02*
X0003100Y0110508D01*
X0076700Y0118400D02*
X0076800Y0118166D01*
X0080830Y0114502D02*
X0080947Y0114502D01*
X0080953Y0114501D02*
X0083800Y0114501D01*
X0083800Y0118060D01*
X0084800Y0118060D01*
X0084800Y0119060D01*
X0088950Y0119060D01*
X0088950Y0121316D01*
X0088847Y0121698D01*
X0088770Y0121832D01*
X0089300Y0122362D01*
X0089830Y0121832D01*
X0089753Y0121698D01*
X0089650Y0121316D01*
X0089650Y0119060D01*
X0093800Y0119060D01*
X0093800Y0118060D01*
X0089650Y0118060D01*
X0089650Y0115803D01*
X0089725Y0115526D01*
X0084999Y0110800D01*
X0082401Y0110800D01*
X0079700Y0113501D01*
X0079700Y0113704D01*
X0080032Y0113704D01*
X0080855Y0114527D01*
X0080953Y0114501D01*
X0080696Y0112505D02*
X0086704Y0112505D01*
X0085706Y0111507D02*
X0081694Y0111507D01*
X0079700Y0113504D02*
X0087703Y0113504D01*
X0087647Y0114501D02*
X0088029Y0114603D01*
X0088371Y0114800D01*
X0088650Y0115080D01*
X0088847Y0115422D01*
X0088950Y0115803D01*
X0088950Y0118060D01*
X0084800Y0118060D01*
X0084800Y0114501D01*
X0087647Y0114501D01*
X0087653Y0114502D02*
X0088701Y0114502D01*
X0088869Y0115501D02*
X0089700Y0115501D01*
X0089650Y0116499D02*
X0088950Y0116499D01*
X0088950Y0117498D02*
X0089650Y0117498D01*
X0089650Y0119495D02*
X0088950Y0119495D01*
X0088950Y0120493D02*
X0089650Y0120493D01*
X0089697Y0121492D02*
X0088903Y0121492D01*
X0085000Y0118500D02*
X0084300Y0118560D01*
X0084800Y0118496D02*
X0093800Y0118496D01*
X0094000Y0118500D02*
X0094300Y0118560D01*
X0094700Y0118400D01*
X0094300Y0126040D02*
X0094700Y0126300D01*
X0101000Y0126300D02*
X0101800Y0126434D01*
X0106262Y0126484D02*
X0106563Y0126484D01*
X0106579Y0126500D02*
X0106300Y0126221D01*
X0106262Y0126156D01*
X0106262Y0129666D01*
X0105767Y0130161D01*
X0117201Y0130161D01*
X0117201Y0118500D01*
X0115943Y0119758D01*
X0115000Y0120149D01*
X0115000Y0121800D01*
X0111000Y0121800D01*
X0111000Y0122800D01*
X0110000Y0122800D01*
X0110000Y0126800D01*
X0107303Y0126800D01*
X0106921Y0126698D01*
X0106579Y0126500D01*
X0106262Y0127483D02*
X0117201Y0127483D01*
X0117201Y0128481D02*
X0106262Y0128481D01*
X0106262Y0129480D02*
X0117201Y0129480D01*
X0117201Y0126484D02*
X0114437Y0126484D01*
X0114421Y0126500D02*
X0114079Y0126698D01*
X0113697Y0126800D01*
X0111000Y0126800D01*
X0111000Y0122800D01*
X0115000Y0122800D01*
X0115000Y0125497D01*
X0114898Y0125879D01*
X0114700Y0126221D01*
X0114421Y0126500D01*
X0115000Y0125486D02*
X0117201Y0125486D01*
X0117201Y0124487D02*
X0115000Y0124487D01*
X0115000Y0123489D02*
X0117201Y0123489D01*
X0117201Y0122490D02*
X0111000Y0122490D01*
X0111000Y0123489D02*
X0110000Y0123489D01*
X0110000Y0122800D02*
X0110000Y0121800D01*
X0106000Y0121800D01*
X0106000Y0121660D01*
X0105360Y0122300D01*
X0106000Y0122940D01*
X0106000Y0122800D01*
X0110000Y0122800D01*
X0110000Y0122490D02*
X0105551Y0122490D01*
X0110000Y0124487D02*
X0111000Y0124487D01*
X0111000Y0125486D02*
X0110000Y0125486D01*
X0110000Y0126484D02*
X0111000Y0126484D01*
X0115000Y0121492D02*
X0117201Y0121492D01*
X0117201Y0120493D02*
X0115000Y0120493D01*
X0116206Y0119495D02*
X0117201Y0119495D01*
X0084800Y0117498D02*
X0083800Y0117498D01*
X0083800Y0116499D02*
X0084800Y0116499D01*
X0084800Y0115501D02*
X0083800Y0115501D01*
X0083800Y0114502D02*
X0084800Y0114502D01*
X0084300Y0126040D02*
X0084000Y0126200D01*
X0077700Y0126200D02*
X0076800Y0126434D01*
X0115092Y0070819D02*
X0116555Y0071425D01*
X0117201Y0072071D01*
X0117201Y0006900D01*
X0114207Y0006900D01*
X0114521Y0006984D01*
X0114864Y0007182D01*
X0115143Y0007461D01*
X0115340Y0007803D01*
X0115443Y0008184D01*
X0115443Y0009866D01*
X0112458Y0009866D01*
X0112458Y0010835D01*
X0115443Y0010835D01*
X0115443Y0012516D01*
X0115340Y0012898D01*
X0115263Y0013032D01*
X0116043Y0013811D01*
X0116043Y0019488D01*
X0115930Y0019600D01*
X0116043Y0019712D01*
X0116043Y0025389D01*
X0115263Y0026168D01*
X0115340Y0026302D01*
X0115443Y0026684D01*
X0115443Y0028365D01*
X0112458Y0028365D01*
X0112458Y0029334D01*
X0111490Y0029334D01*
X0111490Y0031398D01*
X0111555Y0031425D01*
X0112675Y0032545D01*
X0113281Y0034008D01*
X0113281Y0035592D01*
X0112686Y0037028D01*
X0113443Y0037341D01*
X0116758Y0040657D01*
X0117200Y0041723D01*
X0117200Y0042877D01*
X0117200Y0046723D01*
X0117200Y0047877D01*
X0116758Y0048943D01*
X0114258Y0051443D01*
X0113443Y0052258D01*
X0113252Y0052337D01*
X0113565Y0052651D01*
X0113565Y0056949D01*
X0113215Y0057300D01*
X0113565Y0057651D01*
X0113565Y0061949D01*
X0112757Y0062758D01*
X0112863Y0062941D01*
X0112965Y0063323D01*
X0112965Y0064660D01*
X0108259Y0064660D01*
X0108259Y0064940D01*
X0112965Y0064940D01*
X0112965Y0066277D01*
X0112863Y0066659D01*
X0112757Y0066842D01*
X0113565Y0067651D01*
X0113565Y0070819D01*
X0115092Y0070819D01*
X0113565Y0070568D02*
X0117201Y0070568D01*
X0117201Y0071566D02*
X0116696Y0071566D01*
X0117201Y0069569D02*
X0113565Y0069569D01*
X0113565Y0068571D02*
X0117201Y0068571D01*
X0117201Y0067572D02*
X0113487Y0067572D01*
X0112886Y0066574D02*
X0117201Y0066574D01*
X0117201Y0065575D02*
X0112965Y0065575D01*
X0112965Y0064577D02*
X0117201Y0064577D01*
X0117201Y0063578D02*
X0112965Y0063578D01*
X0112935Y0062580D02*
X0117201Y0062580D01*
X0117201Y0061581D02*
X0113565Y0061581D01*
X0113565Y0060583D02*
X0117201Y0060583D01*
X0117201Y0059584D02*
X0113565Y0059584D01*
X0113565Y0058586D02*
X0117201Y0058586D01*
X0117201Y0057587D02*
X0113502Y0057587D01*
X0113565Y0056589D02*
X0117201Y0056589D01*
X0117201Y0055590D02*
X0113565Y0055590D01*
X0113565Y0054592D02*
X0117201Y0054592D01*
X0117201Y0053593D02*
X0113565Y0053593D01*
X0113509Y0052595D02*
X0117201Y0052595D01*
X0117201Y0051596D02*
X0114105Y0051596D01*
X0115104Y0050598D02*
X0117201Y0050598D01*
X0117201Y0049599D02*
X0116102Y0049599D01*
X0116900Y0048601D02*
X0117201Y0048601D01*
X0117200Y0047602D02*
X0117201Y0047602D01*
X0117200Y0046603D02*
X0117201Y0046603D01*
X0117200Y0045605D02*
X0117201Y0045605D01*
X0117200Y0044606D02*
X0117201Y0044606D01*
X0117200Y0043608D02*
X0117201Y0043608D01*
X0117200Y0042609D02*
X0117201Y0042609D01*
X0117201Y0041611D02*
X0117154Y0041611D01*
X0117201Y0040612D02*
X0116714Y0040612D01*
X0117201Y0039614D02*
X0115715Y0039614D01*
X0114717Y0038615D02*
X0117201Y0038615D01*
X0117201Y0037617D02*
X0113718Y0037617D01*
X0112856Y0036618D02*
X0117201Y0036618D01*
X0117201Y0035620D02*
X0113270Y0035620D01*
X0113281Y0034621D02*
X0117201Y0034621D01*
X0117201Y0033623D02*
X0113122Y0033623D01*
X0112708Y0032624D02*
X0117201Y0032624D01*
X0117201Y0031626D02*
X0115208Y0031626D01*
X0115143Y0031739D02*
X0114864Y0032018D01*
X0114521Y0032216D01*
X0114140Y0032318D01*
X0112458Y0032318D01*
X0112458Y0029334D01*
X0115443Y0029334D01*
X0115443Y0031016D01*
X0115340Y0031397D01*
X0115143Y0031739D01*
X0115443Y0030627D02*
X0117201Y0030627D01*
X0117201Y0029629D02*
X0115443Y0029629D01*
X0115443Y0027632D02*
X0117201Y0027632D01*
X0117201Y0028630D02*
X0112458Y0028630D01*
X0111490Y0028630D02*
X0107231Y0028630D01*
X0107000Y0028399D02*
X0108506Y0029904D01*
X0108506Y0029334D01*
X0111490Y0029334D01*
X0111490Y0028365D01*
X0108506Y0028365D01*
X0108506Y0026684D01*
X0108608Y0026302D01*
X0108685Y0026168D01*
X0107967Y0025450D01*
X0107000Y0025450D01*
X0107000Y0028399D01*
X0107000Y0027632D02*
X0108506Y0027632D01*
X0108519Y0026633D02*
X0107000Y0026633D01*
X0107000Y0025635D02*
X0108152Y0025635D01*
X0108230Y0029629D02*
X0108506Y0029629D01*
X0111490Y0029629D02*
X0112458Y0029629D01*
X0112458Y0030627D02*
X0111490Y0030627D01*
X0111756Y0031626D02*
X0112458Y0031626D01*
X0115429Y0026633D02*
X0117201Y0026633D01*
X0117201Y0025635D02*
X0115796Y0025635D01*
X0116043Y0024636D02*
X0117201Y0024636D01*
X0117201Y0023638D02*
X0116043Y0023638D01*
X0116043Y0022639D02*
X0117201Y0022639D01*
X0117201Y0021641D02*
X0116043Y0021641D01*
X0116043Y0020642D02*
X0117201Y0020642D01*
X0117201Y0019644D02*
X0115974Y0019644D01*
X0116043Y0018645D02*
X0117201Y0018645D01*
X0117201Y0017647D02*
X0116043Y0017647D01*
X0116043Y0016648D02*
X0117201Y0016648D01*
X0117201Y0015650D02*
X0116043Y0015650D01*
X0116043Y0014651D02*
X0117201Y0014651D01*
X0117201Y0013653D02*
X0115884Y0013653D01*
X0115406Y0012654D02*
X0117201Y0012654D01*
X0117201Y0011656D02*
X0115443Y0011656D01*
X0115443Y0009659D02*
X0117201Y0009659D01*
X0117201Y0010657D02*
X0112458Y0010657D01*
X0111490Y0010657D02*
X0106787Y0010657D01*
X0106355Y0010225D02*
X0107475Y0011345D01*
X0108081Y0012808D01*
X0108081Y0013636D01*
X0108685Y0013032D01*
X0108608Y0012898D01*
X0108506Y0012516D01*
X0108506Y0010835D01*
X0111490Y0010835D01*
X0111490Y0009866D01*
X0108506Y0009866D01*
X0108506Y0008184D01*
X0108608Y0007803D01*
X0108805Y0007461D01*
X0109084Y0007182D01*
X0109427Y0006984D01*
X0109741Y0006900D01*
X0098459Y0006900D01*
X0098773Y0006984D01*
X0099116Y0007182D01*
X0099395Y0007461D01*
X0099592Y0007803D01*
X0099694Y0008184D01*
X0099694Y0009866D01*
X0096710Y0009866D01*
X0096710Y0010835D01*
X0099694Y0010835D01*
X0099694Y0012516D01*
X0099592Y0012898D01*
X0099515Y0013032D01*
X0100119Y0013636D01*
X0100119Y0012808D01*
X0100725Y0011345D01*
X0101845Y0010225D01*
X0103308Y0009619D01*
X0104892Y0009619D01*
X0106355Y0010225D01*
X0104988Y0009659D02*
X0108506Y0009659D01*
X0108506Y0008660D02*
X0099694Y0008660D01*
X0099694Y0009659D02*
X0103212Y0009659D01*
X0101413Y0010657D02*
X0096710Y0010657D01*
X0095742Y0010657D02*
X0090900Y0010657D01*
X0090900Y0009659D02*
X0092757Y0009659D01*
X0092757Y0009866D02*
X0092757Y0008184D01*
X0092860Y0007803D01*
X0093057Y0007461D01*
X0093336Y0007182D01*
X0093678Y0006984D01*
X0093992Y0006900D01*
X0077365Y0006900D01*
X0077365Y0013868D01*
X0079450Y0013868D01*
X0080681Y0015098D01*
X0080681Y0020638D01*
X0079450Y0021868D01*
X0074610Y0021868D01*
X0074610Y0026600D01*
X0086677Y0026600D01*
X0087743Y0027041D01*
X0091901Y0031200D01*
X0092807Y0031200D01*
X0092757Y0031016D01*
X0092757Y0029334D01*
X0095742Y0029334D01*
X0095742Y0028365D01*
X0092757Y0028365D01*
X0092757Y0026684D01*
X0092860Y0026302D01*
X0092937Y0026168D01*
X0092157Y0025389D01*
X0092157Y0019712D01*
X0092270Y0019600D01*
X0092157Y0019488D01*
X0092157Y0013811D01*
X0092937Y0013032D01*
X0092860Y0012898D01*
X0092757Y0012516D01*
X0092757Y0010835D01*
X0095742Y0010835D01*
X0095742Y0009866D01*
X0092757Y0009866D01*
X0092757Y0008660D02*
X0090763Y0008660D01*
X0090798Y0008721D02*
X0090900Y0009103D01*
X0090900Y0011800D01*
X0086900Y0011800D01*
X0086900Y0012800D01*
X0085900Y0012800D01*
X0085900Y0016800D01*
X0083203Y0016800D01*
X0082821Y0016698D01*
X0082479Y0016500D01*
X0082200Y0016221D01*
X0082002Y0015879D01*
X0081900Y0015497D01*
X0081900Y0012800D01*
X0085900Y0012800D01*
X0085900Y0011800D01*
X0081900Y0011800D01*
X0081900Y0009103D01*
X0082002Y0008721D01*
X0082200Y0008379D01*
X0082479Y0008100D01*
X0082821Y0007902D01*
X0083203Y0007800D01*
X0085900Y0007800D01*
X0085900Y0011800D01*
X0086900Y0011800D01*
X0086900Y0007800D01*
X0089597Y0007800D01*
X0089979Y0007902D01*
X0090321Y0008100D01*
X0090600Y0008379D01*
X0090798Y0008721D01*
X0092941Y0007662D02*
X0077365Y0007662D01*
X0077365Y0008660D02*
X0082037Y0008660D01*
X0081900Y0009659D02*
X0077365Y0009659D01*
X0077365Y0010657D02*
X0081900Y0010657D01*
X0081900Y0011656D02*
X0077365Y0011656D01*
X0077365Y0012654D02*
X0085900Y0012654D01*
X0085900Y0011656D02*
X0086900Y0011656D01*
X0086900Y0012654D02*
X0092794Y0012654D01*
X0092757Y0011656D02*
X0090900Y0011656D01*
X0090900Y0012800D02*
X0090900Y0015497D01*
X0090798Y0015879D01*
X0090600Y0016221D01*
X0090321Y0016500D01*
X0089979Y0016698D01*
X0089597Y0016800D01*
X0086900Y0016800D01*
X0086900Y0012800D01*
X0090900Y0012800D01*
X0090900Y0013653D02*
X0092316Y0013653D01*
X0092157Y0014651D02*
X0090900Y0014651D01*
X0090859Y0015650D02*
X0092157Y0015650D01*
X0092157Y0016648D02*
X0090065Y0016648D01*
X0092157Y0017647D02*
X0080681Y0017647D01*
X0080681Y0018645D02*
X0092157Y0018645D01*
X0092226Y0019644D02*
X0080681Y0019644D01*
X0080676Y0020642D02*
X0092157Y0020642D01*
X0092157Y0021641D02*
X0079678Y0021641D01*
X0080681Y0016648D02*
X0082735Y0016648D01*
X0081941Y0015650D02*
X0080681Y0015650D01*
X0080234Y0014651D02*
X0081900Y0014651D01*
X0081900Y0013653D02*
X0077365Y0013653D01*
X0074610Y0022639D02*
X0092157Y0022639D01*
X0092157Y0023638D02*
X0074610Y0023638D01*
X0074610Y0024636D02*
X0092157Y0024636D01*
X0092404Y0025635D02*
X0074610Y0025635D01*
X0086757Y0026633D02*
X0092771Y0026633D01*
X0092757Y0027632D02*
X0088333Y0027632D01*
X0089332Y0028630D02*
X0095742Y0028630D01*
X0096710Y0028630D02*
X0101200Y0028630D01*
X0101200Y0027632D02*
X0099694Y0027632D01*
X0099694Y0028365D02*
X0099694Y0026684D01*
X0099592Y0026302D01*
X0099515Y0026168D01*
X0100208Y0025476D01*
X0101200Y0025482D01*
X0101200Y0030177D01*
X0101624Y0031200D01*
X0099645Y0031200D01*
X0099694Y0031016D01*
X0099694Y0029334D01*
X0096710Y0029334D01*
X0096710Y0028365D01*
X0099694Y0028365D01*
X0099694Y0029629D02*
X0101200Y0029629D01*
X0101387Y0030627D02*
X0099694Y0030627D01*
X0099681Y0026633D02*
X0101200Y0026633D01*
X0101200Y0025635D02*
X0100048Y0025635D01*
X0092757Y0029629D02*
X0090330Y0029629D01*
X0091329Y0030627D02*
X0092757Y0030627D01*
X0086900Y0016648D02*
X0085900Y0016648D01*
X0085900Y0015650D02*
X0086900Y0015650D01*
X0086900Y0014651D02*
X0085900Y0014651D01*
X0085900Y0013653D02*
X0086900Y0013653D01*
X0086900Y0010657D02*
X0085900Y0010657D01*
X0085900Y0009659D02*
X0086900Y0009659D01*
X0086900Y0008660D02*
X0085900Y0008660D01*
X0099511Y0007662D02*
X0108689Y0007662D01*
X0108506Y0011656D02*
X0107604Y0011656D01*
X0108017Y0012654D02*
X0108542Y0012654D01*
X0115443Y0008660D02*
X0117201Y0008660D01*
X0117201Y0007662D02*
X0115259Y0007662D01*
X0100596Y0011656D02*
X0099694Y0011656D01*
X0099658Y0012654D02*
X0100183Y0012654D01*
M02*
