G75*
%MOIN*%
%OFA0B0*%
%FSLAX25Y25*%
%IPPOS*%
%LPD*%
%AMOC8*
5,1,8,0,0,1.08239X$1,22.5*
%
%ADD10R,0.05118X0.05906*%
%ADD11R,0.06693X0.02559*%
%ADD12R,0.04724X0.04724*%
%ADD13R,0.06299X0.05118*%
%ADD14R,0.05906X0.03937*%
%ADD15R,0.08800X0.04800*%
%ADD16R,0.08661X0.14173*%
%ADD17R,0.01575X0.06890*%
%ADD18R,0.07600X0.03800*%
%ADD19R,0.03937X0.03937*%
%ADD20R,0.05118X0.06299*%
D10*
X0012360Y0013700D03*
X0019840Y0013700D03*
X0027960Y0052800D03*
X0035440Y0052800D03*
D11*
X0070481Y0054800D03*
X0070481Y0049800D03*
X0070481Y0044800D03*
X0070481Y0059800D03*
X0070481Y0064800D03*
X0070481Y0069800D03*
X0070481Y0074800D03*
X0070481Y0079800D03*
X0070481Y0084800D03*
X0070481Y0089800D03*
X0070481Y0094800D03*
X0070481Y0099800D03*
X0070481Y0104800D03*
X0070481Y0109800D03*
X0108119Y0109800D03*
X0108119Y0104800D03*
X0108119Y0099800D03*
X0108119Y0094800D03*
X0108119Y0089800D03*
X0108119Y0084800D03*
X0108119Y0079800D03*
X0108119Y0074800D03*
X0108119Y0069800D03*
X0108119Y0064800D03*
X0108119Y0059800D03*
X0108119Y0054800D03*
X0108119Y0049800D03*
X0108119Y0044800D03*
D12*
X0101800Y0118166D03*
X0101800Y0126434D03*
X0076800Y0126434D03*
X0076800Y0118166D03*
D13*
X0084300Y0118560D03*
X0084300Y0126040D03*
X0094300Y0126040D03*
X0094300Y0118560D03*
D14*
X0058434Y0111198D03*
X0058434Y0103324D03*
X0058434Y0095450D03*
X0058434Y0087576D03*
X0058434Y0079702D03*
X0058434Y0071828D03*
X0058434Y0063954D03*
X0008828Y0063954D03*
X0008828Y0071828D03*
X0008828Y0079702D03*
X0008828Y0087576D03*
X0008828Y0095450D03*
X0008828Y0103324D03*
X0008828Y0111198D03*
D15*
X0037000Y0042900D03*
X0037000Y0033800D03*
X0037000Y0024700D03*
D16*
X0012599Y0033800D03*
D17*
X0055482Y0022815D03*
X0058041Y0022815D03*
X0060600Y0022815D03*
X0063159Y0022815D03*
X0065718Y0022815D03*
D18*
X0074781Y0017868D03*
X0046404Y0017900D03*
D19*
X0096226Y0016650D03*
X0096226Y0022550D03*
X0096226Y0028850D03*
X0111974Y0028850D03*
X0111974Y0022550D03*
X0111974Y0016650D03*
X0111974Y0010350D03*
X0096226Y0010350D03*
D20*
X0017440Y0052800D03*
X0009960Y0052800D03*
M02*
