G75*
%MOIN*%
%OFA0B0*%
%FSLAX25Y25*%
%IPPOS*%
%LPD*%
%AMOC8*
5,1,8,0,0,1.08239X$1,22.5*
%
%ADD10R,0.06000X0.06000*%
%ADD11OC8,0.06000*%
%ADD12R,0.05906X0.06299*%
%ADD13R,0.07874X0.07874*%
%ADD14R,0.04724X0.04724*%
%ADD15R,0.06299X0.05118*%
%ADD16R,0.05512X0.03937*%
%ADD17C,0.03762*%
%ADD18C,0.03200*%
%ADD19C,0.01600*%
%ADD20C,0.05000*%
%ADD21C,0.02400*%
%ADD22C,0.01000*%
D10*
X0035500Y0012300D03*
X0051900Y0037400D03*
X0086400Y0012300D03*
X0094300Y0099800D03*
X0110500Y0122300D03*
D11*
X0094925Y0089800D03*
X0094300Y0079800D03*
X0094925Y0069800D03*
X0094300Y0059800D03*
X0094925Y0049800D03*
X0081900Y0037400D03*
X0071900Y0037400D03*
X0061900Y0037400D03*
D12*
X0055520Y0064661D03*
X0070480Y0064661D03*
X0070480Y0084739D03*
X0055520Y0084739D03*
D13*
X0049872Y0011693D03*
X0071328Y0011693D03*
D14*
X0070148Y0023640D03*
X0051038Y0023640D03*
D15*
X0091800Y0031060D03*
X0091800Y0038540D03*
X0099900Y0038540D03*
X0099900Y0031060D03*
X0036800Y0098560D03*
X0036800Y0106040D03*
X0019300Y0088540D03*
X0019300Y0081060D03*
D16*
X0028631Y0098560D03*
X0028631Y0106040D03*
X0019969Y0102300D03*
D17*
X0016800Y0109800D03*
X0031800Y0087300D03*
X0037900Y0083500D03*
X0031800Y0079800D03*
X0036800Y0067300D03*
X0041800Y0067300D03*
X0046800Y0057300D03*
X0061800Y0057300D03*
X0076800Y0069800D03*
X0076800Y0074800D03*
X0076800Y0084800D03*
X0076800Y0084800D03*
X0079300Y0092300D03*
X0084300Y0084800D03*
X0079300Y0099800D03*
X0084300Y0112300D03*
X0094300Y0109800D03*
X0101800Y0109800D03*
X0114300Y0079800D03*
X0114300Y0074800D03*
X0101800Y0072300D03*
X0084300Y0052300D03*
X0084300Y0047300D03*
X0109300Y0034800D03*
X0104100Y0013600D03*
X0059300Y0014800D03*
X0024800Y0029300D03*
X0024800Y0033700D03*
X0024800Y0038100D03*
D18*
X0046800Y0089800D02*
X0046800Y0092200D01*
X0076700Y0092200D01*
X0079300Y0092300D01*
X0046800Y0092200D02*
X0031900Y0092200D01*
X0029300Y0094800D01*
X0029300Y0097891D01*
X0028631Y0098560D01*
X0019969Y0102300D02*
X0019969Y0106631D01*
X0016800Y0109800D01*
D19*
X0019969Y0102300D02*
X0019300Y0101631D01*
X0019300Y0088540D01*
X0026300Y0081800D02*
X0031800Y0087300D01*
X0036800Y0082400D02*
X0037900Y0083500D01*
X0036800Y0082400D02*
X0036800Y0077300D01*
X0032300Y0072800D01*
X0032300Y0063900D01*
X0043200Y0052900D01*
X0072200Y0052900D01*
X0079300Y0059800D01*
X0079300Y0067300D01*
X0076800Y0069800D01*
X0089300Y0064800D02*
X0089300Y0104800D01*
X0094300Y0109800D01*
X0101800Y0109800D02*
X0101800Y0078700D01*
X0101500Y0078400D01*
X0101400Y0078400D01*
X0094300Y0071300D01*
X0094300Y0069800D01*
X0089300Y0064800D02*
X0094300Y0059800D01*
X0084300Y0052300D02*
X0081800Y0052300D01*
X0079300Y0049800D01*
X0041800Y0049800D01*
X0029300Y0062300D01*
X0029300Y0077300D01*
X0031800Y0079800D01*
X0026300Y0081800D02*
X0026300Y0061000D01*
X0040600Y0046700D01*
X0083700Y0046700D01*
X0084300Y0047300D01*
X0091800Y0038540D02*
X0099900Y0038540D01*
X0099300Y0039000D01*
X0098500Y0039000D02*
X0101800Y0042300D01*
X0101800Y0072300D01*
X0109300Y0077300D02*
X0111800Y0079800D01*
X0114300Y0079800D01*
X0114300Y0074800D02*
X0114300Y0032300D01*
X0106800Y0024800D01*
X0104300Y0024800D01*
X0104100Y0024600D01*
X0104100Y0013600D01*
X0104300Y0024800D02*
X0094300Y0024800D01*
X0091800Y0027300D01*
X0091800Y0031060D01*
X0092600Y0039000D02*
X0098500Y0039000D01*
X0099900Y0031060D02*
X0105560Y0031060D01*
X0109300Y0034800D01*
X0109300Y0077300D01*
X0084420Y0084680D02*
X0084300Y0084800D01*
X0084300Y0112300D01*
X0079300Y0099800D02*
X0078060Y0098560D01*
X0036800Y0098560D01*
X0046800Y0057300D02*
X0061800Y0057300D01*
X0056100Y0018000D02*
X0041200Y0018000D01*
X0035500Y0012300D01*
X0056100Y0018000D02*
X0059300Y0014800D01*
D20*
X0044300Y0067300D02*
X0041800Y0067300D01*
X0036800Y0067300D01*
X0044300Y0067300D02*
X0046800Y0069800D01*
X0046800Y0089800D01*
D21*
X0054361Y0084739D02*
X0064300Y0074800D01*
X0076800Y0074800D01*
X0070480Y0064661D02*
X0069439Y0064661D01*
X0061800Y0072300D01*
X0049300Y0072300D01*
X0046800Y0069800D01*
X0054361Y0084739D02*
X0055520Y0084739D01*
X0070480Y0084800D02*
X0070480Y0084739D01*
X0070480Y0084800D02*
X0076800Y0084800D01*
X0036800Y0106040D02*
X0028631Y0106040D01*
X0024800Y0038100D02*
X0024800Y0029300D01*
X0051900Y0037200D02*
X0060600Y0028500D01*
X0051900Y0037200D02*
X0051900Y0037400D01*
D22*
X0003100Y0006900D02*
X0003100Y0111200D01*
X0013071Y0111200D01*
X0012819Y0110592D01*
X0012819Y0109008D01*
X0013425Y0107545D01*
X0014545Y0106425D01*
X0015224Y0106144D01*
X0015671Y0105696D01*
X0015113Y0105138D01*
X0015113Y0099462D01*
X0016344Y0098231D01*
X0016400Y0098231D01*
X0016400Y0093199D01*
X0015281Y0093199D01*
X0014050Y0091969D01*
X0014050Y0085111D01*
X0014830Y0084332D01*
X0014753Y0084198D01*
X0014650Y0083816D01*
X0014650Y0081560D01*
X0018800Y0081560D01*
X0018800Y0080560D01*
X0014650Y0080560D01*
X0014650Y0078303D01*
X0014753Y0077922D01*
X0014950Y0077580D01*
X0015229Y0077300D01*
X0015571Y0077103D01*
X0015953Y0077001D01*
X0018800Y0077001D01*
X0018800Y0080560D01*
X0014650Y0080560D01*
X0014650Y0078303D01*
X0014753Y0077922D01*
X0014950Y0077580D01*
X0015229Y0077300D01*
X0015571Y0077103D01*
X0015953Y0077001D01*
X0018800Y0077001D01*
X0018800Y0080560D01*
X0018800Y0081560D01*
X0014650Y0081560D01*
X0014650Y0083816D01*
X0014753Y0084198D01*
X0014830Y0084332D01*
X0014050Y0085111D01*
X0014050Y0091969D01*
X0015281Y0093199D01*
X0016400Y0093199D01*
X0016400Y0098231D01*
X0016344Y0098231D01*
X0015113Y0099462D01*
X0015113Y0105138D01*
X0015671Y0105696D01*
X0015224Y0106144D01*
X0014545Y0106425D01*
X0013425Y0107545D01*
X0012819Y0109008D01*
X0012819Y0110592D01*
X0013071Y0111200D01*
X0003100Y0111200D01*
X0003100Y0006900D01*
X0043835Y0006900D01*
X0043835Y0015100D01*
X0042401Y0015100D01*
X0040600Y0013299D01*
X0040600Y0008430D01*
X0039370Y0007200D01*
X0031630Y0007200D01*
X0030400Y0008430D01*
X0030400Y0016170D01*
X0031630Y0017400D01*
X0036499Y0017400D01*
X0039557Y0020458D01*
X0040623Y0020900D01*
X0046576Y0020900D01*
X0046576Y0026872D01*
X0047806Y0028102D01*
X0054270Y0028102D01*
X0055501Y0026872D01*
X0055501Y0020900D01*
X0056677Y0020900D01*
X0057743Y0020458D01*
X0058558Y0019643D01*
X0059420Y0018781D01*
X0060092Y0018781D01*
X0061555Y0018175D01*
X0062675Y0017055D01*
X0063281Y0015592D01*
X0063281Y0014008D01*
X0062675Y0012545D01*
X0061555Y0011425D01*
X0060092Y0010819D01*
X0058508Y0010819D01*
X0057045Y0011425D01*
X0055925Y0012545D01*
X0055909Y0012584D01*
X0055909Y0006900D01*
X0065291Y0006900D01*
X0065291Y0016500D01*
X0066521Y0017730D01*
X0076135Y0017730D01*
X0077365Y0016500D01*
X0077365Y0006900D01*
X0117201Y0006900D01*
X0117201Y0072071D01*
X0117200Y0072070D01*
X0117200Y0031723D01*
X0116758Y0030657D01*
X0109258Y0023157D01*
X0108443Y0022341D01*
X0107377Y0021900D01*
X0107000Y0021900D01*
X0107000Y0016330D01*
X0107475Y0015855D01*
X0108081Y0014392D01*
X0108081Y0012808D01*
X0107475Y0011345D01*
X0106355Y0010225D01*
X0104892Y0009619D01*
X0103308Y0009619D01*
X0101845Y0010225D01*
X0100725Y0011345D01*
X0100119Y0012808D01*
X0100119Y0014392D01*
X0100725Y0015855D01*
X0101200Y0016330D01*
X0101200Y0021900D01*
X0093723Y0021900D01*
X0092657Y0022341D01*
X0090157Y0024841D01*
X0089341Y0025657D01*
X0089034Y0026401D01*
X0087781Y0026401D01*
X0086550Y0027631D01*
X0086550Y0034489D01*
X0086862Y0034800D01*
X0086687Y0034975D01*
X0084012Y0032300D01*
X0079788Y0032300D01*
X0076900Y0035188D01*
X0074012Y0032300D01*
X0069788Y0032300D01*
X0066900Y0035188D01*
X0064012Y0032300D01*
X0059788Y0032300D01*
X0056800Y0035288D01*
X0056800Y0039512D01*
X0059788Y0042500D01*
X0064012Y0042500D01*
X0066900Y0039612D01*
X0069788Y0042500D01*
X0074012Y0042500D01*
X0076900Y0039612D01*
X0079788Y0042500D01*
X0084012Y0042500D01*
X0086550Y0039962D01*
X0086550Y0041969D01*
X0087781Y0043199D01*
X0095819Y0043199D01*
X0095850Y0043169D01*
X0095881Y0043199D01*
X0098598Y0043199D01*
X0098900Y0043501D01*
X0098900Y0046563D01*
X0097037Y0044700D01*
X0092813Y0044700D01*
X0089825Y0047688D01*
X0089825Y0051912D01*
X0092613Y0054700D01*
X0092188Y0054700D01*
X0089200Y0057688D01*
X0089200Y0060799D01*
X0087657Y0062341D01*
X0086841Y0063157D01*
X0086400Y0064223D01*
X0086400Y0105377D01*
X0086841Y0106443D01*
X0090319Y0109920D01*
X0090319Y0110592D01*
X0090925Y0112055D01*
X0092045Y0113175D01*
X0093508Y0113781D01*
X0095092Y0113781D01*
X0096555Y0113175D01*
X0097675Y0112055D01*
X0098050Y0111150D01*
X0098425Y0112055D01*
X0099545Y0113175D01*
X0101008Y0113781D01*
X0102592Y0113781D01*
X0104055Y0113175D01*
X0105175Y0112055D01*
X0105781Y0110592D01*
X0105781Y0109008D01*
X0105175Y0107545D01*
X0104700Y0107070D01*
X0104700Y0078123D01*
X0104258Y0077057D01*
X0103221Y0076020D01*
X0104055Y0075675D01*
X0105175Y0074555D01*
X0105781Y0073092D01*
X0105781Y0071508D01*
X0105175Y0070045D01*
X0104700Y0069570D01*
X0104700Y0042419D01*
X0105150Y0041969D01*
X0105150Y0035111D01*
X0104838Y0034800D01*
X0105019Y0034620D01*
X0105319Y0034920D01*
X0105319Y0035592D01*
X0105925Y0037055D01*
X0106400Y0037530D01*
X0106400Y0077877D01*
X0106841Y0078943D01*
X0109341Y0081443D01*
X0110157Y0082258D01*
X0111223Y0082700D01*
X0111570Y0082700D01*
X0112045Y0083175D01*
X0113508Y0083781D01*
X0115092Y0083781D01*
X0116555Y0083175D01*
X0117201Y0082529D01*
X0117201Y0130161D01*
X0071820Y0130161D01*
X0072000Y0111200D01*
X0020633Y0111200D01*
X0023106Y0108727D01*
X0023669Y0107367D01*
X0023669Y0106294D01*
X0023775Y0106189D01*
X0023775Y0108879D01*
X0025005Y0110109D01*
X0032190Y0110109D01*
X0032781Y0110699D01*
X0040819Y0110699D01*
X0042050Y0109469D01*
X0042050Y0102611D01*
X0041738Y0102300D01*
X0042050Y0101989D01*
X0042050Y0101460D01*
X0075678Y0101460D01*
X0075925Y0102055D01*
X0077045Y0103175D01*
X0078508Y0103781D01*
X0080092Y0103781D01*
X0081555Y0103175D01*
X0082675Y0102055D01*
X0083281Y0100592D01*
X0083281Y0099008D01*
X0082675Y0097545D01*
X0081555Y0096425D01*
X0080650Y0096050D01*
X0081555Y0095675D01*
X0082675Y0094555D01*
X0083281Y0093092D01*
X0083281Y0091508D01*
X0082675Y0090045D01*
X0081555Y0088925D01*
X0080092Y0088319D01*
X0078708Y0088319D01*
X0079055Y0088175D01*
X0080175Y0087055D01*
X0080781Y0085592D01*
X0080781Y0084008D01*
X0080175Y0082545D01*
X0079055Y0081425D01*
X0077592Y0080819D01*
X0076008Y0080819D01*
X0075533Y0081016D01*
X0075533Y0080720D01*
X0074303Y0079490D01*
X0066658Y0079490D01*
X0065428Y0080720D01*
X0065428Y0088500D01*
X0059852Y0088500D01*
X0059870Y0088468D01*
X0059972Y0088086D01*
X0059972Y0085239D01*
X0056020Y0085239D01*
X0056020Y0084239D01*
X0059972Y0084239D01*
X0059972Y0081392D01*
X0059870Y0081011D01*
X0059673Y0080669D01*
X0059393Y0080389D01*
X0059051Y0080192D01*
X0058670Y0080090D01*
X0056020Y0080090D01*
X0056020Y0084239D01*
X0055020Y0084239D01*
X0055020Y0080090D01*
X0052369Y0080090D01*
X0051988Y0080192D01*
X0051646Y0080389D01*
X0051400Y0080635D01*
X0051400Y0075600D01*
X0062456Y0075600D01*
X0063669Y0075098D01*
X0064598Y0074169D01*
X0068857Y0069910D01*
X0072819Y0069910D01*
X0072819Y0070592D01*
X0073425Y0072055D01*
X0074545Y0073175D01*
X0076008Y0073781D01*
X0077592Y0073781D01*
X0079055Y0073175D01*
X0080175Y0072055D01*
X0080781Y0070592D01*
X0080781Y0069920D01*
X0080943Y0069758D01*
X0081758Y0068943D01*
X0082200Y0067877D01*
X0082200Y0060355D01*
X0082208Y0060335D01*
X0082200Y0059780D01*
X0082200Y0059223D01*
X0082192Y0059203D01*
X0082191Y0059182D01*
X0081971Y0058671D01*
X0081758Y0058157D01*
X0081743Y0058142D01*
X0081735Y0058122D01*
X0081336Y0057735D01*
X0080943Y0057341D01*
X0080923Y0057333D01*
X0076155Y0052700D01*
X0078099Y0052700D01*
X0079341Y0053943D01*
X0079341Y0053943D01*
X0080157Y0054758D01*
X0081223Y0055200D01*
X0081570Y0055200D01*
X0082045Y0055675D01*
X0083508Y0056281D01*
X0085092Y0056281D01*
X0086555Y0055675D01*
X0087675Y0054555D01*
X0088281Y0053092D01*
X0088281Y0051508D01*
X0087675Y0050045D01*
X0087430Y0049800D01*
X0087675Y0049555D01*
X0088281Y0048092D01*
X0088281Y0046508D01*
X0087675Y0045045D01*
X0086555Y0043925D01*
X0085092Y0043319D01*
X0083508Y0043319D01*
X0082347Y0043800D01*
X0040023Y0043800D01*
X0038957Y0044241D01*
X0038141Y0045057D01*
X0024657Y0058541D01*
X0023841Y0059357D01*
X0023400Y0060423D01*
X0023400Y0077330D01*
X0023371Y0077300D01*
X0023029Y0077103D01*
X0022647Y0077001D01*
X0019800Y0077001D01*
X0019800Y0080560D01*
X0018800Y0080560D01*
X0014650Y0080560D01*
X0014650Y0078303D01*
X0014753Y0077922D01*
X0014950Y0077580D01*
X0015229Y0077300D01*
X0015571Y0077103D01*
X0015953Y0077001D01*
X0018800Y0077001D01*
X0018800Y0080560D01*
X0018800Y0081560D01*
X0014650Y0081560D01*
X0014650Y0083816D01*
X0014753Y0084198D01*
X0014830Y0084332D01*
X0014050Y0085111D01*
X0014050Y0091969D01*
X0015281Y0093199D01*
X0016400Y0093199D01*
X0016400Y0098231D01*
X0016344Y0098231D01*
X0015113Y0099462D01*
X0015113Y0105138D01*
X0015671Y0105696D01*
X0015224Y0106144D01*
X0014545Y0106425D01*
X0013425Y0107545D01*
X0012819Y0109008D01*
X0012819Y0110592D01*
X0013071Y0111200D01*
X0003100Y0111200D01*
X0003100Y0006900D01*
X0043835Y0006900D01*
X0043835Y0015100D01*
X0042401Y0015100D01*
X0040600Y0013299D01*
X0040600Y0008430D01*
X0039370Y0007200D01*
X0031630Y0007200D01*
X0030400Y0008430D01*
X0030400Y0016170D01*
X0031630Y0017400D01*
X0036499Y0017400D01*
X0039557Y0020458D01*
X0040623Y0020900D01*
X0046576Y0020900D01*
X0046576Y0026872D01*
X0047806Y0028102D01*
X0054270Y0028102D01*
X0055501Y0026872D01*
X0055501Y0020900D01*
X0056677Y0020900D01*
X0057743Y0020458D01*
X0058558Y0019643D01*
X0059420Y0018781D01*
X0060092Y0018781D01*
X0061555Y0018175D01*
X0062675Y0017055D01*
X0063281Y0015592D01*
X0063281Y0014008D01*
X0062675Y0012545D01*
X0061555Y0011425D01*
X0060092Y0010819D01*
X0058508Y0010819D01*
X0057045Y0011425D01*
X0055925Y0012545D01*
X0055909Y0012584D01*
X0055909Y0006900D01*
X0065291Y0006900D01*
X0065291Y0016500D01*
X0066521Y0017730D01*
X0076135Y0017730D01*
X0077365Y0016500D01*
X0077365Y0006900D01*
X0117201Y0006900D01*
X0117201Y0072071D01*
X0117200Y0072070D01*
X0117200Y0031723D01*
X0116758Y0030657D01*
X0109258Y0023157D01*
X0108443Y0022341D01*
X0107377Y0021900D01*
X0107000Y0021900D01*
X0107000Y0016330D01*
X0107475Y0015855D01*
X0108081Y0014392D01*
X0108081Y0012808D01*
X0107475Y0011345D01*
X0106355Y0010225D01*
X0104892Y0009619D01*
X0103308Y0009619D01*
X0101845Y0010225D01*
X0100725Y0011345D01*
X0100119Y0012808D01*
X0100119Y0014392D01*
X0100725Y0015855D01*
X0101200Y0016330D01*
X0101200Y0021900D01*
X0093723Y0021900D01*
X0092657Y0022341D01*
X0090157Y0024841D01*
X0089341Y0025657D01*
X0089034Y0026401D01*
X0087781Y0026401D01*
X0086550Y0027631D01*
X0086550Y0034489D01*
X0086862Y0034800D01*
X0086687Y0034975D01*
X0084012Y0032300D01*
X0079788Y0032300D01*
X0076900Y0035188D01*
X0074012Y0032300D01*
X0069788Y0032300D01*
X0066900Y0035188D01*
X0064012Y0032300D01*
X0059788Y0032300D01*
X0056800Y0035288D01*
X0056800Y0039512D01*
X0059788Y0042500D01*
X0064012Y0042500D01*
X0066900Y0039612D01*
X0069788Y0042500D01*
X0074012Y0042500D01*
X0076900Y0039612D01*
X0079788Y0042500D01*
X0084012Y0042500D01*
X0086550Y0039962D01*
X0086550Y0041969D01*
X0087781Y0043199D01*
X0095819Y0043199D01*
X0095850Y0043169D01*
X0095881Y0043199D01*
X0098598Y0043199D01*
X0098900Y0043501D01*
X0098900Y0046563D01*
X0097037Y0044700D01*
X0092813Y0044700D01*
X0089825Y0047688D01*
X0089825Y0051912D01*
X0092613Y0054700D01*
X0092188Y0054700D01*
X0089200Y0057688D01*
X0089200Y0060799D01*
X0087657Y0062341D01*
X0086841Y0063157D01*
X0086400Y0064223D01*
X0086400Y0105377D01*
X0086841Y0106443D01*
X0090319Y0109920D01*
X0090319Y0110592D01*
X0090925Y0112055D01*
X0092045Y0113175D01*
X0093508Y0113781D01*
X0095092Y0113781D01*
X0096555Y0113175D01*
X0097675Y0112055D01*
X0098050Y0111150D01*
X0098425Y0112055D01*
X0099545Y0113175D01*
X0101008Y0113781D01*
X0102592Y0113781D01*
X0104055Y0113175D01*
X0105175Y0112055D01*
X0105781Y0110592D01*
X0105781Y0109008D01*
X0105175Y0107545D01*
X0104700Y0107070D01*
X0104700Y0078123D01*
X0104258Y0077057D01*
X0103221Y0076020D01*
X0104055Y0075675D01*
X0105175Y0074555D01*
X0105781Y0073092D01*
X0105781Y0071508D01*
X0105175Y0070045D01*
X0104700Y0069570D01*
X0104700Y0042419D01*
X0105150Y0041969D01*
X0105150Y0035111D01*
X0104838Y0034800D01*
X0105019Y0034620D01*
X0105319Y0034920D01*
X0105319Y0035592D01*
X0105925Y0037055D01*
X0106400Y0037530D01*
X0106400Y0077877D01*
X0106841Y0078943D01*
X0109341Y0081443D01*
X0110157Y0082258D01*
X0111223Y0082700D01*
X0111570Y0082700D01*
X0112045Y0083175D01*
X0113508Y0083781D01*
X0115092Y0083781D01*
X0116555Y0083175D01*
X0117201Y0082529D01*
X0117201Y0130161D01*
X0071820Y0130161D01*
X0072000Y0111200D01*
X0020633Y0111200D01*
X0023106Y0108727D01*
X0023669Y0107367D01*
X0023669Y0106294D01*
X0023775Y0106189D01*
X0023775Y0108879D01*
X0025005Y0110109D01*
X0032190Y0110109D01*
X0032781Y0110699D01*
X0040819Y0110699D01*
X0042050Y0109469D01*
X0042050Y0102611D01*
X0041738Y0102300D01*
X0042050Y0101989D01*
X0042050Y0101460D01*
X0075678Y0101460D01*
X0075925Y0102055D01*
X0077045Y0103175D01*
X0078508Y0103781D01*
X0080092Y0103781D01*
X0081555Y0103175D01*
X0082675Y0102055D01*
X0083281Y0100592D01*
X0083281Y0099008D01*
X0082675Y0097545D01*
X0081555Y0096425D01*
X0080650Y0096050D01*
X0081555Y0095675D01*
X0082675Y0094555D01*
X0083281Y0093092D01*
X0083281Y0091508D01*
X0082675Y0090045D01*
X0081555Y0088925D01*
X0080092Y0088319D01*
X0078708Y0088319D01*
X0079055Y0088175D01*
X0080175Y0087055D01*
X0080781Y0085592D01*
X0080781Y0084008D01*
X0080175Y0082545D01*
X0079055Y0081425D01*
X0077592Y0080819D01*
X0076008Y0080819D01*
X0075533Y0081016D01*
X0075533Y0080720D01*
X0074303Y0079490D01*
X0066658Y0079490D01*
X0065428Y0080720D01*
X0065428Y0088500D01*
X0059852Y0088500D01*
X0059870Y0088468D01*
X0059972Y0088086D01*
X0059972Y0085239D01*
X0056020Y0085239D01*
X0056020Y0084239D01*
X0059972Y0084239D01*
X0059972Y0081392D01*
X0059870Y0081011D01*
X0059673Y0080669D01*
X0059393Y0080389D01*
X0059051Y0080192D01*
X0058670Y0080090D01*
X0056020Y0080090D01*
X0056020Y0084239D01*
X0055020Y0084239D01*
X0055020Y0080090D01*
X0052369Y0080090D01*
X0051988Y0080192D01*
X0051646Y0080389D01*
X0051400Y0080635D01*
X0051400Y0075600D01*
X0062456Y0075600D01*
X0063669Y0075098D01*
X0064598Y0074169D01*
X0068857Y0069910D01*
X0072819Y0069910D01*
X0072819Y0070592D01*
X0073425Y0072055D01*
X0074545Y0073175D01*
X0076008Y0073781D01*
X0077592Y0073781D01*
X0079055Y0073175D01*
X0080175Y0072055D01*
X0080781Y0070592D01*
X0080781Y0069920D01*
X0080943Y0069758D01*
X0081758Y0068943D01*
X0082200Y0067877D01*
X0082200Y0060355D01*
X0082208Y0060335D01*
X0082200Y0059780D01*
X0082200Y0059223D01*
X0082192Y0059203D01*
X0082191Y0059182D01*
X0081971Y0058671D01*
X0081758Y0058157D01*
X0081743Y0058142D01*
X0081735Y0058122D01*
X0081336Y0057735D01*
X0080943Y0057341D01*
X0080923Y0057333D01*
X0076155Y0052700D01*
X0078099Y0052700D01*
X0079341Y0053943D01*
X0079341Y0053943D01*
X0080157Y0054758D01*
X0081223Y0055200D01*
X0081570Y0055200D01*
X0082045Y0055675D01*
X0083508Y0056281D01*
X0085092Y0056281D01*
X0086555Y0055675D01*
X0087675Y0054555D01*
X0088281Y0053092D01*
X0088281Y0051508D01*
X0087675Y0050045D01*
X0087430Y0049800D01*
X0087675Y0049555D01*
X0088281Y0048092D01*
X0088281Y0046508D01*
X0087675Y0045045D01*
X0086555Y0043925D01*
X0085092Y0043319D01*
X0083508Y0043319D01*
X0082347Y0043800D01*
X0040023Y0043800D01*
X0038957Y0044241D01*
X0038141Y0045057D01*
X0024657Y0058541D01*
X0023841Y0059357D01*
X0023400Y0060423D01*
X0023400Y0077330D01*
X0023371Y0077300D01*
X0023029Y0077103D01*
X0022647Y0077001D01*
X0019800Y0077001D01*
X0019800Y0080560D01*
X0018800Y0080560D01*
X0014650Y0080560D01*
X0014650Y0078303D01*
X0014753Y0077922D01*
X0014950Y0077580D01*
X0015229Y0077300D01*
X0015571Y0077103D01*
X0015953Y0077001D01*
X0018800Y0077001D01*
X0018800Y0080560D01*
X0018800Y0081560D01*
X0014650Y0081560D01*
X0014650Y0083816D01*
X0014753Y0084198D01*
X0014830Y0084332D01*
X0014050Y0085111D01*
X0014050Y0091969D01*
X0015281Y0093199D01*
X0016400Y0093199D01*
X0016400Y0098231D01*
X0016344Y0098231D01*
X0015113Y0099462D01*
X0015113Y0105138D01*
X0015671Y0105696D01*
X0015224Y0106144D01*
X0014545Y0106425D01*
X0013425Y0107545D01*
X0012819Y0109008D01*
X0012819Y0110592D01*
X0013071Y0111200D01*
X0003100Y0111200D01*
X0003100Y0006900D01*
X0043835Y0006900D01*
X0043835Y0015100D01*
X0042401Y0015100D01*
X0040600Y0013299D01*
X0040600Y0008430D01*
X0039370Y0007200D01*
X0031630Y0007200D01*
X0030400Y0008430D01*
X0030400Y0016170D01*
X0031630Y0017400D01*
X0036499Y0017400D01*
X0039557Y0020458D01*
X0040623Y0020900D01*
X0046576Y0020900D01*
X0046576Y0026872D01*
X0047806Y0028102D01*
X0054270Y0028102D01*
X0055501Y0026872D01*
X0055501Y0020900D01*
X0056677Y0020900D01*
X0057743Y0020458D01*
X0058558Y0019643D01*
X0059420Y0018781D01*
X0060092Y0018781D01*
X0061555Y0018175D01*
X0062675Y0017055D01*
X0063281Y0015592D01*
X0063281Y0014008D01*
X0062675Y0012545D01*
X0061555Y0011425D01*
X0060092Y0010819D01*
X0058508Y0010819D01*
X0057045Y0011425D01*
X0055925Y0012545D01*
X0055909Y0012584D01*
X0055909Y0006900D01*
X0065291Y0006900D01*
X0065291Y0016500D01*
X0066521Y0017730D01*
X0076135Y0017730D01*
X0077365Y0016500D01*
X0077365Y0006900D01*
X0117201Y0006900D01*
X0117201Y0072071D01*
X0117200Y0072070D01*
X0117200Y0031723D01*
X0116758Y0030657D01*
X0109258Y0023157D01*
X0108443Y0022341D01*
X0107377Y0021900D01*
X0107000Y0021900D01*
X0107000Y0016330D01*
X0107475Y0015855D01*
X0108081Y0014392D01*
X0108081Y0012808D01*
X0107475Y0011345D01*
X0106355Y0010225D01*
X0104892Y0009619D01*
X0103308Y0009619D01*
X0101845Y0010225D01*
X0100725Y0011345D01*
X0100119Y0012808D01*
X0100119Y0014392D01*
X0100725Y0015855D01*
X0101200Y0016330D01*
X0101200Y0021900D01*
X0093723Y0021900D01*
X0092657Y0022341D01*
X0090157Y0024841D01*
X0089341Y0025657D01*
X0089034Y0026401D01*
X0087781Y0026401D01*
X0086550Y0027631D01*
X0086550Y0034489D01*
X0086862Y0034800D01*
X0086687Y0034975D01*
X0084012Y0032300D01*
X0079788Y0032300D01*
X0076900Y0035188D01*
X0074012Y0032300D01*
X0069788Y0032300D01*
X0066900Y0035188D01*
X0064012Y0032300D01*
X0059788Y0032300D01*
X0056800Y0035288D01*
X0056800Y0039512D01*
X0059788Y0042500D01*
X0064012Y0042500D01*
X0066900Y0039612D01*
X0069788Y0042500D01*
X0074012Y0042500D01*
X0076900Y0039612D01*
X0079788Y0042500D01*
X0084012Y0042500D01*
X0086550Y0039962D01*
X0086550Y0041969D01*
X0087781Y0043199D01*
X0095819Y0043199D01*
X0095850Y0043169D01*
X0095881Y0043199D01*
X0098598Y0043199D01*
X0098900Y0043501D01*
X0098900Y0046563D01*
X0097037Y0044700D01*
X0092813Y0044700D01*
X0089825Y0047688D01*
X0089825Y0051912D01*
X0092613Y0054700D01*
X0092188Y0054700D01*
X0089200Y0057688D01*
X0089200Y0060799D01*
X0087657Y0062341D01*
X0086841Y0063157D01*
X0086400Y0064223D01*
X0086400Y0105377D01*
X0086841Y0106443D01*
X0090319Y0109920D01*
X0090319Y0110592D01*
X0090925Y0112055D01*
X0092045Y0113175D01*
X0093508Y0113781D01*
X0095092Y0113781D01*
X0096555Y0113175D01*
X0097675Y0112055D01*
X0098050Y0111150D01*
X0098425Y0112055D01*
X0099545Y0113175D01*
X0101008Y0113781D01*
X0102592Y0113781D01*
X0104055Y0113175D01*
X0105175Y0112055D01*
X0105781Y0110592D01*
X0105781Y0109008D01*
X0105175Y0107545D01*
X0104700Y0107070D01*
X0104700Y0078123D01*
X0104258Y0077057D01*
X0103221Y0076020D01*
X0104055Y0075675D01*
X0105175Y0074555D01*
X0105781Y0073092D01*
X0105781Y0071508D01*
X0105175Y0070045D01*
X0104700Y0069570D01*
X0104700Y0042419D01*
X0105150Y0041969D01*
X0105150Y0035111D01*
X0104838Y0034800D01*
X0105019Y0034620D01*
X0105319Y0034920D01*
X0105319Y0035592D01*
X0105925Y0037055D01*
X0106400Y0037530D01*
X0106400Y0077877D01*
X0106841Y0078943D01*
X0109341Y0081443D01*
X0110157Y0082258D01*
X0111223Y0082700D01*
X0111570Y0082700D01*
X0112045Y0083175D01*
X0113508Y0083781D01*
X0115092Y0083781D01*
X0116555Y0083175D01*
X0117201Y0082529D01*
X0117201Y0130161D01*
X0071820Y0130161D01*
X0072000Y0111200D01*
X0020633Y0111200D01*
X0023106Y0108727D01*
X0023669Y0107367D01*
X0023669Y0106294D01*
X0023775Y0106189D01*
X0023775Y0108879D01*
X0025005Y0110109D01*
X0032190Y0110109D01*
X0032781Y0110699D01*
X0040819Y0110699D01*
X0042050Y0109469D01*
X0042050Y0102611D01*
X0041738Y0102300D01*
X0042050Y0101989D01*
X0042050Y0101460D01*
X0075678Y0101460D01*
X0075925Y0102055D01*
X0077045Y0103175D01*
X0078508Y0103781D01*
X0080092Y0103781D01*
X0081555Y0103175D01*
X0082675Y0102055D01*
X0083281Y0100592D01*
X0083281Y0099008D01*
X0082675Y0097545D01*
X0081555Y0096425D01*
X0080650Y0096050D01*
X0081555Y0095675D01*
X0082675Y0094555D01*
X0083281Y0093092D01*
X0083281Y0091508D01*
X0082675Y0090045D01*
X0081555Y0088925D01*
X0080092Y0088319D01*
X0078708Y0088319D01*
X0079055Y0088175D01*
X0080175Y0087055D01*
X0080781Y0085592D01*
X0080781Y0084008D01*
X0080175Y0082545D01*
X0079055Y0081425D01*
X0077592Y0080819D01*
X0076008Y0080819D01*
X0075533Y0081016D01*
X0075533Y0080720D01*
X0074303Y0079490D01*
X0066658Y0079490D01*
X0065428Y0080720D01*
X0065428Y0088500D01*
X0059852Y0088500D01*
X0059870Y0088468D01*
X0059972Y0088086D01*
X0059972Y0085239D01*
X0056020Y0085239D01*
X0056020Y0084239D01*
X0059972Y0084239D01*
X0059972Y0081392D01*
X0059870Y0081011D01*
X0059673Y0080669D01*
X0059393Y0080389D01*
X0059051Y0080192D01*
X0058670Y0080090D01*
X0056020Y0080090D01*
X0056020Y0084239D01*
X0055020Y0084239D01*
X0055020Y0080090D01*
X0052369Y0080090D01*
X0051988Y0080192D01*
X0051646Y0080389D01*
X0051400Y0080635D01*
X0051400Y0075600D01*
X0062456Y0075600D01*
X0063669Y0075098D01*
X0064598Y0074169D01*
X0068857Y0069910D01*
X0072819Y0069910D01*
X0072819Y0070592D01*
X0073425Y0072055D01*
X0074545Y0073175D01*
X0076008Y0073781D01*
X0077592Y0073781D01*
X0079055Y0073175D01*
X0080175Y0072055D01*
X0080781Y0070592D01*
X0080781Y0069920D01*
X0080943Y0069758D01*
X0081758Y0068943D01*
X0082200Y0067877D01*
X0082200Y0060355D01*
X0082208Y0060335D01*
X0082200Y0059780D01*
X0082200Y0059223D01*
X0082192Y0059203D01*
X0082191Y0059182D01*
X0081971Y0058671D01*
X0081758Y0058157D01*
X0081743Y0058142D01*
X0081735Y0058122D01*
X0081336Y0057735D01*
X0080943Y0057341D01*
X0080923Y0057333D01*
X0076155Y0052700D01*
X0078099Y0052700D01*
X0079341Y0053943D01*
X0079341Y0053943D01*
X0080157Y0054758D01*
X0081223Y0055200D01*
X0081570Y0055200D01*
X0082045Y0055675D01*
X0083508Y0056281D01*
X0085092Y0056281D01*
X0086555Y0055675D01*
X0087675Y0054555D01*
X0088281Y0053092D01*
X0088281Y0051508D01*
X0087675Y0050045D01*
X0087430Y0049800D01*
X0087675Y0049555D01*
X0088281Y0048092D01*
X0088281Y0046508D01*
X0087675Y0045045D01*
X0086555Y0043925D01*
X0085092Y0043319D01*
X0083508Y0043319D01*
X0082347Y0043800D01*
X0040023Y0043800D01*
X0038957Y0044241D01*
X0038141Y0045057D01*
X0024657Y0058541D01*
X0023841Y0059357D01*
X0023400Y0060423D01*
X0023400Y0077330D01*
X0023371Y0077300D01*
X0023029Y0077103D01*
X0022647Y0077001D01*
X0019800Y0077001D01*
X0019800Y0080560D01*
X0018800Y0080560D01*
X0019800Y0080560D01*
X0019800Y0077001D01*
X0022647Y0077001D01*
X0023029Y0077103D01*
X0023371Y0077300D01*
X0023400Y0077330D01*
X0023400Y0060423D01*
X0023841Y0059357D01*
X0024657Y0058541D01*
X0038141Y0045057D01*
X0038957Y0044241D01*
X0040023Y0043800D01*
X0082347Y0043800D01*
X0083508Y0043319D01*
X0085092Y0043319D01*
X0086555Y0043925D01*
X0087675Y0045045D01*
X0088281Y0046508D01*
X0088281Y0048092D01*
X0087675Y0049555D01*
X0087430Y0049800D01*
X0087675Y0050045D01*
X0088281Y0051508D01*
X0088281Y0053092D01*
X0087675Y0054555D01*
X0086555Y0055675D01*
X0085092Y0056281D01*
X0083508Y0056281D01*
X0082045Y0055675D01*
X0081570Y0055200D01*
X0081223Y0055200D01*
X0080157Y0054758D01*
X0079341Y0053943D01*
X0078099Y0052700D01*
X0076155Y0052700D01*
X0080923Y0057333D01*
X0080943Y0057341D01*
X0081336Y0057735D01*
X0081735Y0058122D01*
X0081743Y0058142D01*
X0081758Y0058157D01*
X0081971Y0058671D01*
X0082191Y0059182D01*
X0082192Y0059203D01*
X0082200Y0059223D01*
X0082200Y0059780D01*
X0082208Y0060335D01*
X0082200Y0060355D01*
X0082200Y0067877D01*
X0081758Y0068943D01*
X0080943Y0069758D01*
X0080781Y0069920D01*
X0080781Y0070592D01*
X0080175Y0072055D01*
X0079055Y0073175D01*
X0077592Y0073781D01*
X0076008Y0073781D01*
X0074545Y0073175D01*
X0073425Y0072055D01*
X0072819Y0070592D01*
X0072819Y0069910D01*
X0068857Y0069910D01*
X0064598Y0074169D01*
X0063669Y0075098D01*
X0062456Y0075600D01*
X0051400Y0075600D01*
X0051400Y0080635D01*
X0051646Y0080389D01*
X0051988Y0080192D01*
X0052369Y0080090D01*
X0055020Y0080090D01*
X0055020Y0084239D01*
X0056020Y0084239D01*
X0056020Y0085239D01*
X0059972Y0085239D01*
X0059972Y0088086D01*
X0059870Y0088468D01*
X0059852Y0088500D01*
X0065428Y0088500D01*
X0065428Y0080720D01*
X0066658Y0079490D01*
X0074303Y0079490D01*
X0075533Y0080720D01*
X0075533Y0081016D01*
X0076008Y0080819D01*
X0077592Y0080819D01*
X0079055Y0081425D01*
X0080175Y0082545D01*
X0080781Y0084008D01*
X0080781Y0085592D01*
X0080175Y0087055D01*
X0079055Y0088175D01*
X0078708Y0088319D01*
X0080092Y0088319D01*
X0081555Y0088925D01*
X0082675Y0090045D01*
X0083281Y0091508D01*
X0083281Y0093092D01*
X0082675Y0094555D01*
X0081555Y0095675D01*
X0080650Y0096050D01*
X0081555Y0096425D01*
X0082675Y0097545D01*
X0083281Y0099008D01*
X0083281Y0100592D01*
X0082675Y0102055D01*
X0081555Y0103175D01*
X0080092Y0103781D01*
X0078508Y0103781D01*
X0077045Y0103175D01*
X0075925Y0102055D01*
X0075678Y0101460D01*
X0042050Y0101460D01*
X0042050Y0101989D01*
X0041738Y0102300D01*
X0042050Y0102611D01*
X0042050Y0109469D01*
X0040819Y0110699D01*
X0032781Y0110699D01*
X0032190Y0110109D01*
X0025005Y0110109D01*
X0023775Y0108879D01*
X0023775Y0106189D01*
X0023669Y0106294D01*
X0023669Y0107367D01*
X0023106Y0108727D01*
X0020633Y0111200D01*
X0072000Y0111200D01*
X0071820Y0130161D01*
X0117201Y0130161D01*
X0117201Y0082529D01*
X0116555Y0083175D01*
X0115092Y0083781D01*
X0113508Y0083781D01*
X0112045Y0083175D01*
X0111570Y0082700D01*
X0111223Y0082700D01*
X0110157Y0082258D01*
X0109341Y0081443D01*
X0106841Y0078943D01*
X0106400Y0077877D01*
X0106400Y0037530D01*
X0105925Y0037055D01*
X0105319Y0035592D01*
X0105319Y0034920D01*
X0105019Y0034620D01*
X0104838Y0034800D01*
X0105150Y0035111D01*
X0105150Y0041969D01*
X0104700Y0042419D01*
X0104700Y0069570D01*
X0105175Y0070045D01*
X0105781Y0071508D01*
X0105781Y0073092D01*
X0105175Y0074555D01*
X0104055Y0075675D01*
X0103221Y0076020D01*
X0104258Y0077057D01*
X0104700Y0078123D01*
X0104700Y0107070D01*
X0105175Y0107545D01*
X0105781Y0109008D01*
X0105781Y0110592D01*
X0105175Y0112055D01*
X0104055Y0113175D01*
X0102592Y0113781D01*
X0101008Y0113781D01*
X0099545Y0113175D01*
X0098425Y0112055D01*
X0098050Y0111150D01*
X0097675Y0112055D01*
X0096555Y0113175D01*
X0095092Y0113781D01*
X0093508Y0113781D01*
X0092045Y0113175D01*
X0090925Y0112055D01*
X0090319Y0110592D01*
X0090319Y0109920D01*
X0086841Y0106443D01*
X0086400Y0105377D01*
X0086400Y0064223D01*
X0086841Y0063157D01*
X0087657Y0062341D01*
X0089200Y0060799D01*
X0089200Y0057688D01*
X0092188Y0054700D01*
X0092613Y0054700D01*
X0089825Y0051912D01*
X0089825Y0047688D01*
X0092813Y0044700D01*
X0097037Y0044700D01*
X0098900Y0046563D01*
X0098900Y0043501D01*
X0098598Y0043199D01*
X0095881Y0043199D01*
X0095850Y0043169D01*
X0095819Y0043199D01*
X0087781Y0043199D01*
X0086550Y0041969D01*
X0086550Y0039962D01*
X0084012Y0042500D01*
X0079788Y0042500D01*
X0076900Y0039612D01*
X0074012Y0042500D01*
X0069788Y0042500D01*
X0066900Y0039612D01*
X0064012Y0042500D01*
X0059788Y0042500D01*
X0056800Y0039512D01*
X0056800Y0035288D01*
X0059788Y0032300D01*
X0064012Y0032300D01*
X0066900Y0035188D01*
X0069788Y0032300D01*
X0074012Y0032300D01*
X0076900Y0035188D01*
X0079788Y0032300D01*
X0084012Y0032300D01*
X0086687Y0034975D01*
X0086862Y0034800D01*
X0086550Y0034489D01*
X0086550Y0027631D01*
X0087781Y0026401D01*
X0089034Y0026401D01*
X0089341Y0025657D01*
X0090157Y0024841D01*
X0092657Y0022341D01*
X0093723Y0021900D01*
X0101200Y0021900D01*
X0101200Y0016330D01*
X0100725Y0015855D01*
X0100119Y0014392D01*
X0100119Y0012808D01*
X0100725Y0011345D01*
X0101845Y0010225D01*
X0103308Y0009619D01*
X0104892Y0009619D01*
X0106355Y0010225D01*
X0107475Y0011345D01*
X0108081Y0012808D01*
X0108081Y0014392D01*
X0107475Y0015855D01*
X0107000Y0016330D01*
X0107000Y0021900D01*
X0107377Y0021900D01*
X0108443Y0022341D01*
X0109258Y0023157D01*
X0116758Y0030657D01*
X0117200Y0031723D01*
X0117200Y0072070D01*
X0117201Y0072071D01*
X0117201Y0006900D01*
X0077365Y0006900D01*
X0077365Y0016500D01*
X0076135Y0017730D01*
X0066521Y0017730D01*
X0065291Y0016500D01*
X0065291Y0006900D01*
X0055909Y0006900D01*
X0055909Y0012584D01*
X0055925Y0012545D01*
X0057045Y0011425D01*
X0058508Y0010819D01*
X0060092Y0010819D01*
X0061555Y0011425D01*
X0062675Y0012545D01*
X0063281Y0014008D01*
X0063281Y0015592D01*
X0062675Y0017055D01*
X0061555Y0018175D01*
X0060092Y0018781D01*
X0059420Y0018781D01*
X0058558Y0019643D01*
X0057743Y0020458D01*
X0056677Y0020900D01*
X0055501Y0020900D01*
X0055501Y0026872D01*
X0054270Y0028102D01*
X0047806Y0028102D01*
X0046576Y0026872D01*
X0046576Y0020900D01*
X0040623Y0020900D01*
X0039557Y0020458D01*
X0036499Y0017400D01*
X0031630Y0017400D01*
X0030400Y0016170D01*
X0030400Y0008430D01*
X0031630Y0007200D01*
X0039370Y0007200D01*
X0040600Y0008430D01*
X0040600Y0013299D01*
X0042401Y0015100D01*
X0043835Y0015100D01*
X0043835Y0006900D01*
X0003100Y0006900D01*
X0003100Y0007662D02*
X0031169Y0007662D01*
X0003100Y0007662D01*
X0031169Y0007662D01*
X0003100Y0007662D01*
X0003100Y0008660D02*
X0030400Y0008660D01*
X0003100Y0008660D01*
X0030400Y0008660D01*
X0003100Y0008660D01*
X0003100Y0009659D02*
X0030400Y0009659D01*
X0003100Y0009659D01*
X0030400Y0009659D01*
X0003100Y0009659D01*
X0003100Y0010657D02*
X0030400Y0010657D01*
X0003100Y0010657D01*
X0030400Y0010657D01*
X0003100Y0010657D01*
X0003100Y0011656D02*
X0030400Y0011656D01*
X0003100Y0011656D01*
X0030400Y0011656D01*
X0003100Y0011656D01*
X0003100Y0012654D02*
X0030400Y0012654D01*
X0003100Y0012654D01*
X0030400Y0012654D01*
X0003100Y0012654D01*
X0003100Y0013653D02*
X0030400Y0013653D01*
X0003100Y0013653D01*
X0030400Y0013653D01*
X0003100Y0013653D01*
X0003100Y0014651D02*
X0030400Y0014651D01*
X0003100Y0014651D01*
X0030400Y0014651D01*
X0003100Y0014651D01*
X0003100Y0015650D02*
X0030400Y0015650D01*
X0003100Y0015650D01*
X0030400Y0015650D01*
X0003100Y0015650D01*
X0003100Y0016648D02*
X0030878Y0016648D01*
X0003100Y0016648D01*
X0030878Y0016648D01*
X0003100Y0016648D01*
X0003100Y0017647D02*
X0036745Y0017647D01*
X0003100Y0017647D01*
X0036745Y0017647D01*
X0003100Y0017647D01*
X0003100Y0018645D02*
X0037744Y0018645D01*
X0003100Y0018645D01*
X0037744Y0018645D01*
X0003100Y0018645D01*
X0003100Y0019644D02*
X0038742Y0019644D01*
X0003100Y0019644D01*
X0038742Y0019644D01*
X0003100Y0019644D01*
X0003100Y0020642D02*
X0040001Y0020642D01*
X0003100Y0020642D01*
X0040001Y0020642D01*
X0003100Y0020642D01*
X0003100Y0021641D02*
X0046576Y0021641D01*
X0003100Y0021641D01*
X0046576Y0021641D01*
X0003100Y0021641D01*
X0003100Y0022639D02*
X0046576Y0022639D01*
X0003100Y0022639D01*
X0046576Y0022639D01*
X0003100Y0022639D01*
X0003100Y0023638D02*
X0046576Y0023638D01*
X0003100Y0023638D01*
X0046576Y0023638D01*
X0003100Y0023638D01*
X0003100Y0024636D02*
X0046576Y0024636D01*
X0003100Y0024636D01*
X0046576Y0024636D01*
X0003100Y0024636D01*
X0003100Y0025635D02*
X0046576Y0025635D01*
X0003100Y0025635D01*
X0046576Y0025635D01*
X0003100Y0025635D01*
X0003100Y0026633D02*
X0046576Y0026633D01*
X0003100Y0026633D01*
X0046576Y0026633D01*
X0003100Y0026633D01*
X0003100Y0027632D02*
X0047336Y0027632D01*
X0003100Y0027632D01*
X0047336Y0027632D01*
X0003100Y0027632D01*
X0003100Y0028630D02*
X0086550Y0028630D01*
X0003100Y0028630D01*
X0086550Y0028630D01*
X0003100Y0028630D01*
X0003100Y0029629D02*
X0086550Y0029629D01*
X0003100Y0029629D01*
X0086550Y0029629D01*
X0003100Y0029629D01*
X0003100Y0030627D02*
X0086550Y0030627D01*
X0003100Y0030627D01*
X0086550Y0030627D01*
X0003100Y0030627D01*
X0003100Y0031626D02*
X0086550Y0031626D01*
X0003100Y0031626D01*
X0086550Y0031626D01*
X0003100Y0031626D01*
X0003100Y0032624D02*
X0059463Y0032624D01*
X0003100Y0032624D01*
X0059463Y0032624D01*
X0003100Y0032624D01*
X0003100Y0033623D02*
X0047617Y0033623D01*
X0003100Y0033623D01*
X0047617Y0033623D01*
X0003100Y0033623D01*
X0003100Y0034621D02*
X0047400Y0034621D01*
X0003100Y0034621D01*
X0047400Y0034621D01*
X0003100Y0034621D01*
X0003100Y0035620D02*
X0047400Y0035620D01*
X0003100Y0035620D01*
X0047400Y0035620D01*
X0003100Y0035620D01*
X0003100Y0036618D02*
X0047400Y0036618D01*
X0003100Y0036618D01*
X0047400Y0036618D01*
X0003100Y0036618D01*
X0003100Y0037617D02*
X0051400Y0037617D01*
X0003100Y0037617D01*
X0051400Y0037617D01*
X0003100Y0037617D01*
X0003100Y0038615D02*
X0047400Y0038615D01*
X0003100Y0038615D01*
X0047400Y0038615D01*
X0003100Y0038615D01*
X0003100Y0039614D02*
X0047400Y0039614D01*
X0003100Y0039614D01*
X0047400Y0039614D01*
X0003100Y0039614D01*
X0003100Y0040612D02*
X0047404Y0040612D01*
X0003100Y0040612D01*
X0047404Y0040612D01*
X0003100Y0040612D01*
X0003100Y0041611D02*
X0047997Y0041611D01*
X0003100Y0041611D01*
X0047997Y0041611D01*
X0003100Y0041611D01*
X0003100Y0042609D02*
X0087191Y0042609D01*
X0003100Y0042609D01*
X0087191Y0042609D01*
X0003100Y0042609D01*
X0003100Y0043608D02*
X0082810Y0043608D01*
X0003100Y0043608D01*
X0082810Y0043608D01*
X0003100Y0043608D01*
X0003100Y0044606D02*
X0038592Y0044606D01*
X0003100Y0044606D01*
X0038592Y0044606D01*
X0003100Y0044606D01*
X0003100Y0045605D02*
X0037594Y0045605D01*
X0003100Y0045605D01*
X0037594Y0045605D01*
X0003100Y0045605D01*
X0003100Y0046603D02*
X0036595Y0046603D01*
X0003100Y0046603D01*
X0036595Y0046603D01*
X0003100Y0046603D01*
X0003100Y0047602D02*
X0035597Y0047602D01*
X0003100Y0047602D01*
X0035597Y0047602D01*
X0003100Y0047602D01*
X0003100Y0048601D02*
X0034598Y0048601D01*
X0003100Y0048601D01*
X0034598Y0048601D01*
X0003100Y0048601D01*
X0003100Y0049599D02*
X0033600Y0049599D01*
X0003100Y0049599D01*
X0033600Y0049599D01*
X0003100Y0049599D01*
X0003100Y0050598D02*
X0032601Y0050598D01*
X0003100Y0050598D01*
X0032601Y0050598D01*
X0003100Y0050598D01*
X0003100Y0051596D02*
X0031603Y0051596D01*
X0003100Y0051596D01*
X0031603Y0051596D01*
X0003100Y0051596D01*
X0003100Y0052595D02*
X0030604Y0052595D01*
X0003100Y0052595D01*
X0030604Y0052595D01*
X0003100Y0052595D01*
X0003100Y0053593D02*
X0029606Y0053593D01*
X0003100Y0053593D01*
X0029606Y0053593D01*
X0003100Y0053593D01*
X0003100Y0054592D02*
X0028607Y0054592D01*
X0003100Y0054592D01*
X0028607Y0054592D01*
X0003100Y0054592D01*
X0003100Y0055590D02*
X0027609Y0055590D01*
X0003100Y0055590D01*
X0027609Y0055590D01*
X0003100Y0055590D01*
X0003100Y0056589D02*
X0026610Y0056589D01*
X0003100Y0056589D01*
X0026610Y0056589D01*
X0003100Y0056589D01*
X0003100Y0057587D02*
X0025612Y0057587D01*
X0003100Y0057587D01*
X0025612Y0057587D01*
X0003100Y0057587D01*
X0003100Y0058586D02*
X0024613Y0058586D01*
X0003100Y0058586D01*
X0024613Y0058586D01*
X0003100Y0058586D01*
X0003100Y0059584D02*
X0023748Y0059584D01*
X0003100Y0059584D01*
X0023748Y0059584D01*
X0003100Y0059584D01*
X0003100Y0060583D02*
X0023400Y0060583D01*
X0003100Y0060583D01*
X0023400Y0060583D01*
X0003100Y0060583D01*
X0003100Y0061581D02*
X0023400Y0061581D01*
X0003100Y0061581D01*
X0023400Y0061581D01*
X0003100Y0061581D01*
X0003100Y0062580D02*
X0023400Y0062580D01*
X0003100Y0062580D01*
X0023400Y0062580D01*
X0003100Y0062580D01*
X0003100Y0063578D02*
X0023400Y0063578D01*
X0003100Y0063578D01*
X0023400Y0063578D01*
X0003100Y0063578D01*
X0003100Y0064577D02*
X0023400Y0064577D01*
X0003100Y0064577D01*
X0023400Y0064577D01*
X0003100Y0064577D01*
X0003100Y0065575D02*
X0023400Y0065575D01*
X0003100Y0065575D01*
X0023400Y0065575D01*
X0003100Y0065575D01*
X0003100Y0066574D02*
X0023400Y0066574D01*
X0003100Y0066574D01*
X0023400Y0066574D01*
X0003100Y0066574D01*
X0003100Y0067572D02*
X0023400Y0067572D01*
X0003100Y0067572D01*
X0023400Y0067572D01*
X0003100Y0067572D01*
X0003100Y0068571D02*
X0023400Y0068571D01*
X0003100Y0068571D01*
X0023400Y0068571D01*
X0003100Y0068571D01*
X0003100Y0069569D02*
X0023400Y0069569D01*
X0003100Y0069569D01*
X0023400Y0069569D01*
X0003100Y0069569D01*
X0003100Y0070568D02*
X0023400Y0070568D01*
X0003100Y0070568D01*
X0023400Y0070568D01*
X0003100Y0070568D01*
X0003100Y0071566D02*
X0023400Y0071566D01*
X0003100Y0071566D01*
X0023400Y0071566D01*
X0003100Y0071566D01*
X0003100Y0072565D02*
X0023400Y0072565D01*
X0003100Y0072565D01*
X0023400Y0072565D01*
X0003100Y0072565D01*
X0003100Y0073563D02*
X0023400Y0073563D01*
X0003100Y0073563D01*
X0023400Y0073563D01*
X0003100Y0073563D01*
X0003100Y0074562D02*
X0023400Y0074562D01*
X0003100Y0074562D01*
X0023400Y0074562D01*
X0003100Y0074562D01*
X0003100Y0075560D02*
X0023400Y0075560D01*
X0003100Y0075560D01*
X0023400Y0075560D01*
X0003100Y0075560D01*
X0003100Y0076559D02*
X0023400Y0076559D01*
X0003100Y0076559D01*
X0023400Y0076559D01*
X0003100Y0076559D01*
X0003100Y0077557D02*
X0014973Y0077557D01*
X0003100Y0077557D01*
X0014973Y0077557D01*
X0003100Y0077557D01*
X0003100Y0078556D02*
X0014650Y0078556D01*
X0003100Y0078556D01*
X0014650Y0078556D01*
X0003100Y0078556D01*
X0003100Y0079554D02*
X0014650Y0079554D01*
X0003100Y0079554D01*
X0014650Y0079554D01*
X0003100Y0079554D01*
X0003100Y0080553D02*
X0014650Y0080553D01*
X0003100Y0080553D01*
X0014650Y0080553D01*
X0003100Y0080553D01*
X0003100Y0081551D02*
X0018800Y0081551D01*
X0003100Y0081551D01*
X0018800Y0081551D01*
X0003100Y0081551D01*
X0003100Y0082550D02*
X0014650Y0082550D01*
X0003100Y0082550D01*
X0014650Y0082550D01*
X0003100Y0082550D01*
X0003100Y0083548D02*
X0014650Y0083548D01*
X0003100Y0083548D01*
X0014650Y0083548D01*
X0003100Y0083548D01*
X0003100Y0084547D02*
X0014615Y0084547D01*
X0003100Y0084547D01*
X0014615Y0084547D01*
X0003100Y0084547D01*
X0003100Y0085545D02*
X0014050Y0085545D01*
X0003100Y0085545D01*
X0014050Y0085545D01*
X0003100Y0085545D01*
X0003100Y0086544D02*
X0014050Y0086544D01*
X0003100Y0086544D01*
X0014050Y0086544D01*
X0003100Y0086544D01*
X0003100Y0087542D02*
X0014050Y0087542D01*
X0003100Y0087542D01*
X0014050Y0087542D01*
X0003100Y0087542D01*
X0003100Y0088541D02*
X0014050Y0088541D01*
X0003100Y0088541D01*
X0014050Y0088541D01*
X0003100Y0088541D01*
X0003100Y0089539D02*
X0014050Y0089539D01*
X0003100Y0089539D01*
X0014050Y0089539D01*
X0003100Y0089539D01*
X0003100Y0090538D02*
X0014050Y0090538D01*
X0003100Y0090538D01*
X0014050Y0090538D01*
X0003100Y0090538D01*
X0003100Y0091537D02*
X0014050Y0091537D01*
X0003100Y0091537D01*
X0014050Y0091537D01*
X0003100Y0091537D01*
X0003100Y0092535D02*
X0014616Y0092535D01*
X0003100Y0092535D01*
X0014616Y0092535D01*
X0003100Y0092535D01*
X0003100Y0093534D02*
X0016400Y0093534D01*
X0003100Y0093534D01*
X0016400Y0093534D01*
X0003100Y0093534D01*
X0003100Y0094532D02*
X0016400Y0094532D01*
X0003100Y0094532D01*
X0016400Y0094532D01*
X0003100Y0094532D01*
X0003100Y0095531D02*
X0016400Y0095531D01*
X0003100Y0095531D01*
X0016400Y0095531D01*
X0003100Y0095531D01*
X0003100Y0096529D02*
X0016400Y0096529D01*
X0003100Y0096529D01*
X0016400Y0096529D01*
X0003100Y0096529D01*
X0003100Y0097528D02*
X0016400Y0097528D01*
X0003100Y0097528D01*
X0016400Y0097528D01*
X0003100Y0097528D01*
X0003100Y0098526D02*
X0016049Y0098526D01*
X0003100Y0098526D01*
X0016049Y0098526D01*
X0003100Y0098526D01*
X0003100Y0099525D02*
X0015113Y0099525D01*
X0003100Y0099525D01*
X0015113Y0099525D01*
X0003100Y0099525D01*
X0003100Y0100523D02*
X0015113Y0100523D01*
X0003100Y0100523D01*
X0015113Y0100523D01*
X0003100Y0100523D01*
X0003100Y0101522D02*
X0015113Y0101522D01*
X0003100Y0101522D01*
X0015113Y0101522D01*
X0003100Y0101522D01*
X0003100Y0102520D02*
X0015113Y0102520D01*
X0003100Y0102520D01*
X0015113Y0102520D01*
X0003100Y0102520D01*
X0003100Y0103519D02*
X0015113Y0103519D01*
X0003100Y0103519D01*
X0015113Y0103519D01*
X0003100Y0103519D01*
X0003100Y0104517D02*
X0015113Y0104517D01*
X0003100Y0104517D01*
X0015113Y0104517D01*
X0003100Y0104517D01*
X0003100Y0105516D02*
X0015491Y0105516D01*
X0003100Y0105516D01*
X0015491Y0105516D01*
X0003100Y0105516D01*
X0003100Y0106514D02*
X0014456Y0106514D01*
X0003100Y0106514D01*
X0014456Y0106514D01*
X0003100Y0106514D01*
X0003100Y0107513D02*
X0013457Y0107513D01*
X0003100Y0107513D01*
X0013457Y0107513D01*
X0003100Y0107513D01*
X0003100Y0108511D02*
X0013025Y0108511D01*
X0003100Y0108511D01*
X0013025Y0108511D01*
X0003100Y0108511D01*
X0003100Y0109510D02*
X0012819Y0109510D01*
X0003100Y0109510D01*
X0012819Y0109510D01*
X0003100Y0109510D01*
X0003100Y0110508D02*
X0012819Y0110508D01*
X0003100Y0110508D01*
X0012819Y0110508D01*
X0003100Y0110508D01*
X0021324Y0110508D02*
X0032590Y0110508D01*
X0021324Y0110508D01*
X0032590Y0110508D01*
X0021324Y0110508D01*
X0022323Y0109510D02*
X0024406Y0109510D01*
X0022323Y0109510D01*
X0024406Y0109510D01*
X0022323Y0109510D01*
X0023195Y0108511D02*
X0023775Y0108511D01*
X0023195Y0108511D01*
X0023775Y0108511D01*
X0023195Y0108511D01*
X0023609Y0107513D02*
X0023775Y0107513D01*
X0023609Y0107513D01*
X0023775Y0107513D01*
X0023609Y0107513D01*
X0023669Y0106514D02*
X0023775Y0106514D01*
X0023669Y0106514D01*
X0023775Y0106514D01*
X0023669Y0106514D01*
X0041010Y0110508D02*
X0090319Y0110508D01*
X0041010Y0110508D01*
X0090319Y0110508D01*
X0041010Y0110508D01*
X0042009Y0109510D02*
X0089908Y0109510D01*
X0042009Y0109510D01*
X0089908Y0109510D01*
X0042009Y0109510D01*
X0042050Y0108511D02*
X0088910Y0108511D01*
X0042050Y0108511D01*
X0088910Y0108511D01*
X0042050Y0108511D01*
X0042050Y0107513D02*
X0087911Y0107513D01*
X0042050Y0107513D01*
X0087911Y0107513D01*
X0042050Y0107513D01*
X0042050Y0106514D02*
X0086913Y0106514D01*
X0042050Y0106514D01*
X0086913Y0106514D01*
X0042050Y0106514D01*
X0042050Y0105516D02*
X0086458Y0105516D01*
X0042050Y0105516D01*
X0086458Y0105516D01*
X0042050Y0105516D01*
X0042050Y0104517D02*
X0086400Y0104517D01*
X0042050Y0104517D01*
X0086400Y0104517D01*
X0042050Y0104517D01*
X0042050Y0103519D02*
X0077874Y0103519D01*
X0042050Y0103519D01*
X0077874Y0103519D01*
X0042050Y0103519D01*
X0041958Y0102520D02*
X0076390Y0102520D01*
X0041958Y0102520D01*
X0076390Y0102520D01*
X0041958Y0102520D01*
X0042050Y0101522D02*
X0075704Y0101522D01*
X0042050Y0101522D01*
X0075704Y0101522D01*
X0042050Y0101522D01*
X0051400Y0085239D02*
X0055020Y0085239D01*
X0055020Y0084239D01*
X0051400Y0084239D01*
X0051400Y0085239D01*
X0055020Y0085239D01*
X0055020Y0084239D01*
X0051400Y0084239D01*
X0051400Y0085239D01*
X0055020Y0085239D01*
X0055020Y0084239D01*
X0051400Y0084239D01*
X0051400Y0085239D01*
X0055020Y0085239D01*
X0055020Y0084239D01*
X0051400Y0084239D01*
X0051400Y0085239D01*
X0051400Y0084547D02*
X0055020Y0084547D01*
X0051400Y0084547D01*
X0055020Y0084547D01*
X0051400Y0084547D01*
X0055020Y0083548D02*
X0056020Y0083548D01*
X0055020Y0083548D01*
X0056020Y0083548D01*
X0055020Y0083548D01*
X0055020Y0082550D02*
X0056020Y0082550D01*
X0055020Y0082550D01*
X0056020Y0082550D01*
X0055020Y0082550D01*
X0055020Y0081551D02*
X0056020Y0081551D01*
X0055020Y0081551D01*
X0056020Y0081551D01*
X0055020Y0081551D01*
X0055020Y0080553D02*
X0056020Y0080553D01*
X0055020Y0080553D01*
X0056020Y0080553D01*
X0055020Y0080553D01*
X0056020Y0080090D02*
X0058670Y0080090D01*
X0059051Y0080192D01*
X0059393Y0080389D01*
X0059673Y0080669D01*
X0059870Y0081011D01*
X0059972Y0081392D01*
X0059972Y0084239D01*
X0056020Y0084239D01*
X0056020Y0080090D01*
X0059557Y0080553D02*
X0065595Y0080553D01*
X0059557Y0080553D01*
X0065595Y0080553D01*
X0059557Y0080553D01*
X0059972Y0081551D02*
X0065428Y0081551D01*
X0059972Y0081551D01*
X0065428Y0081551D01*
X0059972Y0081551D01*
X0059972Y0082550D02*
X0065428Y0082550D01*
X0059972Y0082550D01*
X0065428Y0082550D01*
X0059972Y0082550D01*
X0059972Y0083548D02*
X0065428Y0083548D01*
X0059972Y0083548D01*
X0065428Y0083548D01*
X0059972Y0083548D01*
X0059972Y0085545D02*
X0065428Y0085545D01*
X0059972Y0085545D01*
X0065428Y0085545D01*
X0059972Y0085545D01*
X0059972Y0086544D02*
X0065428Y0086544D01*
X0059972Y0086544D01*
X0065428Y0086544D01*
X0059972Y0086544D01*
X0059972Y0087542D02*
X0065428Y0087542D01*
X0059972Y0087542D01*
X0065428Y0087542D01*
X0059972Y0087542D01*
X0056020Y0084547D02*
X0065428Y0084547D01*
X0056020Y0084547D01*
X0065428Y0084547D01*
X0056020Y0084547D01*
X0051482Y0080553D02*
X0051400Y0080553D01*
X0051482Y0080553D01*
X0051400Y0080553D01*
X0051482Y0080553D01*
X0051400Y0079554D02*
X0066593Y0079554D01*
X0051400Y0079554D01*
X0066593Y0079554D01*
X0051400Y0079554D01*
X0051400Y0078556D02*
X0086400Y0078556D01*
X0051400Y0078556D01*
X0086400Y0078556D01*
X0051400Y0078556D01*
X0051400Y0077557D02*
X0086400Y0077557D01*
X0051400Y0077557D01*
X0086400Y0077557D01*
X0051400Y0077557D01*
X0051400Y0076559D02*
X0086400Y0076559D01*
X0051400Y0076559D01*
X0086400Y0076559D01*
X0051400Y0076559D01*
X0062552Y0075560D02*
X0086400Y0075560D01*
X0062552Y0075560D01*
X0086400Y0075560D01*
X0062552Y0075560D01*
X0064205Y0074562D02*
X0086400Y0074562D01*
X0064205Y0074562D01*
X0086400Y0074562D01*
X0064205Y0074562D01*
X0065204Y0073563D02*
X0075482Y0073563D01*
X0065204Y0073563D01*
X0075482Y0073563D01*
X0065204Y0073563D01*
X0066202Y0072565D02*
X0073935Y0072565D01*
X0066202Y0072565D01*
X0073935Y0072565D01*
X0066202Y0072565D01*
X0067201Y0071566D02*
X0073223Y0071566D01*
X0067201Y0071566D01*
X0073223Y0071566D01*
X0067201Y0071566D01*
X0068199Y0070568D02*
X0072819Y0070568D01*
X0068199Y0070568D01*
X0072819Y0070568D01*
X0068199Y0070568D01*
X0074368Y0079554D02*
X0086400Y0079554D01*
X0074368Y0079554D01*
X0086400Y0079554D01*
X0074368Y0079554D01*
X0075366Y0080553D02*
X0086400Y0080553D01*
X0075366Y0080553D01*
X0086400Y0080553D01*
X0075366Y0080553D01*
X0079182Y0081551D02*
X0086400Y0081551D01*
X0079182Y0081551D01*
X0086400Y0081551D01*
X0079182Y0081551D01*
X0080177Y0082550D02*
X0086400Y0082550D01*
X0080177Y0082550D01*
X0086400Y0082550D01*
X0080177Y0082550D01*
X0080591Y0083548D02*
X0086400Y0083548D01*
X0080591Y0083548D01*
X0086400Y0083548D01*
X0080591Y0083548D01*
X0080781Y0084547D02*
X0086400Y0084547D01*
X0080781Y0084547D01*
X0086400Y0084547D01*
X0080781Y0084547D01*
X0080781Y0085545D02*
X0086400Y0085545D01*
X0080781Y0085545D01*
X0086400Y0085545D01*
X0080781Y0085545D01*
X0080387Y0086544D02*
X0086400Y0086544D01*
X0080387Y0086544D01*
X0086400Y0086544D01*
X0080387Y0086544D01*
X0079688Y0087542D02*
X0086400Y0087542D01*
X0079688Y0087542D01*
X0086400Y0087542D01*
X0079688Y0087542D01*
X0080628Y0088541D02*
X0086400Y0088541D01*
X0080628Y0088541D01*
X0086400Y0088541D01*
X0080628Y0088541D01*
X0082170Y0089539D02*
X0086400Y0089539D01*
X0082170Y0089539D01*
X0086400Y0089539D01*
X0082170Y0089539D01*
X0082879Y0090538D02*
X0086400Y0090538D01*
X0082879Y0090538D01*
X0086400Y0090538D01*
X0082879Y0090538D01*
X0083281Y0091537D02*
X0086400Y0091537D01*
X0083281Y0091537D01*
X0086400Y0091537D01*
X0083281Y0091537D01*
X0083281Y0092535D02*
X0086400Y0092535D01*
X0083281Y0092535D01*
X0086400Y0092535D01*
X0083281Y0092535D01*
X0083098Y0093534D02*
X0086400Y0093534D01*
X0083098Y0093534D01*
X0086400Y0093534D01*
X0083098Y0093534D01*
X0082685Y0094532D02*
X0086400Y0094532D01*
X0082685Y0094532D01*
X0086400Y0094532D01*
X0082685Y0094532D01*
X0081700Y0095531D02*
X0086400Y0095531D01*
X0081700Y0095531D01*
X0086400Y0095531D01*
X0081700Y0095531D01*
X0081659Y0096529D02*
X0086400Y0096529D01*
X0081659Y0096529D01*
X0086400Y0096529D01*
X0081659Y0096529D01*
X0082658Y0097528D02*
X0086400Y0097528D01*
X0082658Y0097528D01*
X0086400Y0097528D01*
X0082658Y0097528D01*
X0083081Y0098526D02*
X0086400Y0098526D01*
X0083081Y0098526D01*
X0086400Y0098526D01*
X0083081Y0098526D01*
X0083281Y0099525D02*
X0086400Y0099525D01*
X0083281Y0099525D01*
X0086400Y0099525D01*
X0083281Y0099525D01*
X0083281Y0100523D02*
X0086400Y0100523D01*
X0083281Y0100523D01*
X0086400Y0100523D01*
X0083281Y0100523D01*
X0082896Y0101522D02*
X0086400Y0101522D01*
X0082896Y0101522D01*
X0086400Y0101522D01*
X0082896Y0101522D01*
X0082210Y0102520D02*
X0086400Y0102520D01*
X0082210Y0102520D01*
X0086400Y0102520D01*
X0082210Y0102520D01*
X0080726Y0103519D02*
X0086400Y0103519D01*
X0080726Y0103519D01*
X0086400Y0103519D01*
X0080726Y0103519D01*
X0071997Y0111507D02*
X0090698Y0111507D01*
X0071997Y0111507D01*
X0090698Y0111507D01*
X0071997Y0111507D01*
X0071988Y0112505D02*
X0091375Y0112505D01*
X0071988Y0112505D01*
X0091375Y0112505D01*
X0071988Y0112505D01*
X0071978Y0113504D02*
X0092839Y0113504D01*
X0071978Y0113504D01*
X0092839Y0113504D01*
X0071978Y0113504D01*
X0071969Y0114502D02*
X0117201Y0114502D01*
X0071969Y0114502D01*
X0117201Y0114502D01*
X0071969Y0114502D01*
X0071959Y0115501D02*
X0117201Y0115501D01*
X0071959Y0115501D01*
X0117201Y0115501D01*
X0071959Y0115501D01*
X0071950Y0116499D02*
X0117201Y0116499D01*
X0071950Y0116499D01*
X0117201Y0116499D01*
X0071950Y0116499D01*
X0071940Y0117498D02*
X0117201Y0117498D01*
X0071940Y0117498D01*
X0117201Y0117498D01*
X0071940Y0117498D01*
X0071931Y0118496D02*
X0106232Y0118496D01*
X0071931Y0118496D01*
X0106232Y0118496D01*
X0071931Y0118496D01*
X0071921Y0119495D02*
X0106000Y0119495D01*
X0071921Y0119495D01*
X0106000Y0119495D01*
X0071921Y0119495D01*
X0071912Y0120493D02*
X0106000Y0120493D01*
X0071912Y0120493D01*
X0106000Y0120493D01*
X0071912Y0120493D01*
X0071902Y0121492D02*
X0106000Y0121492D01*
X0071902Y0121492D01*
X0106000Y0121492D01*
X0071902Y0121492D01*
X0071893Y0122490D02*
X0110000Y0122490D01*
X0071893Y0122490D01*
X0110000Y0122490D01*
X0071893Y0122490D01*
X0071884Y0123489D02*
X0106000Y0123489D01*
X0071884Y0123489D01*
X0106000Y0123489D01*
X0071884Y0123489D01*
X0071874Y0124487D02*
X0106000Y0124487D01*
X0071874Y0124487D01*
X0106000Y0124487D01*
X0071874Y0124487D01*
X0071865Y0125486D02*
X0106000Y0125486D01*
X0071865Y0125486D01*
X0106000Y0125486D01*
X0071865Y0125486D01*
X0071855Y0126484D02*
X0106563Y0126484D01*
X0071855Y0126484D01*
X0106563Y0126484D01*
X0071855Y0126484D01*
X0071846Y0127483D02*
X0117201Y0127483D01*
X0071846Y0127483D01*
X0117201Y0127483D01*
X0071846Y0127483D01*
X0071836Y0128481D02*
X0117201Y0128481D01*
X0071836Y0128481D01*
X0117201Y0128481D01*
X0071836Y0128481D01*
X0071827Y0129480D02*
X0117201Y0129480D01*
X0071827Y0129480D01*
X0117201Y0129480D01*
X0071827Y0129480D01*
X0095761Y0113504D02*
X0100339Y0113504D01*
X0095761Y0113504D01*
X0100339Y0113504D01*
X0095761Y0113504D01*
X0097225Y0112505D02*
X0098875Y0112505D01*
X0097225Y0112505D01*
X0098875Y0112505D01*
X0097225Y0112505D01*
X0097902Y0111507D02*
X0098198Y0111507D01*
X0097902Y0111507D01*
X0098198Y0111507D01*
X0097902Y0111507D01*
X0103261Y0113504D02*
X0117201Y0113504D01*
X0103261Y0113504D01*
X0117201Y0113504D01*
X0103261Y0113504D01*
X0104725Y0112505D02*
X0117201Y0112505D01*
X0104725Y0112505D01*
X0117201Y0112505D01*
X0104725Y0112505D01*
X0105402Y0111507D02*
X0117201Y0111507D01*
X0105402Y0111507D01*
X0117201Y0111507D01*
X0105402Y0111507D01*
X0105781Y0110508D02*
X0117201Y0110508D01*
X0105781Y0110508D01*
X0117201Y0110508D01*
X0105781Y0110508D01*
X0105781Y0109510D02*
X0117201Y0109510D01*
X0105781Y0109510D01*
X0117201Y0109510D01*
X0105781Y0109510D01*
X0105575Y0108511D02*
X0117201Y0108511D01*
X0105575Y0108511D01*
X0117201Y0108511D01*
X0105575Y0108511D01*
X0105143Y0107513D02*
X0117201Y0107513D01*
X0105143Y0107513D01*
X0117201Y0107513D01*
X0105143Y0107513D01*
X0104700Y0106514D02*
X0117201Y0106514D01*
X0104700Y0106514D01*
X0117201Y0106514D01*
X0104700Y0106514D01*
X0104700Y0105516D02*
X0117201Y0105516D01*
X0104700Y0105516D01*
X0117201Y0105516D01*
X0104700Y0105516D01*
X0104700Y0104517D02*
X0117201Y0104517D01*
X0104700Y0104517D01*
X0117201Y0104517D01*
X0104700Y0104517D01*
X0104700Y0103519D02*
X0117201Y0103519D01*
X0104700Y0103519D01*
X0117201Y0103519D01*
X0104700Y0103519D01*
X0104700Y0102520D02*
X0117201Y0102520D01*
X0104700Y0102520D01*
X0117201Y0102520D01*
X0104700Y0102520D01*
X0104700Y0101522D02*
X0117201Y0101522D01*
X0104700Y0101522D01*
X0117201Y0101522D01*
X0104700Y0101522D01*
X0104700Y0100523D02*
X0117201Y0100523D01*
X0104700Y0100523D01*
X0117201Y0100523D01*
X0104700Y0100523D01*
X0104700Y0099525D02*
X0117201Y0099525D01*
X0104700Y0099525D01*
X0117201Y0099525D01*
X0104700Y0099525D01*
X0104700Y0098526D02*
X0117201Y0098526D01*
X0104700Y0098526D01*
X0117201Y0098526D01*
X0104700Y0098526D01*
X0104700Y0097528D02*
X0117201Y0097528D01*
X0104700Y0097528D01*
X0117201Y0097528D01*
X0104700Y0097528D01*
X0104700Y0096529D02*
X0117201Y0096529D01*
X0104700Y0096529D01*
X0117201Y0096529D01*
X0104700Y0096529D01*
X0104700Y0095531D02*
X0117201Y0095531D01*
X0104700Y0095531D01*
X0117201Y0095531D01*
X0104700Y0095531D01*
X0104700Y0094532D02*
X0117201Y0094532D01*
X0104700Y0094532D01*
X0117201Y0094532D01*
X0104700Y0094532D01*
X0104700Y0093534D02*
X0117201Y0093534D01*
X0104700Y0093534D01*
X0117201Y0093534D01*
X0104700Y0093534D01*
X0104700Y0092535D02*
X0117201Y0092535D01*
X0104700Y0092535D01*
X0117201Y0092535D01*
X0104700Y0092535D01*
X0104700Y0091537D02*
X0117201Y0091537D01*
X0104700Y0091537D01*
X0117201Y0091537D01*
X0104700Y0091537D01*
X0104700Y0090538D02*
X0117201Y0090538D01*
X0104700Y0090538D01*
X0117201Y0090538D01*
X0104700Y0090538D01*
X0104700Y0089539D02*
X0117201Y0089539D01*
X0104700Y0089539D01*
X0117201Y0089539D01*
X0104700Y0089539D01*
X0104700Y0088541D02*
X0117201Y0088541D01*
X0104700Y0088541D01*
X0117201Y0088541D01*
X0104700Y0088541D01*
X0104700Y0087542D02*
X0117201Y0087542D01*
X0104700Y0087542D01*
X0117201Y0087542D01*
X0104700Y0087542D01*
X0104700Y0086544D02*
X0117201Y0086544D01*
X0104700Y0086544D01*
X0117201Y0086544D01*
X0104700Y0086544D01*
X0104700Y0085545D02*
X0117201Y0085545D01*
X0104700Y0085545D01*
X0117201Y0085545D01*
X0104700Y0085545D01*
X0104700Y0084547D02*
X0117201Y0084547D01*
X0104700Y0084547D01*
X0117201Y0084547D01*
X0104700Y0084547D01*
X0104700Y0083548D02*
X0112946Y0083548D01*
X0104700Y0083548D01*
X0112946Y0083548D01*
X0104700Y0083548D01*
X0104700Y0082550D02*
X0110861Y0082550D01*
X0104700Y0082550D01*
X0110861Y0082550D01*
X0104700Y0082550D01*
X0104700Y0081551D02*
X0109450Y0081551D01*
X0104700Y0081551D01*
X0109450Y0081551D01*
X0104700Y0081551D01*
X0104700Y0080553D02*
X0108452Y0080553D01*
X0104700Y0080553D01*
X0108452Y0080553D01*
X0104700Y0080553D01*
X0104700Y0079554D02*
X0107453Y0079554D01*
X0104700Y0079554D01*
X0107453Y0079554D01*
X0104700Y0079554D01*
X0104700Y0078556D02*
X0106681Y0078556D01*
X0104700Y0078556D01*
X0106681Y0078556D01*
X0104700Y0078556D01*
X0104466Y0077557D02*
X0106400Y0077557D01*
X0104466Y0077557D01*
X0106400Y0077557D01*
X0104466Y0077557D01*
X0103760Y0076559D02*
X0106400Y0076559D01*
X0103760Y0076559D01*
X0106400Y0076559D01*
X0103760Y0076559D01*
X0104170Y0075560D02*
X0106400Y0075560D01*
X0104170Y0075560D01*
X0106400Y0075560D01*
X0104170Y0075560D01*
X0105168Y0074562D02*
X0106400Y0074562D01*
X0105168Y0074562D01*
X0106400Y0074562D01*
X0105168Y0074562D01*
X0105586Y0073563D02*
X0106400Y0073563D01*
X0105586Y0073563D01*
X0106400Y0073563D01*
X0105586Y0073563D01*
X0105781Y0072565D02*
X0106400Y0072565D01*
X0105781Y0072565D01*
X0106400Y0072565D01*
X0105781Y0072565D01*
X0105781Y0071566D02*
X0106400Y0071566D01*
X0105781Y0071566D01*
X0106400Y0071566D01*
X0105781Y0071566D01*
X0105392Y0070568D02*
X0106400Y0070568D01*
X0105392Y0070568D01*
X0106400Y0070568D01*
X0105392Y0070568D01*
X0104700Y0069569D02*
X0106400Y0069569D01*
X0104700Y0069569D01*
X0106400Y0069569D01*
X0104700Y0069569D01*
X0104700Y0068571D02*
X0106400Y0068571D01*
X0104700Y0068571D01*
X0106400Y0068571D01*
X0104700Y0068571D01*
X0104700Y0067572D02*
X0106400Y0067572D01*
X0104700Y0067572D01*
X0106400Y0067572D01*
X0104700Y0067572D01*
X0104700Y0066574D02*
X0106400Y0066574D01*
X0104700Y0066574D01*
X0106400Y0066574D01*
X0104700Y0066574D01*
X0104700Y0065575D02*
X0106400Y0065575D01*
X0104700Y0065575D01*
X0106400Y0065575D01*
X0104700Y0065575D01*
X0104700Y0064577D02*
X0106400Y0064577D01*
X0104700Y0064577D01*
X0106400Y0064577D01*
X0104700Y0064577D01*
X0104700Y0063578D02*
X0106400Y0063578D01*
X0104700Y0063578D01*
X0106400Y0063578D01*
X0104700Y0063578D01*
X0104700Y0062580D02*
X0106400Y0062580D01*
X0104700Y0062580D01*
X0106400Y0062580D01*
X0104700Y0062580D01*
X0104700Y0061581D02*
X0106400Y0061581D01*
X0104700Y0061581D01*
X0106400Y0061581D01*
X0104700Y0061581D01*
X0104700Y0060583D02*
X0106400Y0060583D01*
X0104700Y0060583D01*
X0106400Y0060583D01*
X0104700Y0060583D01*
X0104700Y0059584D02*
X0106400Y0059584D01*
X0104700Y0059584D01*
X0106400Y0059584D01*
X0104700Y0059584D01*
X0104700Y0058586D02*
X0106400Y0058586D01*
X0104700Y0058586D01*
X0106400Y0058586D01*
X0104700Y0058586D01*
X0104700Y0057587D02*
X0106400Y0057587D01*
X0104700Y0057587D01*
X0106400Y0057587D01*
X0104700Y0057587D01*
X0104700Y0056589D02*
X0106400Y0056589D01*
X0104700Y0056589D01*
X0106400Y0056589D01*
X0104700Y0056589D01*
X0104700Y0055590D02*
X0106400Y0055590D01*
X0104700Y0055590D01*
X0106400Y0055590D01*
X0104700Y0055590D01*
X0104700Y0054592D02*
X0106400Y0054592D01*
X0104700Y0054592D01*
X0106400Y0054592D01*
X0104700Y0054592D01*
X0104700Y0053593D02*
X0106400Y0053593D01*
X0104700Y0053593D01*
X0106400Y0053593D01*
X0104700Y0053593D01*
X0104700Y0052595D02*
X0106400Y0052595D01*
X0104700Y0052595D01*
X0106400Y0052595D01*
X0104700Y0052595D01*
X0104700Y0051596D02*
X0106400Y0051596D01*
X0104700Y0051596D01*
X0106400Y0051596D01*
X0104700Y0051596D01*
X0104700Y0050598D02*
X0106400Y0050598D01*
X0104700Y0050598D01*
X0106400Y0050598D01*
X0104700Y0050598D01*
X0104700Y0049599D02*
X0106400Y0049599D01*
X0104700Y0049599D01*
X0106400Y0049599D01*
X0104700Y0049599D01*
X0104700Y0048601D02*
X0106400Y0048601D01*
X0104700Y0048601D01*
X0106400Y0048601D01*
X0104700Y0048601D01*
X0104700Y0047602D02*
X0106400Y0047602D01*
X0104700Y0047602D01*
X0106400Y0047602D01*
X0104700Y0047602D01*
X0104700Y0046603D02*
X0106400Y0046603D01*
X0104700Y0046603D01*
X0106400Y0046603D01*
X0104700Y0046603D01*
X0104700Y0045605D02*
X0106400Y0045605D01*
X0104700Y0045605D01*
X0106400Y0045605D01*
X0104700Y0045605D01*
X0104700Y0044606D02*
X0106400Y0044606D01*
X0104700Y0044606D01*
X0106400Y0044606D01*
X0104700Y0044606D01*
X0104700Y0043608D02*
X0106400Y0043608D01*
X0104700Y0043608D01*
X0106400Y0043608D01*
X0104700Y0043608D01*
X0104700Y0042609D02*
X0106400Y0042609D01*
X0104700Y0042609D01*
X0106400Y0042609D01*
X0104700Y0042609D01*
X0105150Y0041611D02*
X0106400Y0041611D01*
X0105150Y0041611D01*
X0106400Y0041611D01*
X0105150Y0041611D01*
X0105150Y0040612D02*
X0106400Y0040612D01*
X0105150Y0040612D01*
X0106400Y0040612D01*
X0105150Y0040612D01*
X0105150Y0039614D02*
X0106400Y0039614D01*
X0105150Y0039614D01*
X0106400Y0039614D01*
X0105150Y0039614D01*
X0105150Y0038615D02*
X0106400Y0038615D01*
X0105150Y0038615D01*
X0106400Y0038615D01*
X0105150Y0038615D01*
X0105150Y0037617D02*
X0106400Y0037617D01*
X0105150Y0037617D01*
X0106400Y0037617D01*
X0105150Y0037617D01*
X0105150Y0036618D02*
X0105744Y0036618D01*
X0105150Y0036618D01*
X0105744Y0036618D01*
X0105150Y0036618D01*
X0105150Y0035620D02*
X0105330Y0035620D01*
X0105150Y0035620D01*
X0105330Y0035620D01*
X0105150Y0035620D01*
X0105017Y0034621D02*
X0105020Y0034621D01*
X0105017Y0034621D01*
X0105020Y0034621D01*
X0105017Y0034621D01*
X0111736Y0025635D02*
X0117201Y0025635D01*
X0111736Y0025635D01*
X0117201Y0025635D01*
X0111736Y0025635D01*
X0112734Y0026633D02*
X0117201Y0026633D01*
X0112734Y0026633D01*
X0117201Y0026633D01*
X0112734Y0026633D01*
X0113733Y0027632D02*
X0117201Y0027632D01*
X0113733Y0027632D01*
X0117201Y0027632D01*
X0113733Y0027632D01*
X0114732Y0028630D02*
X0117201Y0028630D01*
X0114732Y0028630D01*
X0117201Y0028630D01*
X0114732Y0028630D01*
X0115730Y0029629D02*
X0117201Y0029629D01*
X0115730Y0029629D01*
X0117201Y0029629D01*
X0115730Y0029629D01*
X0116729Y0030627D02*
X0117201Y0030627D01*
X0116729Y0030627D01*
X0117201Y0030627D01*
X0116729Y0030627D01*
X0117160Y0031626D02*
X0117201Y0031626D01*
X0117160Y0031626D01*
X0117201Y0031626D01*
X0117160Y0031626D01*
X0117200Y0032624D02*
X0117201Y0032624D01*
X0117200Y0032624D01*
X0117201Y0032624D01*
X0117200Y0032624D01*
X0117200Y0033623D02*
X0117201Y0033623D01*
X0117200Y0033623D01*
X0117201Y0033623D01*
X0117200Y0033623D01*
X0117200Y0034621D02*
X0117201Y0034621D01*
X0117200Y0034621D01*
X0117201Y0034621D01*
X0117200Y0034621D01*
X0117200Y0035620D02*
X0117201Y0035620D01*
X0117200Y0035620D01*
X0117201Y0035620D01*
X0117200Y0035620D01*
X0117200Y0036618D02*
X0117201Y0036618D01*
X0117200Y0036618D01*
X0117201Y0036618D01*
X0117200Y0036618D01*
X0117200Y0037617D02*
X0117201Y0037617D01*
X0117200Y0037617D01*
X0117201Y0037617D01*
X0117200Y0037617D01*
X0117200Y0038615D02*
X0117201Y0038615D01*
X0117200Y0038615D01*
X0117201Y0038615D01*
X0117200Y0038615D01*
X0117200Y0039614D02*
X0117201Y0039614D01*
X0117200Y0039614D01*
X0117201Y0039614D01*
X0117200Y0039614D01*
X0117200Y0040612D02*
X0117201Y0040612D01*
X0117200Y0040612D01*
X0117201Y0040612D01*
X0117200Y0040612D01*
X0117200Y0041611D02*
X0117201Y0041611D01*
X0117200Y0041611D01*
X0117201Y0041611D01*
X0117200Y0041611D01*
X0117200Y0042609D02*
X0117201Y0042609D01*
X0117200Y0042609D01*
X0117201Y0042609D01*
X0117200Y0042609D01*
X0117200Y0043608D02*
X0117201Y0043608D01*
X0117200Y0043608D01*
X0117201Y0043608D01*
X0117200Y0043608D01*
X0117200Y0044606D02*
X0117201Y0044606D01*
X0117200Y0044606D01*
X0117201Y0044606D01*
X0117200Y0044606D01*
X0117200Y0045605D02*
X0117201Y0045605D01*
X0117200Y0045605D01*
X0117201Y0045605D01*
X0117200Y0045605D01*
X0117200Y0046603D02*
X0117201Y0046603D01*
X0117200Y0046603D01*
X0117201Y0046603D01*
X0117200Y0046603D01*
X0117200Y0047602D02*
X0117201Y0047602D01*
X0117200Y0047602D01*
X0117201Y0047602D01*
X0117200Y0047602D01*
X0117200Y0048601D02*
X0117201Y0048601D01*
X0117200Y0048601D01*
X0117201Y0048601D01*
X0117200Y0048601D01*
X0117200Y0049599D02*
X0117201Y0049599D01*
X0117200Y0049599D01*
X0117201Y0049599D01*
X0117200Y0049599D01*
X0117200Y0050598D02*
X0117201Y0050598D01*
X0117200Y0050598D01*
X0117201Y0050598D01*
X0117200Y0050598D01*
X0117200Y0051596D02*
X0117201Y0051596D01*
X0117200Y0051596D01*
X0117201Y0051596D01*
X0117200Y0051596D01*
X0117200Y0052595D02*
X0117201Y0052595D01*
X0117200Y0052595D01*
X0117201Y0052595D01*
X0117200Y0052595D01*
X0117200Y0053593D02*
X0117201Y0053593D01*
X0117200Y0053593D01*
X0117201Y0053593D01*
X0117200Y0053593D01*
X0117200Y0054592D02*
X0117201Y0054592D01*
X0117200Y0054592D01*
X0117201Y0054592D01*
X0117200Y0054592D01*
X0117200Y0055590D02*
X0117201Y0055590D01*
X0117200Y0055590D01*
X0117201Y0055590D01*
X0117200Y0055590D01*
X0117200Y0056589D02*
X0117201Y0056589D01*
X0117200Y0056589D01*
X0117201Y0056589D01*
X0117200Y0056589D01*
X0117200Y0057587D02*
X0117201Y0057587D01*
X0117200Y0057587D01*
X0117201Y0057587D01*
X0117200Y0057587D01*
X0117200Y0058586D02*
X0117201Y0058586D01*
X0117200Y0058586D01*
X0117201Y0058586D01*
X0117200Y0058586D01*
X0117200Y0059584D02*
X0117201Y0059584D01*
X0117200Y0059584D01*
X0117201Y0059584D01*
X0117200Y0059584D01*
X0117200Y0060583D02*
X0117201Y0060583D01*
X0117200Y0060583D01*
X0117201Y0060583D01*
X0117200Y0060583D01*
X0117200Y0061581D02*
X0117201Y0061581D01*
X0117200Y0061581D01*
X0117201Y0061581D01*
X0117200Y0061581D01*
X0117200Y0062580D02*
X0117201Y0062580D01*
X0117200Y0062580D01*
X0117201Y0062580D01*
X0117200Y0062580D01*
X0117200Y0063578D02*
X0117201Y0063578D01*
X0117200Y0063578D01*
X0117201Y0063578D01*
X0117200Y0063578D01*
X0117200Y0064577D02*
X0117201Y0064577D01*
X0117200Y0064577D01*
X0117201Y0064577D01*
X0117200Y0064577D01*
X0117200Y0065575D02*
X0117201Y0065575D01*
X0117200Y0065575D01*
X0117201Y0065575D01*
X0117200Y0065575D01*
X0117200Y0066574D02*
X0117201Y0066574D01*
X0117200Y0066574D01*
X0117201Y0066574D01*
X0117200Y0066574D01*
X0117200Y0067572D02*
X0117201Y0067572D01*
X0117200Y0067572D01*
X0117201Y0067572D01*
X0117200Y0067572D01*
X0117200Y0068571D02*
X0117201Y0068571D01*
X0117200Y0068571D01*
X0117201Y0068571D01*
X0117200Y0068571D01*
X0117200Y0069569D02*
X0117201Y0069569D01*
X0117200Y0069569D01*
X0117201Y0069569D01*
X0117200Y0069569D01*
X0117200Y0070568D02*
X0117201Y0070568D01*
X0117200Y0070568D01*
X0117201Y0070568D01*
X0117200Y0070568D01*
X0117200Y0071566D02*
X0117201Y0071566D01*
X0117200Y0071566D01*
X0117201Y0071566D01*
X0117200Y0071566D01*
X0117180Y0082550D02*
X0117201Y0082550D01*
X0117180Y0082550D01*
X0117201Y0082550D01*
X0117180Y0082550D01*
X0117201Y0083548D02*
X0115654Y0083548D01*
X0117201Y0083548D01*
X0115654Y0083548D01*
X0117201Y0083548D01*
X0098900Y0083548D02*
X0096916Y0083548D01*
X0098900Y0083548D01*
X0096916Y0083548D01*
X0098900Y0083548D01*
X0098900Y0082550D02*
X0097914Y0082550D01*
X0098900Y0082550D01*
X0097914Y0082550D01*
X0098900Y0082550D01*
X0098800Y0081664D02*
X0096164Y0084300D01*
X0094800Y0084300D01*
X0094800Y0080300D01*
X0093800Y0080300D01*
X0093800Y0084300D01*
X0092436Y0084300D01*
X0092200Y0084064D01*
X0092200Y0085313D01*
X0092813Y0084700D01*
X0097037Y0084700D01*
X0098900Y0086563D01*
X0098900Y0080001D01*
X0098199Y0079300D01*
X0094800Y0079300D01*
X0094800Y0080300D01*
X0098800Y0080300D01*
X0098800Y0081664D01*
X0096164Y0084300D01*
X0094800Y0084300D01*
X0094800Y0080300D01*
X0093800Y0080300D01*
X0093800Y0084300D01*
X0092436Y0084300D01*
X0092200Y0084064D01*
X0092200Y0085313D01*
X0092813Y0084700D01*
X0097037Y0084700D01*
X0098900Y0086563D01*
X0098900Y0080001D01*
X0098199Y0079300D01*
X0094800Y0079300D01*
X0094800Y0080300D01*
X0098800Y0080300D01*
X0098800Y0081664D01*
X0096164Y0084300D01*
X0094800Y0084300D01*
X0094800Y0080300D01*
X0093800Y0080300D01*
X0093800Y0084300D01*
X0092436Y0084300D01*
X0092200Y0084064D01*
X0092200Y0085313D01*
X0092813Y0084700D01*
X0097037Y0084700D01*
X0098900Y0086563D01*
X0098900Y0080001D01*
X0098199Y0079300D01*
X0094800Y0079300D01*
X0094800Y0080300D01*
X0098800Y0080300D01*
X0098800Y0081664D01*
X0096164Y0084300D01*
X0094800Y0084300D01*
X0094800Y0080300D01*
X0093800Y0080300D01*
X0093800Y0084300D01*
X0092436Y0084300D01*
X0092200Y0084064D01*
X0092200Y0085313D01*
X0092813Y0084700D01*
X0097037Y0084700D01*
X0098900Y0086563D01*
X0098900Y0080001D01*
X0098199Y0079300D01*
X0094800Y0079300D01*
X0094800Y0080300D01*
X0098800Y0080300D01*
X0098800Y0081664D01*
X0098800Y0081551D02*
X0098900Y0081551D01*
X0098800Y0081551D01*
X0098900Y0081551D01*
X0098800Y0081551D01*
X0098800Y0080553D02*
X0098900Y0080553D01*
X0098800Y0080553D01*
X0098900Y0080553D01*
X0098800Y0080553D01*
X0098453Y0079554D02*
X0094800Y0079554D01*
X0098453Y0079554D01*
X0094800Y0079554D01*
X0098453Y0079554D01*
X0094800Y0079300D02*
X0094800Y0075901D01*
X0093799Y0074900D01*
X0092813Y0074900D01*
X0092200Y0074287D01*
X0092200Y0075536D01*
X0092436Y0075300D01*
X0093800Y0075300D01*
X0093800Y0079300D01*
X0094800Y0079300D01*
X0094800Y0075901D01*
X0093799Y0074900D01*
X0092813Y0074900D01*
X0092200Y0074287D01*
X0092200Y0075536D01*
X0092436Y0075300D01*
X0093800Y0075300D01*
X0093800Y0079300D01*
X0094800Y0079300D01*
X0094800Y0075901D01*
X0093799Y0074900D01*
X0092813Y0074900D01*
X0092200Y0074287D01*
X0092200Y0075536D01*
X0092436Y0075300D01*
X0093800Y0075300D01*
X0093800Y0079300D01*
X0094800Y0079300D01*
X0094800Y0075901D01*
X0093799Y0074900D01*
X0092813Y0074900D01*
X0092200Y0074287D01*
X0092200Y0075536D01*
X0092436Y0075300D01*
X0093800Y0075300D01*
X0093800Y0079300D01*
X0094800Y0079300D01*
X0094800Y0078556D02*
X0093800Y0078556D01*
X0094800Y0078556D01*
X0093800Y0078556D01*
X0094800Y0078556D01*
X0094800Y0077557D02*
X0093800Y0077557D01*
X0094800Y0077557D01*
X0093800Y0077557D01*
X0094800Y0077557D01*
X0094800Y0076559D02*
X0093800Y0076559D01*
X0094800Y0076559D01*
X0093800Y0076559D01*
X0094800Y0076559D01*
X0094459Y0075560D02*
X0093800Y0075560D01*
X0094459Y0075560D01*
X0093800Y0075560D01*
X0094459Y0075560D01*
X0092474Y0074562D02*
X0092200Y0074562D01*
X0092474Y0074562D01*
X0092200Y0074562D01*
X0092474Y0074562D01*
X0093800Y0080553D02*
X0094800Y0080553D01*
X0093800Y0080553D01*
X0094800Y0080553D01*
X0093800Y0080553D01*
X0093800Y0081551D02*
X0094800Y0081551D01*
X0093800Y0081551D01*
X0094800Y0081551D01*
X0093800Y0081551D01*
X0093800Y0082550D02*
X0094800Y0082550D01*
X0093800Y0082550D01*
X0094800Y0082550D01*
X0093800Y0082550D01*
X0093800Y0083548D02*
X0094800Y0083548D01*
X0093800Y0083548D01*
X0094800Y0083548D01*
X0093800Y0083548D01*
X0092200Y0084547D02*
X0098900Y0084547D01*
X0092200Y0084547D01*
X0098900Y0084547D01*
X0092200Y0084547D01*
X0097883Y0085545D02*
X0098900Y0085545D01*
X0097883Y0085545D01*
X0098900Y0085545D01*
X0097883Y0085545D01*
X0098881Y0086544D02*
X0098900Y0086544D01*
X0098881Y0086544D01*
X0098900Y0086544D01*
X0098881Y0086544D01*
X0086400Y0073563D02*
X0078118Y0073563D01*
X0086400Y0073563D01*
X0078118Y0073563D01*
X0086400Y0073563D01*
X0086400Y0072565D02*
X0079665Y0072565D01*
X0086400Y0072565D01*
X0079665Y0072565D01*
X0086400Y0072565D01*
X0086400Y0071566D02*
X0080377Y0071566D01*
X0086400Y0071566D01*
X0080377Y0071566D01*
X0086400Y0071566D01*
X0086400Y0070568D02*
X0080781Y0070568D01*
X0086400Y0070568D01*
X0080781Y0070568D01*
X0086400Y0070568D01*
X0086400Y0069569D02*
X0081132Y0069569D01*
X0086400Y0069569D01*
X0081132Y0069569D01*
X0086400Y0069569D01*
X0086400Y0068571D02*
X0081913Y0068571D01*
X0086400Y0068571D01*
X0081913Y0068571D01*
X0086400Y0068571D01*
X0086400Y0067572D02*
X0082200Y0067572D01*
X0086400Y0067572D01*
X0082200Y0067572D01*
X0086400Y0067572D01*
X0086400Y0066574D02*
X0082200Y0066574D01*
X0086400Y0066574D01*
X0082200Y0066574D01*
X0086400Y0066574D01*
X0086400Y0065575D02*
X0082200Y0065575D01*
X0086400Y0065575D01*
X0082200Y0065575D01*
X0086400Y0065575D01*
X0086400Y0064577D02*
X0082200Y0064577D01*
X0086400Y0064577D01*
X0082200Y0064577D01*
X0086400Y0064577D01*
X0086667Y0063578D02*
X0082200Y0063578D01*
X0086667Y0063578D01*
X0082200Y0063578D01*
X0086667Y0063578D01*
X0087419Y0062580D02*
X0082200Y0062580D01*
X0087419Y0062580D01*
X0082200Y0062580D01*
X0087419Y0062580D01*
X0088418Y0061581D02*
X0082200Y0061581D01*
X0088418Y0061581D01*
X0082200Y0061581D01*
X0088418Y0061581D01*
X0089200Y0060583D02*
X0082200Y0060583D01*
X0089200Y0060583D01*
X0082200Y0060583D01*
X0089200Y0060583D01*
X0089200Y0059584D02*
X0082200Y0059584D01*
X0089200Y0059584D01*
X0082200Y0059584D01*
X0089200Y0059584D01*
X0089200Y0058586D02*
X0081936Y0058586D01*
X0089200Y0058586D01*
X0081936Y0058586D01*
X0089200Y0058586D01*
X0089300Y0057587D02*
X0081188Y0057587D01*
X0089300Y0057587D01*
X0081188Y0057587D01*
X0089300Y0057587D01*
X0090299Y0056589D02*
X0080157Y0056589D01*
X0090299Y0056589D01*
X0080157Y0056589D01*
X0090299Y0056589D01*
X0091297Y0055590D02*
X0086640Y0055590D01*
X0091297Y0055590D01*
X0086640Y0055590D01*
X0091297Y0055590D01*
X0092504Y0054592D02*
X0087639Y0054592D01*
X0092504Y0054592D01*
X0087639Y0054592D01*
X0092504Y0054592D01*
X0091506Y0053593D02*
X0088073Y0053593D01*
X0091506Y0053593D01*
X0088073Y0053593D01*
X0091506Y0053593D01*
X0090507Y0052595D02*
X0088281Y0052595D01*
X0090507Y0052595D01*
X0088281Y0052595D01*
X0090507Y0052595D01*
X0089825Y0051596D02*
X0088281Y0051596D01*
X0089825Y0051596D01*
X0088281Y0051596D01*
X0089825Y0051596D01*
X0089825Y0050598D02*
X0087904Y0050598D01*
X0089825Y0050598D01*
X0087904Y0050598D01*
X0089825Y0050598D01*
X0089825Y0049599D02*
X0087631Y0049599D01*
X0089825Y0049599D01*
X0087631Y0049599D01*
X0089825Y0049599D01*
X0089825Y0048601D02*
X0088070Y0048601D01*
X0089825Y0048601D01*
X0088070Y0048601D01*
X0089825Y0048601D01*
X0089911Y0047602D02*
X0088281Y0047602D01*
X0089911Y0047602D01*
X0088281Y0047602D01*
X0089911Y0047602D01*
X0090909Y0046603D02*
X0088281Y0046603D01*
X0090909Y0046603D01*
X0088281Y0046603D01*
X0090909Y0046603D01*
X0091908Y0045605D02*
X0087907Y0045605D01*
X0091908Y0045605D01*
X0087907Y0045605D01*
X0091908Y0045605D01*
X0087237Y0044606D02*
X0098900Y0044606D01*
X0087237Y0044606D01*
X0098900Y0044606D01*
X0087237Y0044606D01*
X0085790Y0043608D02*
X0098900Y0043608D01*
X0085790Y0043608D01*
X0098900Y0043608D01*
X0085790Y0043608D01*
X0086550Y0041611D02*
X0084902Y0041611D01*
X0086550Y0041611D01*
X0084902Y0041611D01*
X0086550Y0041611D01*
X0086550Y0040612D02*
X0085900Y0040612D01*
X0086550Y0040612D01*
X0085900Y0040612D01*
X0086550Y0040612D01*
X0086683Y0034621D02*
X0086334Y0034621D01*
X0086683Y0034621D01*
X0086334Y0034621D01*
X0086683Y0034621D01*
X0086550Y0033623D02*
X0085335Y0033623D01*
X0086550Y0033623D01*
X0085335Y0033623D01*
X0086550Y0033623D01*
X0086550Y0032624D02*
X0084337Y0032624D01*
X0086550Y0032624D01*
X0084337Y0032624D01*
X0086550Y0032624D01*
X0086550Y0027632D02*
X0073850Y0027632D01*
X0086550Y0027632D01*
X0073850Y0027632D01*
X0086550Y0027632D01*
X0087548Y0026633D02*
X0074610Y0026633D01*
X0087548Y0026633D01*
X0074610Y0026633D01*
X0087548Y0026633D01*
X0089364Y0025635D02*
X0074610Y0025635D01*
X0089364Y0025635D01*
X0074610Y0025635D01*
X0089364Y0025635D01*
X0090363Y0024636D02*
X0074610Y0024636D01*
X0090363Y0024636D01*
X0074610Y0024636D01*
X0090363Y0024636D01*
X0091361Y0023638D02*
X0074610Y0023638D01*
X0091361Y0023638D01*
X0074610Y0023638D01*
X0091361Y0023638D01*
X0092360Y0022639D02*
X0074610Y0022639D01*
X0092360Y0022639D01*
X0074610Y0022639D01*
X0092360Y0022639D01*
X0089979Y0016698D02*
X0089597Y0016800D01*
X0086900Y0016800D01*
X0086900Y0012800D01*
X0085900Y0012800D01*
X0085900Y0016800D01*
X0083203Y0016800D01*
X0082821Y0016698D01*
X0082479Y0016500D01*
X0082200Y0016221D01*
X0082002Y0015879D01*
X0081900Y0015497D01*
X0081900Y0012800D01*
X0085900Y0012800D01*
X0085900Y0016800D01*
X0083203Y0016800D01*
X0082821Y0016698D01*
X0082479Y0016500D01*
X0082200Y0016221D01*
X0082002Y0015879D01*
X0081900Y0015497D01*
X0081900Y0012800D01*
X0085900Y0012800D01*
X0086900Y0012800D01*
X0090900Y0012800D01*
X0090900Y0015497D01*
X0090798Y0015879D01*
X0090600Y0016221D01*
X0090321Y0016500D01*
X0089979Y0016698D01*
X0089597Y0016800D01*
X0086900Y0016800D01*
X0086900Y0012800D01*
X0086900Y0011800D01*
X0090900Y0011800D01*
X0090900Y0009103D01*
X0090798Y0008721D01*
X0090600Y0008379D01*
X0090321Y0008100D01*
X0089979Y0007902D01*
X0089597Y0007800D01*
X0086900Y0007800D01*
X0086900Y0011800D01*
X0086900Y0012800D01*
X0090900Y0012800D01*
X0090900Y0015497D01*
X0090798Y0015879D01*
X0090600Y0016221D01*
X0090321Y0016500D01*
X0089979Y0016698D01*
X0089597Y0016800D01*
X0086900Y0016800D01*
X0086900Y0012800D01*
X0085900Y0012800D01*
X0085900Y0016800D01*
X0083203Y0016800D01*
X0082821Y0016698D01*
X0082479Y0016500D01*
X0082200Y0016221D01*
X0082002Y0015879D01*
X0081900Y0015497D01*
X0081900Y0012800D01*
X0085900Y0012800D01*
X0085900Y0016800D01*
X0083203Y0016800D01*
X0082821Y0016698D01*
X0082479Y0016500D01*
X0082200Y0016221D01*
X0082002Y0015879D01*
X0081900Y0015497D01*
X0081900Y0012800D01*
X0085900Y0012800D01*
X0086900Y0012800D01*
X0090900Y0012800D01*
X0090900Y0015497D01*
X0090798Y0015879D01*
X0090600Y0016221D01*
X0090321Y0016500D01*
X0089979Y0016698D01*
X0089597Y0016800D01*
X0086900Y0016800D01*
X0086900Y0012800D01*
X0086900Y0011800D01*
X0090900Y0011800D01*
X0090900Y0009103D01*
X0090798Y0008721D01*
X0090600Y0008379D01*
X0090321Y0008100D01*
X0089979Y0007902D01*
X0089597Y0007800D01*
X0086900Y0007800D01*
X0086900Y0011800D01*
X0090900Y0011800D01*
X0090900Y0009103D01*
X0090798Y0008721D01*
X0090600Y0008379D01*
X0090321Y0008100D01*
X0089979Y0007902D01*
X0089597Y0007800D01*
X0086900Y0007800D01*
X0086900Y0011800D01*
X0086900Y0012800D01*
X0090900Y0012800D01*
X0090900Y0015497D01*
X0090798Y0015879D01*
X0090600Y0016221D01*
X0090321Y0016500D01*
X0089979Y0016698D01*
X0090065Y0016648D02*
X0101200Y0016648D01*
X0090065Y0016648D01*
X0101200Y0016648D01*
X0090065Y0016648D01*
X0090859Y0015650D02*
X0100640Y0015650D01*
X0090859Y0015650D01*
X0100640Y0015650D01*
X0090859Y0015650D01*
X0090900Y0014651D02*
X0100226Y0014651D01*
X0090900Y0014651D01*
X0100226Y0014651D01*
X0090900Y0014651D01*
X0090900Y0013653D02*
X0100119Y0013653D01*
X0090900Y0013653D01*
X0100119Y0013653D01*
X0090900Y0013653D01*
X0090900Y0011800D02*
X0086900Y0011800D01*
X0085900Y0011800D01*
X0081900Y0011800D01*
X0081900Y0009103D01*
X0082002Y0008721D01*
X0082200Y0008379D01*
X0082479Y0008100D01*
X0082821Y0007902D01*
X0083203Y0007800D01*
X0085900Y0007800D01*
X0085900Y0011800D01*
X0085900Y0012800D01*
X0085900Y0011800D01*
X0081900Y0011800D01*
X0081900Y0009103D01*
X0082002Y0008721D01*
X0082200Y0008379D01*
X0082479Y0008100D01*
X0082821Y0007902D01*
X0083203Y0007800D01*
X0085900Y0007800D01*
X0085900Y0011800D01*
X0086900Y0011800D01*
X0085900Y0011800D01*
X0081900Y0011800D01*
X0081900Y0009103D01*
X0082002Y0008721D01*
X0082200Y0008379D01*
X0082479Y0008100D01*
X0082821Y0007902D01*
X0083203Y0007800D01*
X0085900Y0007800D01*
X0085900Y0011800D01*
X0085900Y0012800D01*
X0085900Y0011800D01*
X0081900Y0011800D01*
X0081900Y0009103D01*
X0082002Y0008721D01*
X0082200Y0008379D01*
X0082479Y0008100D01*
X0082821Y0007902D01*
X0083203Y0007800D01*
X0085900Y0007800D01*
X0085900Y0011800D01*
X0086900Y0011800D01*
X0086900Y0007800D01*
X0089597Y0007800D01*
X0089979Y0007902D01*
X0090321Y0008100D01*
X0090600Y0008379D01*
X0090798Y0008721D01*
X0090900Y0009103D01*
X0090900Y0011800D01*
X0090900Y0011656D02*
X0100596Y0011656D01*
X0090900Y0011656D01*
X0100596Y0011656D01*
X0090900Y0011656D01*
X0090900Y0010657D02*
X0101413Y0010657D01*
X0090900Y0010657D01*
X0101413Y0010657D01*
X0090900Y0010657D01*
X0090900Y0009659D02*
X0103212Y0009659D01*
X0090900Y0009659D01*
X0103212Y0009659D01*
X0090900Y0009659D01*
X0090763Y0008660D02*
X0117201Y0008660D01*
X0090763Y0008660D01*
X0117201Y0008660D01*
X0090763Y0008660D01*
X0086900Y0008660D02*
X0085900Y0008660D01*
X0086900Y0008660D01*
X0085900Y0008660D01*
X0086900Y0008660D01*
X0086900Y0009659D02*
X0085900Y0009659D01*
X0086900Y0009659D01*
X0085900Y0009659D01*
X0086900Y0009659D01*
X0086900Y0010657D02*
X0085900Y0010657D01*
X0086900Y0010657D01*
X0085900Y0010657D01*
X0086900Y0010657D01*
X0086900Y0011656D02*
X0085900Y0011656D01*
X0086900Y0011656D01*
X0085900Y0011656D01*
X0086900Y0011656D01*
X0086900Y0012654D02*
X0100183Y0012654D01*
X0086900Y0012654D01*
X0100183Y0012654D01*
X0086900Y0012654D01*
X0086900Y0013653D02*
X0085900Y0013653D01*
X0086900Y0013653D01*
X0085900Y0013653D01*
X0086900Y0013653D01*
X0086900Y0014651D02*
X0085900Y0014651D01*
X0086900Y0014651D01*
X0085900Y0014651D01*
X0086900Y0014651D01*
X0086900Y0015650D02*
X0085900Y0015650D01*
X0086900Y0015650D01*
X0085900Y0015650D01*
X0086900Y0015650D01*
X0086900Y0016648D02*
X0085900Y0016648D01*
X0086900Y0016648D01*
X0085900Y0016648D01*
X0086900Y0016648D01*
X0085900Y0012654D02*
X0077365Y0012654D01*
X0085900Y0012654D01*
X0077365Y0012654D01*
X0085900Y0012654D01*
X0082735Y0016648D02*
X0077217Y0016648D01*
X0082735Y0016648D01*
X0077217Y0016648D01*
X0082735Y0016648D01*
X0081941Y0015650D02*
X0077365Y0015650D01*
X0081941Y0015650D01*
X0077365Y0015650D01*
X0081941Y0015650D01*
X0081900Y0014651D02*
X0077365Y0014651D01*
X0081900Y0014651D01*
X0077365Y0014651D01*
X0081900Y0014651D01*
X0081900Y0013653D02*
X0077365Y0013653D01*
X0081900Y0013653D01*
X0077365Y0013653D01*
X0081900Y0013653D01*
X0081900Y0011656D02*
X0077365Y0011656D01*
X0081900Y0011656D01*
X0077365Y0011656D01*
X0081900Y0011656D01*
X0081900Y0010657D02*
X0077365Y0010657D01*
X0081900Y0010657D01*
X0077365Y0010657D01*
X0081900Y0010657D01*
X0081900Y0009659D02*
X0077365Y0009659D01*
X0081900Y0009659D01*
X0077365Y0009659D01*
X0081900Y0009659D01*
X0082037Y0008660D02*
X0077365Y0008660D01*
X0082037Y0008660D01*
X0077365Y0008660D01*
X0082037Y0008660D01*
X0077365Y0007662D02*
X0117201Y0007662D01*
X0077365Y0007662D01*
X0117201Y0007662D01*
X0077365Y0007662D01*
X0076218Y0017647D02*
X0101200Y0017647D01*
X0076218Y0017647D01*
X0101200Y0017647D01*
X0076218Y0017647D01*
X0073846Y0019644D02*
X0101200Y0019644D01*
X0073846Y0019644D01*
X0101200Y0019644D01*
X0073846Y0019644D01*
X0073380Y0019178D02*
X0074610Y0020408D01*
X0074610Y0026872D01*
X0073380Y0028102D01*
X0066916Y0028102D01*
X0065686Y0026872D01*
X0065686Y0020408D01*
X0066916Y0019178D01*
X0073380Y0019178D01*
X0074610Y0020408D01*
X0074610Y0026872D01*
X0073380Y0028102D01*
X0066916Y0028102D01*
X0065686Y0026872D01*
X0065686Y0020408D01*
X0066916Y0019178D01*
X0073380Y0019178D01*
X0074610Y0020408D01*
X0074610Y0026872D01*
X0073380Y0028102D01*
X0066916Y0028102D01*
X0065686Y0026872D01*
X0065686Y0020408D01*
X0066916Y0019178D01*
X0073380Y0019178D01*
X0074610Y0020408D01*
X0074610Y0026872D01*
X0073380Y0028102D01*
X0066916Y0028102D01*
X0065686Y0026872D01*
X0065686Y0020408D01*
X0066916Y0019178D01*
X0073380Y0019178D01*
X0074610Y0020642D02*
X0101200Y0020642D01*
X0074610Y0020642D01*
X0101200Y0020642D01*
X0074610Y0020642D01*
X0074610Y0021641D02*
X0101200Y0021641D01*
X0074610Y0021641D01*
X0101200Y0021641D01*
X0074610Y0021641D01*
X0066450Y0019644D02*
X0058558Y0019644D01*
X0066450Y0019644D01*
X0058558Y0019644D01*
X0066450Y0019644D01*
X0065686Y0020642D02*
X0057299Y0020642D01*
X0065686Y0020642D01*
X0057299Y0020642D01*
X0065686Y0020642D01*
X0065686Y0021641D02*
X0055501Y0021641D01*
X0065686Y0021641D01*
X0055501Y0021641D01*
X0065686Y0021641D01*
X0065686Y0022639D02*
X0055501Y0022639D01*
X0065686Y0022639D01*
X0055501Y0022639D01*
X0065686Y0022639D01*
X0065686Y0023638D02*
X0055501Y0023638D01*
X0065686Y0023638D01*
X0055501Y0023638D01*
X0065686Y0023638D01*
X0065686Y0024636D02*
X0055501Y0024636D01*
X0065686Y0024636D01*
X0055501Y0024636D01*
X0065686Y0024636D01*
X0065686Y0025635D02*
X0055501Y0025635D01*
X0065686Y0025635D01*
X0055501Y0025635D01*
X0065686Y0025635D01*
X0065686Y0026633D02*
X0055501Y0026633D01*
X0065686Y0026633D01*
X0055501Y0026633D01*
X0065686Y0026633D01*
X0066445Y0027632D02*
X0054741Y0027632D01*
X0066445Y0027632D01*
X0054741Y0027632D01*
X0066445Y0027632D01*
X0064337Y0032624D02*
X0069463Y0032624D01*
X0064337Y0032624D01*
X0069463Y0032624D01*
X0064337Y0032624D01*
X0065335Y0033623D02*
X0068465Y0033623D01*
X0065335Y0033623D01*
X0068465Y0033623D01*
X0065335Y0033623D01*
X0066334Y0034621D02*
X0067466Y0034621D01*
X0066334Y0034621D01*
X0067466Y0034621D01*
X0066334Y0034621D01*
X0066899Y0039614D02*
X0066901Y0039614D01*
X0066899Y0039614D01*
X0066901Y0039614D01*
X0066899Y0039614D01*
X0065900Y0040612D02*
X0067900Y0040612D01*
X0065900Y0040612D01*
X0067900Y0040612D01*
X0065900Y0040612D01*
X0064902Y0041611D02*
X0068898Y0041611D01*
X0064902Y0041611D01*
X0068898Y0041611D01*
X0064902Y0041611D01*
X0058898Y0041611D02*
X0055803Y0041611D01*
X0058898Y0041611D01*
X0055803Y0041611D01*
X0058898Y0041611D01*
X0057900Y0040612D02*
X0056396Y0040612D01*
X0057900Y0040612D01*
X0056396Y0040612D01*
X0057900Y0040612D01*
X0056901Y0039614D02*
X0056400Y0039614D01*
X0056901Y0039614D01*
X0056400Y0039614D01*
X0056901Y0039614D01*
X0056800Y0038615D02*
X0056400Y0038615D01*
X0056800Y0038615D01*
X0056400Y0038615D01*
X0056800Y0038615D01*
X0056400Y0037900D02*
X0056400Y0040597D01*
X0056298Y0040979D01*
X0056100Y0041321D01*
X0055821Y0041600D01*
X0055479Y0041798D01*
X0055097Y0041900D01*
X0052400Y0041900D01*
X0052400Y0037900D01*
X0051400Y0037900D01*
X0051400Y0041900D01*
X0048703Y0041900D01*
X0048321Y0041798D01*
X0047979Y0041600D01*
X0047700Y0041321D01*
X0047502Y0040979D01*
X0047400Y0040597D01*
X0047400Y0037900D01*
X0051400Y0037900D01*
X0051400Y0041900D01*
X0048703Y0041900D01*
X0048321Y0041798D01*
X0047979Y0041600D01*
X0047700Y0041321D01*
X0047502Y0040979D01*
X0047400Y0040597D01*
X0047400Y0037900D01*
X0051400Y0037900D01*
X0052400Y0037900D01*
X0056400Y0037900D01*
X0056400Y0040597D01*
X0056298Y0040979D01*
X0056100Y0041321D01*
X0055821Y0041600D01*
X0055479Y0041798D01*
X0055097Y0041900D01*
X0052400Y0041900D01*
X0052400Y0037900D01*
X0052400Y0036900D01*
X0056400Y0036900D01*
X0056400Y0034203D01*
X0056298Y0033821D01*
X0056100Y0033479D01*
X0055821Y0033200D01*
X0055479Y0033002D01*
X0055097Y0032900D01*
X0052400Y0032900D01*
X0052400Y0036900D01*
X0052400Y0037900D01*
X0056400Y0037900D01*
X0056400Y0040597D01*
X0056298Y0040979D01*
X0056100Y0041321D01*
X0055821Y0041600D01*
X0055479Y0041798D01*
X0055097Y0041900D01*
X0052400Y0041900D01*
X0052400Y0037900D01*
X0051400Y0037900D01*
X0051400Y0041900D01*
X0048703Y0041900D01*
X0048321Y0041798D01*
X0047979Y0041600D01*
X0047700Y0041321D01*
X0047502Y0040979D01*
X0047400Y0040597D01*
X0047400Y0037900D01*
X0051400Y0037900D01*
X0051400Y0041900D01*
X0048703Y0041900D01*
X0048321Y0041798D01*
X0047979Y0041600D01*
X0047700Y0041321D01*
X0047502Y0040979D01*
X0047400Y0040597D01*
X0047400Y0037900D01*
X0051400Y0037900D01*
X0052400Y0037900D01*
X0056400Y0037900D01*
X0056400Y0040597D01*
X0056298Y0040979D01*
X0056100Y0041321D01*
X0055821Y0041600D01*
X0055479Y0041798D01*
X0055097Y0041900D01*
X0052400Y0041900D01*
X0052400Y0037900D01*
X0052400Y0036900D01*
X0056400Y0036900D01*
X0056400Y0034203D01*
X0056298Y0033821D01*
X0056100Y0033479D01*
X0055821Y0033200D01*
X0055479Y0033002D01*
X0055097Y0032900D01*
X0052400Y0032900D01*
X0052400Y0036900D01*
X0056400Y0036900D01*
X0056400Y0034203D01*
X0056298Y0033821D01*
X0056100Y0033479D01*
X0055821Y0033200D01*
X0055479Y0033002D01*
X0055097Y0032900D01*
X0052400Y0032900D01*
X0052400Y0036900D01*
X0052400Y0037900D01*
X0056400Y0037900D01*
X0056800Y0037617D02*
X0052400Y0037617D01*
X0056800Y0037617D01*
X0052400Y0037617D01*
X0056800Y0037617D01*
X0056400Y0036900D02*
X0052400Y0036900D01*
X0051400Y0036900D01*
X0051400Y0032900D01*
X0048703Y0032900D01*
X0048321Y0033002D01*
X0047979Y0033200D01*
X0047700Y0033479D01*
X0047502Y0033821D01*
X0047400Y0034203D01*
X0047400Y0036900D01*
X0051400Y0036900D01*
X0051400Y0037900D01*
X0051400Y0036900D01*
X0052400Y0036900D01*
X0051400Y0036900D01*
X0051400Y0032900D01*
X0048703Y0032900D01*
X0048321Y0033002D01*
X0047979Y0033200D01*
X0047700Y0033479D01*
X0047502Y0033821D01*
X0047400Y0034203D01*
X0047400Y0036900D01*
X0051400Y0036900D01*
X0051400Y0032900D01*
X0048703Y0032900D01*
X0048321Y0033002D01*
X0047979Y0033200D01*
X0047700Y0033479D01*
X0047502Y0033821D01*
X0047400Y0034203D01*
X0047400Y0036900D01*
X0051400Y0036900D01*
X0051400Y0037900D01*
X0051400Y0036900D01*
X0052400Y0036900D01*
X0052400Y0032900D01*
X0055097Y0032900D01*
X0055479Y0033002D01*
X0055821Y0033200D01*
X0056100Y0033479D01*
X0056298Y0033821D01*
X0056400Y0034203D01*
X0056400Y0036900D01*
X0056400Y0036618D02*
X0056800Y0036618D01*
X0056400Y0036618D01*
X0056800Y0036618D01*
X0056400Y0036618D01*
X0056400Y0035620D02*
X0056800Y0035620D01*
X0056400Y0035620D01*
X0056800Y0035620D01*
X0056400Y0035620D01*
X0056400Y0034621D02*
X0057466Y0034621D01*
X0056400Y0034621D01*
X0057466Y0034621D01*
X0056400Y0034621D01*
X0056183Y0033623D02*
X0058465Y0033623D01*
X0056183Y0033623D01*
X0058465Y0033623D01*
X0056183Y0033623D01*
X0052400Y0033623D02*
X0051400Y0033623D01*
X0052400Y0033623D01*
X0051400Y0033623D01*
X0052400Y0033623D01*
X0052400Y0034621D02*
X0051400Y0034621D01*
X0052400Y0034621D01*
X0051400Y0034621D01*
X0052400Y0034621D01*
X0052400Y0035620D02*
X0051400Y0035620D01*
X0052400Y0035620D01*
X0051400Y0035620D01*
X0052400Y0035620D01*
X0052400Y0036618D02*
X0051400Y0036618D01*
X0052400Y0036618D01*
X0051400Y0036618D01*
X0052400Y0036618D01*
X0051400Y0036900D02*
X0051400Y0032900D01*
X0048703Y0032900D01*
X0048321Y0033002D01*
X0047979Y0033200D01*
X0047700Y0033479D01*
X0047502Y0033821D01*
X0047400Y0034203D01*
X0047400Y0036900D01*
X0051400Y0036900D01*
X0051400Y0038615D02*
X0052400Y0038615D01*
X0051400Y0038615D01*
X0052400Y0038615D01*
X0051400Y0038615D01*
X0051400Y0039614D02*
X0052400Y0039614D01*
X0051400Y0039614D01*
X0052400Y0039614D01*
X0051400Y0039614D01*
X0051400Y0040612D02*
X0052400Y0040612D01*
X0051400Y0040612D01*
X0052400Y0040612D01*
X0051400Y0040612D01*
X0051400Y0041611D02*
X0052400Y0041611D01*
X0051400Y0041611D01*
X0052400Y0041611D01*
X0051400Y0041611D01*
X0060420Y0018645D02*
X0101200Y0018645D01*
X0060420Y0018645D01*
X0101200Y0018645D01*
X0060420Y0018645D01*
X0062083Y0017647D02*
X0066438Y0017647D01*
X0062083Y0017647D01*
X0066438Y0017647D01*
X0062083Y0017647D01*
X0062844Y0016648D02*
X0065440Y0016648D01*
X0062844Y0016648D01*
X0065440Y0016648D01*
X0062844Y0016648D01*
X0063257Y0015650D02*
X0065291Y0015650D01*
X0063257Y0015650D01*
X0065291Y0015650D01*
X0063257Y0015650D01*
X0063281Y0014651D02*
X0065291Y0014651D01*
X0063281Y0014651D01*
X0065291Y0014651D01*
X0063281Y0014651D01*
X0063134Y0013653D02*
X0065291Y0013653D01*
X0063134Y0013653D01*
X0065291Y0013653D01*
X0063134Y0013653D01*
X0062720Y0012654D02*
X0065291Y0012654D01*
X0062720Y0012654D01*
X0065291Y0012654D01*
X0062720Y0012654D01*
X0061786Y0011656D02*
X0065291Y0011656D01*
X0061786Y0011656D01*
X0065291Y0011656D01*
X0061786Y0011656D01*
X0065291Y0010657D02*
X0055909Y0010657D01*
X0065291Y0010657D01*
X0055909Y0010657D01*
X0065291Y0010657D01*
X0065291Y0009659D02*
X0055909Y0009659D01*
X0065291Y0009659D01*
X0055909Y0009659D01*
X0065291Y0009659D01*
X0065291Y0008660D02*
X0055909Y0008660D01*
X0065291Y0008660D01*
X0055909Y0008660D01*
X0065291Y0008660D01*
X0065291Y0007662D02*
X0055909Y0007662D01*
X0065291Y0007662D01*
X0055909Y0007662D01*
X0065291Y0007662D01*
X0056814Y0011656D02*
X0055909Y0011656D01*
X0056814Y0011656D01*
X0055909Y0011656D01*
X0056814Y0011656D01*
X0043835Y0011656D02*
X0040600Y0011656D01*
X0043835Y0011656D01*
X0040600Y0011656D01*
X0043835Y0011656D01*
X0043835Y0012654D02*
X0040600Y0012654D01*
X0043835Y0012654D01*
X0040600Y0012654D01*
X0043835Y0012654D01*
X0043835Y0013653D02*
X0040954Y0013653D01*
X0043835Y0013653D01*
X0040954Y0013653D01*
X0043835Y0013653D01*
X0043835Y0014651D02*
X0041952Y0014651D01*
X0043835Y0014651D01*
X0041952Y0014651D01*
X0043835Y0014651D01*
X0043835Y0010657D02*
X0040600Y0010657D01*
X0043835Y0010657D01*
X0040600Y0010657D01*
X0043835Y0010657D01*
X0043835Y0009659D02*
X0040600Y0009659D01*
X0043835Y0009659D01*
X0040600Y0009659D01*
X0043835Y0009659D01*
X0043835Y0008660D02*
X0040600Y0008660D01*
X0043835Y0008660D01*
X0040600Y0008660D01*
X0043835Y0008660D01*
X0043835Y0007662D02*
X0039831Y0007662D01*
X0043835Y0007662D01*
X0039831Y0007662D01*
X0043835Y0007662D01*
X0074337Y0032624D02*
X0079463Y0032624D01*
X0074337Y0032624D01*
X0079463Y0032624D01*
X0074337Y0032624D01*
X0075335Y0033623D02*
X0078465Y0033623D01*
X0075335Y0033623D01*
X0078465Y0033623D01*
X0075335Y0033623D01*
X0076334Y0034621D02*
X0077466Y0034621D01*
X0076334Y0034621D01*
X0077466Y0034621D01*
X0076334Y0034621D01*
X0076899Y0039614D02*
X0076901Y0039614D01*
X0076899Y0039614D01*
X0076901Y0039614D01*
X0076899Y0039614D01*
X0075900Y0040612D02*
X0077900Y0040612D01*
X0075900Y0040612D01*
X0077900Y0040612D01*
X0075900Y0040612D01*
X0074902Y0041611D02*
X0078898Y0041611D01*
X0074902Y0041611D01*
X0078898Y0041611D01*
X0074902Y0041611D01*
X0077074Y0053593D02*
X0078992Y0053593D01*
X0077074Y0053593D01*
X0078992Y0053593D01*
X0077074Y0053593D01*
X0078102Y0054592D02*
X0079990Y0054592D01*
X0078102Y0054592D01*
X0079990Y0054592D01*
X0078102Y0054592D01*
X0079341Y0053943D02*
X0079341Y0053943D01*
X0079129Y0055590D02*
X0081960Y0055590D01*
X0079129Y0055590D01*
X0081960Y0055590D01*
X0079129Y0055590D01*
X0097942Y0045605D02*
X0098900Y0045605D01*
X0097942Y0045605D01*
X0098900Y0045605D01*
X0097942Y0045605D01*
X0110737Y0024636D02*
X0117201Y0024636D01*
X0110737Y0024636D01*
X0117201Y0024636D01*
X0110737Y0024636D01*
X0109739Y0023638D02*
X0117201Y0023638D01*
X0109739Y0023638D01*
X0117201Y0023638D01*
X0109739Y0023638D01*
X0108740Y0022639D02*
X0117201Y0022639D01*
X0108740Y0022639D01*
X0117201Y0022639D01*
X0108740Y0022639D01*
X0107000Y0021641D02*
X0117201Y0021641D01*
X0107000Y0021641D01*
X0117201Y0021641D01*
X0107000Y0021641D01*
X0107000Y0020642D02*
X0117201Y0020642D01*
X0107000Y0020642D01*
X0117201Y0020642D01*
X0107000Y0020642D01*
X0107000Y0019644D02*
X0117201Y0019644D01*
X0107000Y0019644D01*
X0117201Y0019644D01*
X0107000Y0019644D01*
X0107000Y0018645D02*
X0117201Y0018645D01*
X0107000Y0018645D01*
X0117201Y0018645D01*
X0107000Y0018645D01*
X0107000Y0017647D02*
X0117201Y0017647D01*
X0107000Y0017647D01*
X0117201Y0017647D01*
X0107000Y0017647D01*
X0107000Y0016648D02*
X0117201Y0016648D01*
X0107000Y0016648D01*
X0117201Y0016648D01*
X0107000Y0016648D01*
X0107560Y0015650D02*
X0117201Y0015650D01*
X0107560Y0015650D01*
X0117201Y0015650D01*
X0107560Y0015650D01*
X0107974Y0014651D02*
X0117201Y0014651D01*
X0107974Y0014651D01*
X0117201Y0014651D01*
X0107974Y0014651D01*
X0108081Y0013653D02*
X0117201Y0013653D01*
X0108081Y0013653D01*
X0117201Y0013653D01*
X0108081Y0013653D01*
X0108017Y0012654D02*
X0117201Y0012654D01*
X0108017Y0012654D01*
X0117201Y0012654D01*
X0108017Y0012654D01*
X0107604Y0011656D02*
X0117201Y0011656D01*
X0107604Y0011656D01*
X0117201Y0011656D01*
X0107604Y0011656D01*
X0106787Y0010657D02*
X0117201Y0010657D01*
X0106787Y0010657D01*
X0117201Y0010657D01*
X0106787Y0010657D01*
X0104988Y0009659D02*
X0117201Y0009659D01*
X0104988Y0009659D01*
X0117201Y0009659D01*
X0104988Y0009659D01*
X0019800Y0077557D02*
X0018800Y0077557D01*
X0019800Y0077557D01*
X0018800Y0077557D01*
X0019800Y0077557D01*
X0019800Y0078556D02*
X0018800Y0078556D01*
X0019800Y0078556D01*
X0018800Y0078556D01*
X0019800Y0078556D01*
X0019800Y0079554D02*
X0018800Y0079554D01*
X0019800Y0079554D01*
X0018800Y0079554D01*
X0019800Y0079554D01*
X0019800Y0080553D02*
X0018800Y0080553D01*
X0019800Y0080553D01*
X0018800Y0080553D01*
X0019800Y0080553D01*
X0106102Y0118721D02*
X0106300Y0118379D01*
X0106579Y0118100D01*
X0106921Y0117902D01*
X0107303Y0117800D01*
X0110000Y0117800D01*
X0110000Y0121800D01*
X0106000Y0121800D01*
X0106000Y0119103D01*
X0106102Y0118721D01*
X0106300Y0118379D01*
X0106579Y0118100D01*
X0106921Y0117902D01*
X0107303Y0117800D01*
X0110000Y0117800D01*
X0110000Y0121800D01*
X0110000Y0122800D01*
X0110000Y0126800D01*
X0107303Y0126800D01*
X0106921Y0126698D01*
X0106579Y0126500D01*
X0106300Y0126221D01*
X0106102Y0125879D01*
X0106000Y0125497D01*
X0106000Y0122800D01*
X0110000Y0122800D01*
X0111000Y0122800D01*
X0111000Y0126800D01*
X0113697Y0126800D01*
X0114079Y0126698D01*
X0114421Y0126500D01*
X0114700Y0126221D01*
X0114898Y0125879D01*
X0115000Y0125497D01*
X0115000Y0122800D01*
X0111000Y0122800D01*
X0111000Y0121800D01*
X0115000Y0121800D01*
X0115000Y0119103D01*
X0114898Y0118721D01*
X0114700Y0118379D01*
X0114421Y0118100D01*
X0114079Y0117902D01*
X0113697Y0117800D01*
X0111000Y0117800D01*
X0111000Y0121800D01*
X0111000Y0122800D01*
X0110000Y0122800D01*
X0110000Y0126800D01*
X0107303Y0126800D01*
X0106921Y0126698D01*
X0106579Y0126500D01*
X0106300Y0126221D01*
X0106102Y0125879D01*
X0106000Y0125497D01*
X0106000Y0122800D01*
X0110000Y0122800D01*
X0110000Y0126800D01*
X0107303Y0126800D01*
X0106921Y0126698D01*
X0106579Y0126500D01*
X0106300Y0126221D01*
X0106102Y0125879D01*
X0106000Y0125497D01*
X0106000Y0122800D01*
X0110000Y0122800D01*
X0111000Y0122800D01*
X0111000Y0126800D01*
X0113697Y0126800D01*
X0114079Y0126698D01*
X0114421Y0126500D01*
X0114700Y0126221D01*
X0114898Y0125879D01*
X0115000Y0125497D01*
X0115000Y0122800D01*
X0111000Y0122800D01*
X0111000Y0126800D01*
X0113697Y0126800D01*
X0114079Y0126698D01*
X0114421Y0126500D01*
X0114700Y0126221D01*
X0114898Y0125879D01*
X0115000Y0125497D01*
X0115000Y0122800D01*
X0111000Y0122800D01*
X0111000Y0121800D01*
X0115000Y0121800D01*
X0115000Y0119103D01*
X0114898Y0118721D01*
X0114700Y0118379D01*
X0114421Y0118100D01*
X0114079Y0117902D01*
X0113697Y0117800D01*
X0111000Y0117800D01*
X0111000Y0121800D01*
X0115000Y0121800D01*
X0115000Y0119103D01*
X0114898Y0118721D01*
X0114700Y0118379D01*
X0114421Y0118100D01*
X0114079Y0117902D01*
X0113697Y0117800D01*
X0111000Y0117800D01*
X0111000Y0121800D01*
X0111000Y0122800D01*
X0110000Y0122800D01*
X0110000Y0126800D01*
X0107303Y0126800D01*
X0106921Y0126698D01*
X0106579Y0126500D01*
X0106300Y0126221D01*
X0106102Y0125879D01*
X0106000Y0125497D01*
X0106000Y0122800D01*
X0110000Y0122800D01*
X0110000Y0121800D01*
X0111000Y0121800D01*
X0115000Y0121800D01*
X0115000Y0119103D01*
X0114898Y0118721D01*
X0114700Y0118379D01*
X0114421Y0118100D01*
X0114079Y0117902D01*
X0113697Y0117800D01*
X0111000Y0117800D01*
X0111000Y0121800D01*
X0110000Y0121800D01*
X0106000Y0121800D01*
X0106000Y0119103D01*
X0106102Y0118721D01*
X0106300Y0118379D01*
X0106579Y0118100D01*
X0106921Y0117902D01*
X0107303Y0117800D01*
X0110000Y0117800D01*
X0110000Y0121800D01*
X0106000Y0121800D01*
X0106000Y0119103D01*
X0106102Y0118721D01*
X0106300Y0118379D01*
X0106579Y0118100D01*
X0106921Y0117902D01*
X0107303Y0117800D01*
X0110000Y0117800D01*
X0110000Y0121800D01*
X0110000Y0122800D01*
X0110000Y0121800D01*
X0111000Y0121800D01*
X0110000Y0121800D01*
X0106000Y0121800D01*
X0106000Y0119103D01*
X0106102Y0118721D01*
X0110000Y0118496D02*
X0111000Y0118496D01*
X0110000Y0118496D01*
X0111000Y0118496D01*
X0110000Y0118496D01*
X0110000Y0119495D02*
X0111000Y0119495D01*
X0110000Y0119495D01*
X0111000Y0119495D01*
X0110000Y0119495D01*
X0110000Y0120493D02*
X0111000Y0120493D01*
X0110000Y0120493D01*
X0111000Y0120493D01*
X0110000Y0120493D01*
X0110000Y0121492D02*
X0111000Y0121492D01*
X0110000Y0121492D01*
X0111000Y0121492D01*
X0110000Y0121492D01*
X0111000Y0122490D02*
X0117201Y0122490D01*
X0111000Y0122490D01*
X0117201Y0122490D01*
X0111000Y0122490D01*
X0111000Y0122800D02*
X0115000Y0122800D01*
X0115000Y0125497D01*
X0114898Y0125879D01*
X0114700Y0126221D01*
X0114421Y0126500D01*
X0114079Y0126698D01*
X0113697Y0126800D01*
X0111000Y0126800D01*
X0111000Y0122800D01*
X0111000Y0123489D02*
X0110000Y0123489D01*
X0111000Y0123489D01*
X0110000Y0123489D01*
X0111000Y0123489D01*
X0111000Y0124487D02*
X0110000Y0124487D01*
X0111000Y0124487D01*
X0110000Y0124487D01*
X0111000Y0124487D01*
X0111000Y0125486D02*
X0110000Y0125486D01*
X0111000Y0125486D01*
X0110000Y0125486D01*
X0111000Y0125486D01*
X0111000Y0126484D02*
X0110000Y0126484D01*
X0111000Y0126484D01*
X0110000Y0126484D01*
X0111000Y0126484D01*
X0114437Y0126484D02*
X0117201Y0126484D01*
X0114437Y0126484D01*
X0117201Y0126484D01*
X0114437Y0126484D01*
X0115000Y0125486D02*
X0117201Y0125486D01*
X0115000Y0125486D01*
X0117201Y0125486D01*
X0115000Y0125486D01*
X0115000Y0124487D02*
X0117201Y0124487D01*
X0115000Y0124487D01*
X0117201Y0124487D01*
X0115000Y0124487D01*
X0115000Y0123489D02*
X0117201Y0123489D01*
X0115000Y0123489D01*
X0117201Y0123489D01*
X0115000Y0123489D01*
X0115000Y0121492D02*
X0117201Y0121492D01*
X0115000Y0121492D01*
X0117201Y0121492D01*
X0115000Y0121492D01*
X0115000Y0120493D02*
X0117201Y0120493D01*
X0115000Y0120493D01*
X0117201Y0120493D01*
X0115000Y0120493D01*
X0115000Y0119495D02*
X0117201Y0119495D01*
X0115000Y0119495D01*
X0117201Y0119495D01*
X0115000Y0119495D01*
X0114768Y0118496D02*
X0117201Y0118496D01*
X0114768Y0118496D01*
X0117201Y0118496D01*
X0114768Y0118496D01*
M02*
