G75*
%MOIN*%
%OFA0B0*%
%FSLAX25Y25*%
%IPPOS*%
%LPD*%
%AMOC8*
5,1,8,0,0,1.08239X$1,22.5*
%
%ADD10C,0.00000*%
%ADD11C,0.00200*%
%ADD12C,0.00300*%
%ADD13C,0.00100*%
%ADD14C,0.00600*%
%ADD15R,0.00787X0.00787*%
%ADD16C,0.00500*%
%ADD17C,0.00800*%
%ADD18C,0.00400*%
%ADD19C,0.01000*%
D10*
X0001000Y0004800D02*
X0001000Y0132261D01*
X0119301Y0132261D01*
X0119301Y0004800D01*
X0001000Y0004800D01*
X0048986Y0023622D02*
X0048988Y0023713D01*
X0048994Y0023803D01*
X0049004Y0023894D01*
X0049018Y0023983D01*
X0049036Y0024072D01*
X0049057Y0024161D01*
X0049083Y0024248D01*
X0049112Y0024334D01*
X0049146Y0024418D01*
X0049182Y0024501D01*
X0049223Y0024583D01*
X0049267Y0024662D01*
X0049314Y0024740D01*
X0049365Y0024815D01*
X0049419Y0024888D01*
X0049476Y0024958D01*
X0049536Y0025026D01*
X0049599Y0025092D01*
X0049665Y0025154D01*
X0049734Y0025213D01*
X0049805Y0025270D01*
X0049879Y0025323D01*
X0049955Y0025373D01*
X0050033Y0025420D01*
X0050113Y0025463D01*
X0050194Y0025502D01*
X0050278Y0025538D01*
X0050363Y0025570D01*
X0050449Y0025599D01*
X0050536Y0025623D01*
X0050625Y0025644D01*
X0050714Y0025661D01*
X0050804Y0025674D01*
X0050894Y0025683D01*
X0050985Y0025688D01*
X0051076Y0025689D01*
X0051166Y0025686D01*
X0051257Y0025679D01*
X0051347Y0025668D01*
X0051437Y0025653D01*
X0051526Y0025634D01*
X0051614Y0025612D01*
X0051700Y0025585D01*
X0051786Y0025555D01*
X0051870Y0025521D01*
X0051953Y0025483D01*
X0052034Y0025442D01*
X0052113Y0025397D01*
X0052190Y0025348D01*
X0052264Y0025297D01*
X0052337Y0025242D01*
X0052407Y0025184D01*
X0052474Y0025123D01*
X0052538Y0025059D01*
X0052600Y0024993D01*
X0052659Y0024923D01*
X0052714Y0024852D01*
X0052767Y0024777D01*
X0052816Y0024701D01*
X0052862Y0024623D01*
X0052904Y0024542D01*
X0052943Y0024460D01*
X0052978Y0024376D01*
X0053009Y0024291D01*
X0053036Y0024204D01*
X0053060Y0024117D01*
X0053080Y0024028D01*
X0053096Y0023939D01*
X0053108Y0023849D01*
X0053116Y0023758D01*
X0053120Y0023667D01*
X0053120Y0023577D01*
X0053116Y0023486D01*
X0053108Y0023395D01*
X0053096Y0023305D01*
X0053080Y0023216D01*
X0053060Y0023127D01*
X0053036Y0023040D01*
X0053009Y0022953D01*
X0052978Y0022868D01*
X0052943Y0022784D01*
X0052904Y0022702D01*
X0052862Y0022621D01*
X0052816Y0022543D01*
X0052767Y0022467D01*
X0052714Y0022392D01*
X0052659Y0022321D01*
X0052600Y0022251D01*
X0052538Y0022185D01*
X0052474Y0022121D01*
X0052407Y0022060D01*
X0052337Y0022002D01*
X0052264Y0021947D01*
X0052190Y0021896D01*
X0052113Y0021847D01*
X0052034Y0021802D01*
X0051953Y0021761D01*
X0051870Y0021723D01*
X0051786Y0021689D01*
X0051700Y0021659D01*
X0051614Y0021632D01*
X0051526Y0021610D01*
X0051437Y0021591D01*
X0051347Y0021576D01*
X0051257Y0021565D01*
X0051166Y0021558D01*
X0051076Y0021555D01*
X0050985Y0021556D01*
X0050894Y0021561D01*
X0050804Y0021570D01*
X0050714Y0021583D01*
X0050625Y0021600D01*
X0050536Y0021621D01*
X0050449Y0021645D01*
X0050363Y0021674D01*
X0050278Y0021706D01*
X0050194Y0021742D01*
X0050113Y0021781D01*
X0050033Y0021824D01*
X0049955Y0021871D01*
X0049879Y0021921D01*
X0049805Y0021974D01*
X0049734Y0022031D01*
X0049665Y0022090D01*
X0049599Y0022152D01*
X0049536Y0022218D01*
X0049476Y0022286D01*
X0049419Y0022356D01*
X0049365Y0022429D01*
X0049314Y0022504D01*
X0049267Y0022582D01*
X0049223Y0022661D01*
X0049182Y0022743D01*
X0049146Y0022826D01*
X0049112Y0022910D01*
X0049083Y0022996D01*
X0049057Y0023083D01*
X0049036Y0023172D01*
X0049018Y0023261D01*
X0049004Y0023350D01*
X0048994Y0023441D01*
X0048988Y0023531D01*
X0048986Y0023622D01*
X0068080Y0023622D02*
X0068082Y0023713D01*
X0068088Y0023803D01*
X0068098Y0023894D01*
X0068112Y0023983D01*
X0068130Y0024072D01*
X0068151Y0024161D01*
X0068177Y0024248D01*
X0068206Y0024334D01*
X0068240Y0024418D01*
X0068276Y0024501D01*
X0068317Y0024583D01*
X0068361Y0024662D01*
X0068408Y0024740D01*
X0068459Y0024815D01*
X0068513Y0024888D01*
X0068570Y0024958D01*
X0068630Y0025026D01*
X0068693Y0025092D01*
X0068759Y0025154D01*
X0068828Y0025213D01*
X0068899Y0025270D01*
X0068973Y0025323D01*
X0069049Y0025373D01*
X0069127Y0025420D01*
X0069207Y0025463D01*
X0069288Y0025502D01*
X0069372Y0025538D01*
X0069457Y0025570D01*
X0069543Y0025599D01*
X0069630Y0025623D01*
X0069719Y0025644D01*
X0069808Y0025661D01*
X0069898Y0025674D01*
X0069988Y0025683D01*
X0070079Y0025688D01*
X0070170Y0025689D01*
X0070260Y0025686D01*
X0070351Y0025679D01*
X0070441Y0025668D01*
X0070531Y0025653D01*
X0070620Y0025634D01*
X0070708Y0025612D01*
X0070794Y0025585D01*
X0070880Y0025555D01*
X0070964Y0025521D01*
X0071047Y0025483D01*
X0071128Y0025442D01*
X0071207Y0025397D01*
X0071284Y0025348D01*
X0071358Y0025297D01*
X0071431Y0025242D01*
X0071501Y0025184D01*
X0071568Y0025123D01*
X0071632Y0025059D01*
X0071694Y0024993D01*
X0071753Y0024923D01*
X0071808Y0024852D01*
X0071861Y0024777D01*
X0071910Y0024701D01*
X0071956Y0024623D01*
X0071998Y0024542D01*
X0072037Y0024460D01*
X0072072Y0024376D01*
X0072103Y0024291D01*
X0072130Y0024204D01*
X0072154Y0024117D01*
X0072174Y0024028D01*
X0072190Y0023939D01*
X0072202Y0023849D01*
X0072210Y0023758D01*
X0072214Y0023667D01*
X0072214Y0023577D01*
X0072210Y0023486D01*
X0072202Y0023395D01*
X0072190Y0023305D01*
X0072174Y0023216D01*
X0072154Y0023127D01*
X0072130Y0023040D01*
X0072103Y0022953D01*
X0072072Y0022868D01*
X0072037Y0022784D01*
X0071998Y0022702D01*
X0071956Y0022621D01*
X0071910Y0022543D01*
X0071861Y0022467D01*
X0071808Y0022392D01*
X0071753Y0022321D01*
X0071694Y0022251D01*
X0071632Y0022185D01*
X0071568Y0022121D01*
X0071501Y0022060D01*
X0071431Y0022002D01*
X0071358Y0021947D01*
X0071284Y0021896D01*
X0071207Y0021847D01*
X0071128Y0021802D01*
X0071047Y0021761D01*
X0070964Y0021723D01*
X0070880Y0021689D01*
X0070794Y0021659D01*
X0070708Y0021632D01*
X0070620Y0021610D01*
X0070531Y0021591D01*
X0070441Y0021576D01*
X0070351Y0021565D01*
X0070260Y0021558D01*
X0070170Y0021555D01*
X0070079Y0021556D01*
X0069988Y0021561D01*
X0069898Y0021570D01*
X0069808Y0021583D01*
X0069719Y0021600D01*
X0069630Y0021621D01*
X0069543Y0021645D01*
X0069457Y0021674D01*
X0069372Y0021706D01*
X0069288Y0021742D01*
X0069207Y0021781D01*
X0069127Y0021824D01*
X0069049Y0021871D01*
X0068973Y0021921D01*
X0068899Y0021974D01*
X0068828Y0022031D01*
X0068759Y0022090D01*
X0068693Y0022152D01*
X0068630Y0022218D01*
X0068570Y0022286D01*
X0068513Y0022356D01*
X0068459Y0022429D01*
X0068408Y0022504D01*
X0068361Y0022582D01*
X0068317Y0022661D01*
X0068276Y0022743D01*
X0068240Y0022826D01*
X0068206Y0022910D01*
X0068177Y0022996D01*
X0068151Y0023083D01*
X0068130Y0023172D01*
X0068112Y0023261D01*
X0068098Y0023350D01*
X0068088Y0023441D01*
X0068082Y0023531D01*
X0068080Y0023622D01*
D11*
X0068366Y0029000D02*
X0069100Y0029000D01*
X0069467Y0029367D01*
X0069467Y0030101D01*
X0068733Y0030101D01*
X0069467Y0030835D02*
X0069100Y0031202D01*
X0068366Y0031202D01*
X0067999Y0030835D01*
X0067999Y0029367D01*
X0068366Y0029000D01*
X0070209Y0029000D02*
X0070209Y0031202D01*
X0071310Y0031202D01*
X0071677Y0030835D01*
X0071677Y0030101D01*
X0071310Y0029734D01*
X0070209Y0029734D01*
X0072419Y0029000D02*
X0073886Y0030468D01*
X0073886Y0030835D01*
X0073519Y0031202D01*
X0072786Y0031202D01*
X0072419Y0030835D01*
X0072419Y0029000D02*
X0073886Y0029000D01*
X0079048Y0029367D02*
X0079415Y0029000D01*
X0080149Y0029000D01*
X0080516Y0029367D01*
X0080516Y0030101D01*
X0079782Y0030101D01*
X0079048Y0030835D02*
X0079048Y0029367D01*
X0079048Y0030835D02*
X0079415Y0031202D01*
X0080149Y0031202D01*
X0080516Y0030835D01*
X0081258Y0031202D02*
X0082359Y0031202D01*
X0082726Y0030835D01*
X0082726Y0030101D01*
X0082359Y0029734D01*
X0081258Y0029734D01*
X0081258Y0029000D02*
X0081258Y0031202D01*
X0083468Y0030835D02*
X0083835Y0031202D01*
X0084569Y0031202D01*
X0084936Y0030835D01*
X0084936Y0030468D01*
X0084569Y0030101D01*
X0084936Y0029734D01*
X0084936Y0029367D01*
X0084569Y0029000D01*
X0083835Y0029000D01*
X0083468Y0029367D01*
X0084202Y0030101D02*
X0084569Y0030101D01*
X0078300Y0044100D02*
X0076498Y0044100D01*
X0076498Y0045001D01*
X0076799Y0045301D01*
X0077399Y0045301D01*
X0077699Y0045001D01*
X0077699Y0044100D01*
X0078300Y0045942D02*
X0078300Y0046542D01*
X0078300Y0046242D02*
X0076498Y0046242D01*
X0076498Y0045942D02*
X0076498Y0046542D01*
X0076799Y0047169D02*
X0078000Y0047169D01*
X0078300Y0047470D01*
X0078300Y0048070D01*
X0078000Y0048370D01*
X0078300Y0049011D02*
X0078300Y0050212D01*
X0078300Y0049611D02*
X0076498Y0049611D01*
X0077099Y0049011D01*
X0076799Y0048370D02*
X0076498Y0048070D01*
X0076498Y0047470D01*
X0076799Y0047169D01*
X0076799Y0050852D02*
X0077099Y0050852D01*
X0077399Y0051153D01*
X0077399Y0051753D01*
X0077699Y0052053D01*
X0078000Y0052053D01*
X0078300Y0051753D01*
X0078300Y0051153D01*
X0078000Y0050852D01*
X0077699Y0050852D01*
X0077399Y0051153D01*
X0077399Y0051753D02*
X0077099Y0052053D01*
X0076799Y0052053D01*
X0076498Y0051753D01*
X0076498Y0051153D01*
X0076799Y0050852D01*
X0076498Y0052694D02*
X0076498Y0053895D01*
X0076799Y0054536D02*
X0076498Y0054836D01*
X0076498Y0055436D01*
X0076799Y0055737D01*
X0077099Y0055737D01*
X0078300Y0054536D01*
X0078300Y0055737D01*
X0078000Y0056377D02*
X0078300Y0056677D01*
X0078300Y0057278D01*
X0078000Y0057578D01*
X0077399Y0057578D01*
X0077099Y0057278D01*
X0077099Y0056978D01*
X0077399Y0056377D01*
X0076498Y0056377D01*
X0076498Y0057578D01*
X0076498Y0058219D02*
X0078300Y0058219D01*
X0077699Y0058219D02*
X0076498Y0059420D01*
X0076498Y0060060D02*
X0077399Y0060060D01*
X0077099Y0060661D01*
X0077099Y0060961D01*
X0077399Y0061261D01*
X0078000Y0061261D01*
X0078300Y0060961D01*
X0078300Y0060361D01*
X0078000Y0060060D01*
X0078300Y0059420D02*
X0077399Y0058519D01*
X0076498Y0060060D02*
X0076498Y0061261D01*
X0076799Y0061902D02*
X0076498Y0062202D01*
X0076498Y0062803D01*
X0076799Y0063103D01*
X0078000Y0061902D01*
X0078300Y0062202D01*
X0078300Y0062803D01*
X0078000Y0063103D01*
X0076799Y0063103D01*
X0076799Y0061902D02*
X0078000Y0061902D01*
X0077399Y0053295D02*
X0077399Y0052694D01*
X0078300Y0052694D02*
X0076498Y0052694D01*
X0063993Y0049401D02*
X0063993Y0047900D01*
X0063693Y0047599D01*
X0063392Y0047599D01*
X0063092Y0048200D02*
X0062792Y0048500D01*
X0062792Y0049101D01*
X0063092Y0049401D01*
X0063993Y0049401D01*
X0063993Y0048200D02*
X0063092Y0048200D01*
X0062158Y0049401D02*
X0061858Y0049401D01*
X0061257Y0048801D01*
X0061257Y0049401D02*
X0061257Y0048200D01*
X0060617Y0048500D02*
X0060617Y0049101D01*
X0060316Y0049401D01*
X0059716Y0049401D01*
X0059416Y0049101D01*
X0059416Y0048500D01*
X0059716Y0048200D01*
X0060316Y0048200D01*
X0060617Y0048500D01*
X0058795Y0048500D02*
X0058795Y0048200D01*
X0058495Y0048200D01*
X0058495Y0048500D01*
X0058795Y0048500D01*
X0057854Y0048500D02*
X0057554Y0048801D01*
X0056954Y0048801D01*
X0056653Y0049101D01*
X0056954Y0049401D01*
X0057854Y0049401D01*
X0057854Y0048500D02*
X0057554Y0048200D01*
X0056653Y0048200D01*
X0056013Y0048500D02*
X0056013Y0049101D01*
X0055713Y0049401D01*
X0055112Y0049401D01*
X0054812Y0049101D01*
X0054812Y0048500D01*
X0055112Y0048200D01*
X0055713Y0048200D01*
X0056013Y0048500D01*
X0054171Y0048500D02*
X0053871Y0048200D01*
X0052970Y0048200D01*
X0052970Y0047599D02*
X0052970Y0049401D01*
X0053871Y0049401D01*
X0054171Y0049101D01*
X0054171Y0048500D01*
X0052330Y0048500D02*
X0052330Y0049101D01*
X0052029Y0049401D01*
X0051129Y0049401D01*
X0051129Y0050002D02*
X0051129Y0048200D01*
X0052029Y0048200D01*
X0052330Y0048500D01*
X0050488Y0048200D02*
X0050488Y0049401D01*
X0049287Y0049401D02*
X0049287Y0048500D01*
X0049587Y0048200D01*
X0050488Y0048200D01*
X0048647Y0048500D02*
X0048346Y0048801D01*
X0047746Y0048801D01*
X0047445Y0049101D01*
X0047746Y0049401D01*
X0048647Y0049401D01*
X0048647Y0048500D02*
X0048346Y0048200D01*
X0047445Y0048200D01*
X0046825Y0048200D02*
X0046525Y0048200D01*
X0046525Y0048500D01*
X0046825Y0048500D01*
X0046825Y0048200D01*
X0045884Y0048500D02*
X0045884Y0049401D01*
X0045884Y0048500D02*
X0045584Y0048200D01*
X0045284Y0048500D01*
X0044983Y0048200D01*
X0044683Y0048500D01*
X0044683Y0049401D01*
X0044043Y0049401D02*
X0044043Y0048500D01*
X0043742Y0048200D01*
X0043442Y0048500D01*
X0043142Y0048200D01*
X0042842Y0048500D01*
X0042842Y0049401D01*
X0042201Y0049401D02*
X0042201Y0048500D01*
X0041901Y0048200D01*
X0041601Y0048500D01*
X0041300Y0048200D01*
X0041000Y0048500D01*
X0041000Y0049401D01*
X0041300Y0051200D02*
X0041000Y0051500D01*
X0041300Y0051200D02*
X0041901Y0051200D01*
X0042201Y0051500D01*
X0042201Y0051801D01*
X0041901Y0052101D01*
X0041300Y0052101D01*
X0041000Y0052401D01*
X0041000Y0052701D01*
X0041300Y0053002D01*
X0041901Y0053002D01*
X0042201Y0052701D01*
X0042842Y0052401D02*
X0042842Y0051500D01*
X0043142Y0051200D01*
X0044043Y0051200D01*
X0044043Y0052401D01*
X0044683Y0052401D02*
X0045584Y0052401D01*
X0045884Y0052101D01*
X0045884Y0051500D01*
X0045584Y0051200D01*
X0044683Y0051200D01*
X0044683Y0053002D01*
X0046525Y0053002D02*
X0046525Y0051200D01*
X0046525Y0051801D02*
X0047425Y0051801D01*
X0047726Y0052101D01*
X0047726Y0052701D01*
X0047425Y0053002D01*
X0046525Y0053002D01*
X0048366Y0052101D02*
X0048366Y0051500D01*
X0048667Y0051200D01*
X0049267Y0051200D01*
X0049567Y0051500D01*
X0049567Y0052101D01*
X0049267Y0052401D01*
X0048667Y0052401D01*
X0048366Y0052101D01*
X0050208Y0052101D02*
X0050508Y0052401D01*
X0051409Y0052401D01*
X0051109Y0051801D02*
X0050508Y0051801D01*
X0050208Y0052101D01*
X0050208Y0051200D02*
X0051109Y0051200D01*
X0051409Y0051500D01*
X0051109Y0051801D01*
X0053891Y0051200D02*
X0053891Y0053002D01*
X0055092Y0051200D01*
X0055092Y0053002D01*
X0055733Y0052101D02*
X0055733Y0051500D01*
X0056033Y0051200D01*
X0056633Y0051200D01*
X0056934Y0051500D01*
X0056934Y0052101D01*
X0056633Y0052401D01*
X0056033Y0052401D01*
X0055733Y0052101D01*
X0057574Y0052101D02*
X0057874Y0052401D01*
X0058775Y0052401D01*
X0058775Y0053002D02*
X0058775Y0051200D01*
X0057874Y0051200D01*
X0057574Y0051500D01*
X0057574Y0052101D01*
X0059416Y0052101D02*
X0059716Y0052401D01*
X0060316Y0052401D01*
X0060617Y0052101D01*
X0060617Y0051801D01*
X0059416Y0051801D01*
X0059416Y0052101D02*
X0059416Y0051500D01*
X0059716Y0051200D01*
X0060316Y0051200D01*
X0060260Y0031202D02*
X0059526Y0031202D01*
X0059159Y0030835D01*
X0059159Y0029367D01*
X0059526Y0029000D01*
X0060260Y0029000D01*
X0060627Y0029367D01*
X0060627Y0030101D01*
X0059893Y0030101D01*
X0060627Y0030835D02*
X0060260Y0031202D01*
X0061369Y0031202D02*
X0062470Y0031202D01*
X0062837Y0030835D01*
X0062837Y0030101D01*
X0062470Y0029734D01*
X0061369Y0029734D01*
X0061369Y0029000D02*
X0061369Y0031202D01*
X0063579Y0030468D02*
X0064313Y0031202D01*
X0064313Y0029000D01*
X0063579Y0029000D02*
X0065047Y0029000D01*
X0053998Y0029367D02*
X0053998Y0030835D01*
X0053631Y0031202D01*
X0052530Y0031202D01*
X0052530Y0029000D01*
X0053631Y0029000D01*
X0053998Y0029367D01*
X0051788Y0029000D02*
X0051788Y0031202D01*
X0050320Y0031202D02*
X0051788Y0029000D01*
X0050320Y0029000D02*
X0050320Y0031202D01*
X0049578Y0030835D02*
X0049211Y0031202D01*
X0048477Y0031202D01*
X0048110Y0030835D01*
X0048110Y0029367D01*
X0048477Y0029000D01*
X0049211Y0029000D01*
X0049578Y0029367D01*
X0049578Y0030101D01*
X0048844Y0030101D01*
X0079971Y0109000D02*
X0080438Y0109000D01*
X0080205Y0109000D02*
X0080205Y0110401D01*
X0080438Y0110401D02*
X0079971Y0110401D01*
X0080953Y0110168D02*
X0080953Y0109234D01*
X0081187Y0109000D01*
X0081654Y0109000D01*
X0081888Y0109234D01*
X0082427Y0109000D02*
X0083361Y0109000D01*
X0082894Y0109000D02*
X0082894Y0110401D01*
X0082427Y0109934D01*
X0081888Y0110168D02*
X0081654Y0110401D01*
X0081187Y0110401D01*
X0080953Y0110168D01*
X0079759Y0113300D02*
X0078558Y0113300D01*
X0079759Y0114501D01*
X0079759Y0114801D01*
X0079459Y0115102D01*
X0078859Y0115102D01*
X0078558Y0114801D01*
X0077918Y0114801D02*
X0077918Y0113600D01*
X0077618Y0113300D01*
X0076717Y0113300D01*
X0076717Y0115102D01*
X0077618Y0115102D01*
X0077918Y0114801D01*
X0076076Y0115102D02*
X0074875Y0115102D01*
X0074875Y0113300D01*
X0076076Y0113300D01*
X0075476Y0114201D02*
X0074875Y0114201D01*
X0074235Y0113300D02*
X0073034Y0113300D01*
X0073034Y0115102D01*
X0070100Y0114868D02*
X0069166Y0113934D01*
X0069166Y0114401D02*
X0069166Y0113000D01*
X0070100Y0113000D02*
X0067298Y0113000D01*
X0067298Y0114401D01*
X0067765Y0114868D01*
X0068699Y0114868D01*
X0069166Y0114401D01*
X0069166Y0115762D02*
X0069166Y0117631D01*
X0068699Y0117631D01*
X0068232Y0117164D01*
X0068232Y0116229D01*
X0068699Y0115762D01*
X0069633Y0115762D01*
X0070100Y0116229D01*
X0070100Y0117164D01*
X0070100Y0119459D02*
X0068232Y0120393D01*
X0069633Y0121287D02*
X0069633Y0121754D01*
X0070100Y0121754D01*
X0070100Y0121287D01*
X0069633Y0121287D01*
X0069633Y0122668D02*
X0067765Y0122668D01*
X0067298Y0123135D01*
X0067298Y0124069D01*
X0067765Y0124536D01*
X0069633Y0122668D01*
X0070100Y0123135D01*
X0070100Y0124069D01*
X0069633Y0124536D01*
X0067765Y0124536D01*
X0067765Y0125431D02*
X0067298Y0125898D01*
X0067298Y0126832D01*
X0067765Y0127299D01*
X0068232Y0127299D01*
X0068699Y0126832D01*
X0069166Y0127299D01*
X0069633Y0127299D01*
X0070100Y0126832D01*
X0070100Y0125898D01*
X0069633Y0125431D01*
X0068699Y0126365D02*
X0068699Y0126832D01*
X0069633Y0128193D02*
X0069166Y0128660D01*
X0069166Y0130061D01*
X0068699Y0130061D02*
X0068232Y0129594D01*
X0068232Y0128660D01*
X0069633Y0128193D02*
X0070100Y0128660D01*
X0070100Y0130061D01*
X0068699Y0130061D01*
X0070100Y0119459D02*
X0068232Y0118525D01*
X0098134Y0115102D02*
X0098134Y0113300D01*
X0099335Y0113300D01*
X0099975Y0113300D02*
X0101176Y0113300D01*
X0101817Y0113300D02*
X0102718Y0113300D01*
X0103018Y0113600D01*
X0103018Y0114801D01*
X0102718Y0115102D01*
X0101817Y0115102D01*
X0101817Y0113300D01*
X0100576Y0114201D02*
X0099975Y0114201D01*
X0099975Y0115102D02*
X0099975Y0113300D01*
X0099975Y0115102D02*
X0101176Y0115102D01*
X0103658Y0114501D02*
X0104259Y0115102D01*
X0104259Y0113300D01*
X0104859Y0113300D02*
X0103658Y0113300D01*
D12*
X0042597Y0055901D02*
X0040662Y0055901D01*
X0041629Y0054934D02*
X0041629Y0056869D01*
D13*
X0023650Y0051824D02*
X0023650Y0050823D01*
X0023650Y0051324D02*
X0022149Y0051324D01*
X0022649Y0050823D01*
X0022399Y0050351D02*
X0022149Y0050101D01*
X0022149Y0049600D01*
X0022399Y0049350D01*
X0023400Y0049350D01*
X0023650Y0049600D01*
X0023650Y0050101D01*
X0023400Y0050351D01*
X0008978Y0048151D02*
X0008978Y0047901D01*
X0007977Y0046900D01*
X0007977Y0046650D01*
X0007504Y0046650D02*
X0007004Y0047150D01*
X0007254Y0047150D02*
X0006503Y0047150D01*
X0006503Y0046650D02*
X0006503Y0048151D01*
X0007254Y0048151D01*
X0007504Y0047901D01*
X0007504Y0047401D01*
X0007254Y0047150D01*
X0007977Y0048151D02*
X0008978Y0048151D01*
X0009400Y0019651D02*
X0009150Y0019401D01*
X0009150Y0018400D01*
X0009400Y0018150D01*
X0009901Y0018150D01*
X0010151Y0018400D01*
X0010623Y0018150D02*
X0011624Y0019151D01*
X0011624Y0019401D01*
X0011374Y0019651D01*
X0010873Y0019651D01*
X0010623Y0019401D01*
X0010151Y0019401D02*
X0009901Y0019651D01*
X0009400Y0019651D01*
X0010623Y0018150D02*
X0011624Y0018150D01*
X0081350Y0129550D02*
X0081350Y0131051D01*
X0082101Y0131051D01*
X0082351Y0130801D01*
X0082351Y0130301D01*
X0082101Y0130050D01*
X0081350Y0130050D01*
X0081850Y0130050D02*
X0082351Y0129550D01*
X0082823Y0129550D02*
X0083824Y0130551D01*
X0083824Y0130801D01*
X0083574Y0131051D01*
X0083073Y0131051D01*
X0082823Y0130801D01*
X0082823Y0129550D02*
X0083824Y0129550D01*
X0091250Y0129550D02*
X0091250Y0131051D01*
X0092001Y0131051D01*
X0092251Y0130801D01*
X0092251Y0130301D01*
X0092001Y0130050D01*
X0091250Y0130050D01*
X0091750Y0130050D02*
X0092251Y0129550D01*
X0092723Y0129550D02*
X0093724Y0129550D01*
X0093224Y0129550D02*
X0093224Y0131051D01*
X0092723Y0130551D01*
D14*
X0103919Y0112000D02*
X0074681Y0112000D01*
X0074681Y0042500D01*
X0103919Y0042500D01*
X0103919Y0112000D01*
X0074800Y0108300D02*
X0074802Y0108392D01*
X0074808Y0108483D01*
X0074818Y0108574D01*
X0074832Y0108665D01*
X0074850Y0108755D01*
X0074872Y0108844D01*
X0074897Y0108931D01*
X0074927Y0109018D01*
X0074960Y0109104D01*
X0074997Y0109187D01*
X0075037Y0109270D01*
X0075081Y0109350D01*
X0075129Y0109428D01*
X0075180Y0109505D01*
X0075234Y0109578D01*
X0075291Y0109650D01*
X0075352Y0109719D01*
X0075415Y0109785D01*
X0075481Y0109848D01*
X0075550Y0109909D01*
X0075622Y0109966D01*
X0075695Y0110020D01*
X0075772Y0110071D01*
X0075850Y0110119D01*
X0075930Y0110163D01*
X0076013Y0110203D01*
X0076096Y0110240D01*
X0076182Y0110273D01*
X0076269Y0110303D01*
X0076356Y0110328D01*
X0076445Y0110350D01*
X0076535Y0110368D01*
X0076626Y0110382D01*
X0076717Y0110392D01*
X0076808Y0110398D01*
X0076900Y0110400D01*
X0076992Y0110398D01*
X0077083Y0110392D01*
X0077174Y0110382D01*
X0077265Y0110368D01*
X0077355Y0110350D01*
X0077444Y0110328D01*
X0077531Y0110303D01*
X0077618Y0110273D01*
X0077704Y0110240D01*
X0077787Y0110203D01*
X0077870Y0110163D01*
X0077950Y0110119D01*
X0078028Y0110071D01*
X0078105Y0110020D01*
X0078178Y0109966D01*
X0078250Y0109909D01*
X0078319Y0109848D01*
X0078385Y0109785D01*
X0078448Y0109719D01*
X0078509Y0109650D01*
X0078566Y0109578D01*
X0078620Y0109505D01*
X0078671Y0109428D01*
X0078719Y0109350D01*
X0078763Y0109270D01*
X0078803Y0109187D01*
X0078840Y0109104D01*
X0078873Y0109018D01*
X0078903Y0108931D01*
X0078928Y0108844D01*
X0078950Y0108755D01*
X0078968Y0108665D01*
X0078982Y0108574D01*
X0078992Y0108483D01*
X0078998Y0108392D01*
X0079000Y0108300D01*
X0078998Y0108208D01*
X0078992Y0108117D01*
X0078982Y0108026D01*
X0078968Y0107935D01*
X0078950Y0107845D01*
X0078928Y0107756D01*
X0078903Y0107669D01*
X0078873Y0107582D01*
X0078840Y0107496D01*
X0078803Y0107413D01*
X0078763Y0107330D01*
X0078719Y0107250D01*
X0078671Y0107172D01*
X0078620Y0107095D01*
X0078566Y0107022D01*
X0078509Y0106950D01*
X0078448Y0106881D01*
X0078385Y0106815D01*
X0078319Y0106752D01*
X0078250Y0106691D01*
X0078178Y0106634D01*
X0078105Y0106580D01*
X0078028Y0106529D01*
X0077950Y0106481D01*
X0077870Y0106437D01*
X0077787Y0106397D01*
X0077704Y0106360D01*
X0077618Y0106327D01*
X0077531Y0106297D01*
X0077444Y0106272D01*
X0077355Y0106250D01*
X0077265Y0106232D01*
X0077174Y0106218D01*
X0077083Y0106208D01*
X0076992Y0106202D01*
X0076900Y0106200D01*
X0076808Y0106202D01*
X0076717Y0106208D01*
X0076626Y0106218D01*
X0076535Y0106232D01*
X0076445Y0106250D01*
X0076356Y0106272D01*
X0076269Y0106297D01*
X0076182Y0106327D01*
X0076096Y0106360D01*
X0076013Y0106397D01*
X0075930Y0106437D01*
X0075850Y0106481D01*
X0075772Y0106529D01*
X0075695Y0106580D01*
X0075622Y0106634D01*
X0075550Y0106691D01*
X0075481Y0106752D01*
X0075415Y0106815D01*
X0075352Y0106881D01*
X0075291Y0106950D01*
X0075234Y0107022D01*
X0075180Y0107095D01*
X0075129Y0107172D01*
X0075081Y0107250D01*
X0075037Y0107330D01*
X0074997Y0107413D01*
X0074960Y0107496D01*
X0074927Y0107582D01*
X0074897Y0107669D01*
X0074872Y0107756D01*
X0074850Y0107845D01*
X0074832Y0107935D01*
X0074818Y0108026D01*
X0074808Y0108117D01*
X0074802Y0108208D01*
X0074800Y0108300D01*
D15*
X0076800Y0122694D03*
X0101800Y0122694D03*
D16*
X0057646Y0114347D02*
X0009615Y0114347D01*
X0009615Y0058442D01*
X0057646Y0058442D01*
X0057646Y0114347D01*
X0038749Y0104111D02*
X0038749Y0084426D01*
X0019851Y0084426D01*
X0019851Y0104111D01*
X0038749Y0104111D01*
X0042686Y0083639D02*
X0042686Y0073402D01*
X0052135Y0073402D01*
X0052135Y0083639D01*
X0042686Y0083639D01*
X0038749Y0078914D02*
X0038749Y0059229D01*
X0019851Y0059229D01*
X0019851Y0078914D01*
X0038749Y0078914D01*
X0045836Y0024685D02*
X0047805Y0024685D01*
X0045836Y0024685D02*
X0045836Y0005000D01*
X0073395Y0024685D02*
X0075364Y0024685D01*
X0075364Y0005000D01*
X0095832Y0007988D02*
X0095832Y0019012D01*
X0112368Y0019012D01*
X0112368Y0007988D01*
X0095832Y0007988D01*
X0099769Y0012713D02*
X0099769Y0014287D01*
X0099771Y0014382D01*
X0099777Y0014477D01*
X0099786Y0014572D01*
X0099800Y0014666D01*
X0099817Y0014759D01*
X0099838Y0014852D01*
X0099862Y0014944D01*
X0099891Y0015035D01*
X0099922Y0015125D01*
X0099958Y0015213D01*
X0099997Y0015300D01*
X0100040Y0015385D01*
X0100085Y0015468D01*
X0100135Y0015549D01*
X0100187Y0015629D01*
X0100243Y0015706D01*
X0100301Y0015781D01*
X0100363Y0015853D01*
X0100428Y0015923D01*
X0100495Y0015990D01*
X0100565Y0016055D01*
X0100637Y0016117D01*
X0100712Y0016175D01*
X0100789Y0016231D01*
X0100869Y0016283D01*
X0100950Y0016333D01*
X0101033Y0016378D01*
X0101118Y0016421D01*
X0101205Y0016460D01*
X0101293Y0016496D01*
X0101383Y0016527D01*
X0101474Y0016556D01*
X0101566Y0016580D01*
X0101659Y0016601D01*
X0101752Y0016618D01*
X0101846Y0016632D01*
X0101941Y0016641D01*
X0102036Y0016647D01*
X0102131Y0016649D01*
X0102131Y0016650D02*
X0106069Y0016650D01*
X0106069Y0016649D02*
X0106164Y0016647D01*
X0106259Y0016641D01*
X0106354Y0016632D01*
X0106448Y0016618D01*
X0106541Y0016601D01*
X0106634Y0016580D01*
X0106726Y0016556D01*
X0106817Y0016527D01*
X0106907Y0016496D01*
X0106995Y0016460D01*
X0107082Y0016421D01*
X0107167Y0016378D01*
X0107250Y0016333D01*
X0107331Y0016283D01*
X0107411Y0016231D01*
X0107488Y0016175D01*
X0107563Y0016117D01*
X0107635Y0016055D01*
X0107705Y0015990D01*
X0107772Y0015923D01*
X0107837Y0015853D01*
X0107899Y0015781D01*
X0107957Y0015706D01*
X0108013Y0015629D01*
X0108065Y0015549D01*
X0108115Y0015468D01*
X0108160Y0015385D01*
X0108203Y0015300D01*
X0108242Y0015213D01*
X0108278Y0015125D01*
X0108309Y0015035D01*
X0108338Y0014944D01*
X0108362Y0014852D01*
X0108383Y0014759D01*
X0108400Y0014666D01*
X0108414Y0014572D01*
X0108423Y0014477D01*
X0108429Y0014382D01*
X0108431Y0014287D01*
X0108431Y0012713D01*
X0108429Y0012618D01*
X0108423Y0012523D01*
X0108414Y0012428D01*
X0108400Y0012334D01*
X0108383Y0012241D01*
X0108362Y0012148D01*
X0108338Y0012056D01*
X0108309Y0011965D01*
X0108278Y0011875D01*
X0108242Y0011787D01*
X0108203Y0011700D01*
X0108160Y0011615D01*
X0108115Y0011532D01*
X0108065Y0011451D01*
X0108013Y0011371D01*
X0107957Y0011294D01*
X0107899Y0011219D01*
X0107837Y0011147D01*
X0107772Y0011077D01*
X0107705Y0011010D01*
X0107635Y0010945D01*
X0107563Y0010883D01*
X0107488Y0010825D01*
X0107411Y0010769D01*
X0107331Y0010717D01*
X0107250Y0010667D01*
X0107167Y0010622D01*
X0107082Y0010579D01*
X0106995Y0010540D01*
X0106907Y0010504D01*
X0106817Y0010473D01*
X0106726Y0010444D01*
X0106634Y0010420D01*
X0106541Y0010399D01*
X0106448Y0010382D01*
X0106354Y0010368D01*
X0106259Y0010359D01*
X0106164Y0010353D01*
X0106069Y0010351D01*
X0106069Y0010350D02*
X0102131Y0010350D01*
X0102131Y0010351D02*
X0102036Y0010353D01*
X0101941Y0010359D01*
X0101846Y0010368D01*
X0101752Y0010382D01*
X0101659Y0010399D01*
X0101566Y0010420D01*
X0101474Y0010444D01*
X0101383Y0010473D01*
X0101293Y0010504D01*
X0101205Y0010540D01*
X0101118Y0010579D01*
X0101033Y0010622D01*
X0100950Y0010667D01*
X0100869Y0010717D01*
X0100789Y0010769D01*
X0100712Y0010825D01*
X0100637Y0010883D01*
X0100565Y0010945D01*
X0100495Y0011010D01*
X0100428Y0011077D01*
X0100363Y0011147D01*
X0100301Y0011219D01*
X0100243Y0011294D01*
X0100187Y0011371D01*
X0100135Y0011451D01*
X0100085Y0011532D01*
X0100040Y0011615D01*
X0099997Y0011700D01*
X0099958Y0011787D01*
X0099922Y0011875D01*
X0099891Y0011965D01*
X0099862Y0012056D01*
X0099838Y0012148D01*
X0099817Y0012241D01*
X0099800Y0012334D01*
X0099786Y0012428D01*
X0099777Y0012523D01*
X0099771Y0012618D01*
X0099769Y0012713D01*
X0095832Y0020188D02*
X0095832Y0031212D01*
X0112368Y0031212D01*
X0112368Y0020188D01*
X0095832Y0020188D01*
X0099769Y0024913D02*
X0099769Y0026487D01*
X0099771Y0026582D01*
X0099777Y0026677D01*
X0099786Y0026772D01*
X0099800Y0026866D01*
X0099817Y0026959D01*
X0099838Y0027052D01*
X0099862Y0027144D01*
X0099891Y0027235D01*
X0099922Y0027325D01*
X0099958Y0027413D01*
X0099997Y0027500D01*
X0100040Y0027585D01*
X0100085Y0027668D01*
X0100135Y0027749D01*
X0100187Y0027829D01*
X0100243Y0027906D01*
X0100301Y0027981D01*
X0100363Y0028053D01*
X0100428Y0028123D01*
X0100495Y0028190D01*
X0100565Y0028255D01*
X0100637Y0028317D01*
X0100712Y0028375D01*
X0100789Y0028431D01*
X0100869Y0028483D01*
X0100950Y0028533D01*
X0101033Y0028578D01*
X0101118Y0028621D01*
X0101205Y0028660D01*
X0101293Y0028696D01*
X0101383Y0028727D01*
X0101474Y0028756D01*
X0101566Y0028780D01*
X0101659Y0028801D01*
X0101752Y0028818D01*
X0101846Y0028832D01*
X0101941Y0028841D01*
X0102036Y0028847D01*
X0102131Y0028849D01*
X0102131Y0028850D02*
X0106069Y0028850D01*
X0106069Y0028849D02*
X0106164Y0028847D01*
X0106259Y0028841D01*
X0106354Y0028832D01*
X0106448Y0028818D01*
X0106541Y0028801D01*
X0106634Y0028780D01*
X0106726Y0028756D01*
X0106817Y0028727D01*
X0106907Y0028696D01*
X0106995Y0028660D01*
X0107082Y0028621D01*
X0107167Y0028578D01*
X0107250Y0028533D01*
X0107331Y0028483D01*
X0107411Y0028431D01*
X0107488Y0028375D01*
X0107563Y0028317D01*
X0107635Y0028255D01*
X0107705Y0028190D01*
X0107772Y0028123D01*
X0107837Y0028053D01*
X0107899Y0027981D01*
X0107957Y0027906D01*
X0108013Y0027829D01*
X0108065Y0027749D01*
X0108115Y0027668D01*
X0108160Y0027585D01*
X0108203Y0027500D01*
X0108242Y0027413D01*
X0108278Y0027325D01*
X0108309Y0027235D01*
X0108338Y0027144D01*
X0108362Y0027052D01*
X0108383Y0026959D01*
X0108400Y0026866D01*
X0108414Y0026772D01*
X0108423Y0026677D01*
X0108429Y0026582D01*
X0108431Y0026487D01*
X0108431Y0024913D01*
X0108429Y0024818D01*
X0108423Y0024723D01*
X0108414Y0024628D01*
X0108400Y0024534D01*
X0108383Y0024441D01*
X0108362Y0024348D01*
X0108338Y0024256D01*
X0108309Y0024165D01*
X0108278Y0024075D01*
X0108242Y0023987D01*
X0108203Y0023900D01*
X0108160Y0023815D01*
X0108115Y0023732D01*
X0108065Y0023651D01*
X0108013Y0023571D01*
X0107957Y0023494D01*
X0107899Y0023419D01*
X0107837Y0023347D01*
X0107772Y0023277D01*
X0107705Y0023210D01*
X0107635Y0023145D01*
X0107563Y0023083D01*
X0107488Y0023025D01*
X0107411Y0022969D01*
X0107331Y0022917D01*
X0107250Y0022867D01*
X0107167Y0022822D01*
X0107082Y0022779D01*
X0106995Y0022740D01*
X0106907Y0022704D01*
X0106817Y0022673D01*
X0106726Y0022644D01*
X0106634Y0022620D01*
X0106541Y0022599D01*
X0106448Y0022582D01*
X0106354Y0022568D01*
X0106259Y0022559D01*
X0106164Y0022553D01*
X0106069Y0022551D01*
X0106069Y0022550D02*
X0102131Y0022550D01*
X0102131Y0022551D02*
X0102036Y0022553D01*
X0101941Y0022559D01*
X0101846Y0022568D01*
X0101752Y0022582D01*
X0101659Y0022599D01*
X0101566Y0022620D01*
X0101474Y0022644D01*
X0101383Y0022673D01*
X0101293Y0022704D01*
X0101205Y0022740D01*
X0101118Y0022779D01*
X0101033Y0022822D01*
X0100950Y0022867D01*
X0100869Y0022917D01*
X0100789Y0022969D01*
X0100712Y0023025D01*
X0100637Y0023083D01*
X0100565Y0023145D01*
X0100495Y0023210D01*
X0100428Y0023277D01*
X0100363Y0023347D01*
X0100301Y0023419D01*
X0100243Y0023494D01*
X0100187Y0023571D01*
X0100135Y0023651D01*
X0100085Y0023732D01*
X0100040Y0023815D01*
X0099997Y0023900D01*
X0099958Y0023987D01*
X0099922Y0024075D01*
X0099891Y0024165D01*
X0099862Y0024256D01*
X0099838Y0024348D01*
X0099817Y0024441D01*
X0099800Y0024534D01*
X0099786Y0024628D01*
X0099777Y0024723D01*
X0099771Y0024818D01*
X0099769Y0024913D01*
D17*
X0031406Y0020900D02*
X0018194Y0020900D01*
X0018194Y0046700D01*
X0031406Y0046700D01*
X0031406Y0020900D01*
D18*
X0015225Y0042300D02*
X0013890Y0042300D01*
X0014557Y0042300D02*
X0014557Y0044302D01*
X0013890Y0043634D01*
X0013015Y0044302D02*
X0013015Y0042634D01*
X0012681Y0042300D01*
X0012014Y0042300D01*
X0011680Y0042634D01*
X0011680Y0044302D01*
D19*
X0046900Y0042400D02*
X0046900Y0032400D01*
X0086900Y0032400D01*
X0086900Y0042400D01*
X0056900Y0042400D01*
X0056900Y0032400D01*
X0056900Y0042400D02*
X0046900Y0042400D01*
M02*
