G75*
%MOIN*%
%OFA0B0*%
%FSLAX25Y25*%
%IPPOS*%
%LPD*%
%AMOC8*
5,1,8,0,0,1.08239X$1,22.5*
%
%ADD10R,0.05918X0.06706*%
%ADD11R,0.07493X0.03359*%
%ADD12R,0.06800X0.06800*%
%ADD13OC8,0.06800*%
%ADD14R,0.05524X0.05524*%
%ADD15R,0.07099X0.05918*%
%ADD16R,0.06706X0.04737*%
%ADD17R,0.09600X0.05600*%
%ADD18R,0.09461X0.14973*%
%ADD19R,0.02375X0.07690*%
%ADD20R,0.08674X0.08674*%
%ADD21C,0.04934*%
%ADD22R,0.04737X0.04737*%
%ADD23R,0.05918X0.07099*%
%ADD24C,0.04562*%
D10*
X0012360Y0013700D03*
X0019840Y0013700D03*
X0027960Y0052800D03*
X0035440Y0052800D03*
D11*
X0070481Y0054800D03*
X0070481Y0049800D03*
X0070481Y0044800D03*
X0070481Y0059800D03*
X0070481Y0064800D03*
X0070481Y0069800D03*
X0070481Y0074800D03*
X0070481Y0079800D03*
X0070481Y0084800D03*
X0070481Y0089800D03*
X0070481Y0094800D03*
X0070481Y0099800D03*
X0070481Y0104800D03*
X0070481Y0109800D03*
X0108119Y0109800D03*
X0108119Y0104800D03*
X0108119Y0099800D03*
X0108119Y0094800D03*
X0108119Y0089800D03*
X0108119Y0084800D03*
X0108119Y0079800D03*
X0108119Y0074800D03*
X0108119Y0069800D03*
X0108119Y0064800D03*
X0108119Y0059800D03*
X0108119Y0054800D03*
X0108119Y0049800D03*
X0108119Y0044800D03*
D12*
X0086400Y0012300D03*
X0051900Y0037400D03*
X0035500Y0012300D03*
X0094300Y0099800D03*
X0110500Y0122300D03*
D13*
X0094925Y0089800D03*
X0094300Y0079800D03*
X0094925Y0069800D03*
X0094300Y0059800D03*
X0094925Y0049800D03*
X0081900Y0037400D03*
X0071900Y0037400D03*
X0061900Y0037400D03*
D14*
X0076800Y0118166D03*
X0076800Y0126434D03*
X0101800Y0126434D03*
X0101800Y0118166D03*
D15*
X0094300Y0118560D03*
X0094300Y0126040D03*
X0084300Y0126040D03*
X0084300Y0118560D03*
D16*
X0058434Y0111198D03*
X0058434Y0103324D03*
X0058434Y0095450D03*
X0058434Y0087576D03*
X0058434Y0079702D03*
X0058434Y0071828D03*
X0058434Y0063954D03*
X0008828Y0063954D03*
X0008828Y0071828D03*
X0008828Y0079702D03*
X0008828Y0087576D03*
X0008828Y0095450D03*
X0008828Y0103324D03*
X0008828Y0111198D03*
D17*
X0037000Y0042900D03*
X0037000Y0033800D03*
X0037000Y0024700D03*
D18*
X0012599Y0033800D03*
D19*
X0055482Y0022815D03*
X0058041Y0022815D03*
X0060600Y0022815D03*
X0063159Y0022815D03*
X0065718Y0022815D03*
D20*
X0071328Y0011693D03*
X0049872Y0011693D03*
D21*
X0051053Y0023622D03*
X0070147Y0023622D03*
D22*
X0096226Y0022550D03*
X0096226Y0016650D03*
X0096226Y0010350D03*
X0111974Y0010350D03*
X0111974Y0016650D03*
X0111974Y0022550D03*
X0111974Y0028850D03*
X0096226Y0028850D03*
D23*
X0017440Y0052800D03*
X0009960Y0052800D03*
D24*
X0024800Y0038100D03*
X0024800Y0033700D03*
X0024800Y0029300D03*
X0046800Y0057300D03*
X0041800Y0067300D03*
X0036800Y0067300D03*
X0031800Y0079800D03*
X0037900Y0083500D03*
X0031800Y0087300D03*
X0016800Y0109800D03*
X0061800Y0057300D03*
X0076800Y0069800D03*
X0076800Y0074800D03*
X0076800Y0084800D03*
X0076800Y0084800D03*
X0079300Y0092300D03*
X0084300Y0084800D03*
X0079300Y0099800D03*
X0084300Y0112300D03*
X0094300Y0109800D03*
X0101800Y0109800D03*
X0114300Y0079800D03*
X0114300Y0074800D03*
X0101800Y0072300D03*
X0084300Y0052300D03*
X0084300Y0047300D03*
X0109300Y0034800D03*
X0104100Y0013600D03*
M02*
